<?xml version="1.0" standalone="no"?>
<!DOCTYPE svg PUBLIC "-//W3C//DTD SVG 1.1//EN" "http://www.w3.org/Graphics/SVG/1.1/DTD/svg11.dtd" >
<svg xmlns="http://www.w3.org/2000/svg">
<metadata>
Created by FontPrep 20130207 at Wed Sep 10 20:28:12 2014
 By Maxim Mart
Copyright (c) Mark Simonson, 2005. All rights reserved.
</metadata>
<defs>
<font id="d1e00a8fb1fd9b428ab6b90409479fde" horiz-adv-x='1024' >
  <font-face 
    font-family="ProximaNova-Bold"
    font-weight="700"
    font-stretch="normal"
    units-per-em="2048"
    panose-1="2 0 5 6 3 0 0 2 0 4"
    ascent="1618"
    descent="-430"
    x-height="989"
    cap-height="1366"
    bbox="-352 -590 2349.01 1862"
    underline-thickness="40"
    underline-position="-231"
    unicode-range="U+000D-FB04"
  />
<missing-glyph horiz-adv-x="989" 
d="M788 -123v1602h-589v-1602h589zM854 -184h-719v1724h719v-1724z" />
    <glyph glyph-name="f_f_j" unicode="ffj" horiz-adv-x="1857" 
d="M449 0h-263v762h-163v227h163v53q0 158 92 251t254 93q160 0 246 -92l-98 -153q-40 41 -102 41t-96 -36t-33 -104v-53h200v-227h-200v-762zM1378 -401q-90 0 -140 15t-108 54l72 195q62 -51 128 -51t104 41q37 41 36 120v1016h261v-1016q1 -174 -89 -274t-264 -100z
M1599 1096q-63 0 -109 46t-46 109t46 109t110 45q64 0 110 -45q45 -44 45 -108q-1 -64 -47 -110t-109 -46zM1118 0h-262v762h-164v227h164v53q0 158 92 251t242 93q111 0 188 -40l-53 -189q-35 25 -88 25t-86 -37t-33 -103v-53h201v-227h-201v-762z" />
    <glyph glyph-name="f_j" unicode="fj" horiz-adv-x="1187" 
d="M707 -401q-91 0 -141 15t-107 54l71 195q61 -51 128 -51t104 41t37 120v1016h260v-1016q0 -174 -89 -274t-263 -100zM928 1096q-63 0 -110 46q-46 46 -46 109t46 109t111 45q65 0 109 -45q44 -44 45 -108q0 -64 -46 -110t-109 -46zM449 0h-263v762h-163v227h163v53
q0 158 94 251t222 93q129 0 207 -40l-54 -189q-35 25 -88 25t-86 -37t-32 -103v-53h200v-227h-200v-762z" />
    <glyph glyph-name="f_f" unicode="ff" horiz-adv-x="1341" 
d="M1118 0h-262v762h-164v227h164v53q0 158 92 251t253 93t247 -92l-98 -153q-40 41 -102 41t-96 -36t-34 -104v-53h201v-227h-201v-762zM449 0h-263v762h-163v227h163v53q0 158 92 251t254 93q160 0 246 -92l-98 -153q-40 41 -102 41t-96 -36t-33 -104v-53h200v-227h-200
v-762z" />
    <glyph glyph-name="fi" unicode="fi" horiz-adv-x="1187" 
d="M1059 0h-260v989h260v-989zM928 1096q-63 0 -110 46q-46 46 -46 109t46 109t111 45q65 0 109 -45q44 -44 45 -108q0 -64 -46 -110t-109 -46zM449 0h-263v762h-163v227h163v53q0 158 94 251t222 93q129 0 207 -40l-54 -189q-35 25 -88 25t-86 -37t-32 -103v-53h200v-227
h-200v-762z" />
    <glyph glyph-name="fl" unicode="fl" horiz-adv-x="1187" 
d="M1059 0h-260v1366h260v-1366zM449 0h-263v762h-163v227h163v53q0 158 94 251t222 93q129 0 207 -40l-54 -189q-35 25 -88 25t-86 -37t-32 -103v-53h200v-227h-200v-762z" />
    <glyph glyph-name="f_f_i" unicode="ffi" horiz-adv-x="1857" 
d="M449 0h-263v762h-163v227h163v53q0 158 92 251t254 93q160 0 246 -92l-98 -153q-40 41 -102 41t-96 -36t-33 -104v-53h200v-227h-200v-762zM1731 0h-261v989h261v-989zM1599 1096q-63 0 -109 46t-46 109t46 109t110 45q64 0 110 -45q45 -44 45 -108q-1 -64 -47 -110
t-109 -46zM1118 0h-262v762h-164v227h164v53q0 158 92 251t242 93q111 0 188 -40l-53 -189q-35 25 -88 25t-86 -37t-33 -103v-53h201v-227h-201v-762z" />
    <glyph glyph-name="f_f_l" unicode="ffl" horiz-adv-x="1857" 
d="M449 0h-263v762h-163v227h163v53q0 158 92 251t254 93q160 0 246 -92l-98 -153q-40 41 -102 41t-96 -36t-33 -104v-53h200v-227h-200v-762zM1731 0h-261v1366h261v-1366zM1118 0h-262v762h-164v227h164v53q0 158 92 251t242 93q111 0 188 -40l-53 -189q-35 25 -88 25
t-86 -37t-33 -103v-53h201v-227h-201v-762z" />
    <glyph glyph-name="f_b" unicode="fb" horiz-adv-x="1867" 
d="M1059 0h-260v1366h260v-504q117 152 307 152t314 -142q122 -142 122 -380q0 -240 -123 -378t-311 -138t-309 151v-127zM1282 207q112 0 182 79t70 208q0 128 -70 208t-182 80q-62 0 -126 -32t-97 -82v-351q33 -47 96 -79t127 -31zM449 0h-263v762h-163v227h163v53
q0 158 94 251t222 93q129 0 207 -40l-54 -189q-35 25 -88 25t-86 -37t-32 -103v-53h200v-227h-200v-762z" />
    <glyph glyph-name="f_h" unicode="fh" horiz-adv-x="1857" 
d="M1729 0h-261v602q0 98 -47 139t-137 41q-137 0 -225 -116v-666h-260v1366h260v-506q53 62 144 108t204 46q160 0 241 -82t81 -230v-702zM449 0h-263v762h-163v227h163v53q0 158 94 251t222 93q129 0 207 -40l-54 -189q-35 25 -88 25t-86 -37t-32 -103v-53h200v-227h-200
v-762z" />
    <glyph glyph-name="f_k" unicode="fk" horiz-adv-x="1767" 
d="M1059 0h-260v1366h260v-817l375 440h319l-391 -448l403 -541h-325l-262 381l-119 -127v-254zM449 0h-263v762h-163v227h163v53q0 158 94 251t222 93q129 0 207 -40l-54 -189q-35 25 -88 25t-86 -37t-32 -103v-53h200v-227h-200v-762z" />
    <glyph glyph-name=".notdef" horiz-adv-x="989" 
d="M788 -123v1602h-589v-1602h589zM854 -184h-719v1724h719v-1724z" />
    <glyph glyph-name=".null" horiz-adv-x="0" 
 />
    <glyph glyph-name=".null" horiz-adv-x="0" 
 />
    <glyph glyph-name="nonmarkingreturn" horiz-adv-x="681" 
 />
    <glyph glyph-name="CR" unicode="&#xd;" horiz-adv-x="0" 
 />
    <glyph glyph-name="space" unicode=" " horiz-adv-x="524" 
 />
    <glyph glyph-name="exclam" unicode="!" horiz-adv-x="524" 
d="M262 -20q-68 0 -116 49t-48 115t48 116q48 49 116 49t117 -49t49 -116q0 -68 -49 -116t-117 -48zM377 444h-230l-43 922h314z" />
    <glyph glyph-name="quotedbl" unicode="&#x22;" horiz-adv-x="831" 
d="M461 1254q0 48 42 90t99 42t98 -40t41 -101l-84 -477h-112q-84 438 -84 486zM90 1254q0 48 41 90t99 42t101 -41q42 -42 42 -100l-84 -477h-115q-84 438 -84 486z" />
    <glyph glyph-name="numbersign" unicode="#" horiz-adv-x="1265" 
d="M672 512l112 340h-192l-111 -340h191zM694 0h-194l118 346h-194l-117 -346h-192l116 346h-196l53 166h201l110 340h-200l51 164h207l114 350h193l-115 -350h193l114 350h195l-119 -350h199l-49 -164h-205l-113 -340h207l-51 -166h-211z" />
    <glyph glyph-name="dollar" unicode="$" horiz-adv-x="1257" 
d="M401 995q0 -76 144 -116v249q-68 -8 -106 -44t-38 -89zM891 381q0 82 -152 131v-274q72 14 112 54t40 89zM545 -205v185q-299 27 -484 213l158 221q135 -143 326 -176v323q-252 60 -346 158q-95 98 -95 255q0 156 119 272t322 136v191h194v-195q246 -27 416 -182
l-162 -213q-106 96 -254 133v-289q248 -59 347 -160q100 -101 100 -265t-115 -281t-332 -139v-187h-194z" />
    <glyph glyph-name="percent" unicode="%" horiz-adv-x="1550" 
d="M1151 135q72 0 118 48t46 131t-46 132q-46 50 -118 50t-117 -50t-45 -132q0 -83 45 -131t117 -48zM399 1225q-73 0 -117 -49q-44 -48 -44 -130t46 -131t116 -49q71 0 116 48t45 130t-45 132t-117 49zM1151 -25q-154 1 -250 97t-96 242t96 244t250 99q154 0 251 -98
q97 -99 97 -245t-97 -242t-251 -97zM420 0h-154l873 1366h155zM400 707q-154 0 -250 95t-96 241q0 147 96 245t250 98t251 -98t97 -244t-96 -242q-96 -95 -252 -95z" />
    <glyph glyph-name="ampersand" unicode="&#x26;" horiz-adv-x="1323" 
d="M512 1048q0 -66 59 -180q101 46 153 96t52 111t-35 92t-91 31t-97 -42t-41 -108zM543 180q94 0 190 70q-171 189 -289 354q-119 -84 -118 -209q0 -95 62 -155t155 -60zM504 -25q-200 1 -328 103q-127 102 -127 293q0 141 79 233t214 160q-90 170 -90 302t110 226
q111 94 272 94t264 -78t103 -218q0 -139 -96 -220t-239 -147q85 -111 154 -193q69 -81 79 -94q82 127 125 264l209 -96q-86 -188 -191 -330q138 -147 265 -274h-332q-43 41 -103 102q-168 -127 -368 -127z" />
    <glyph glyph-name="quotesingle" unicode="'" horiz-adv-x="460" 
d="M90 1254q0 48 41 90t99 42t101 -41q42 -42 42 -100l-84 -477h-115q-84 438 -84 486z" />
    <glyph glyph-name="parenleft" unicode="(" horiz-adv-x="608" 
d="M84 498q0 248 87 492t237 413l163 -123q-106 -195 -156 -377t-50 -405t50 -406t156 -373l-163 -127q-150 168 -237 413t-87 493z" />
    <glyph glyph-name="parenright" unicode=")" horiz-adv-x="608" 
d="M244 498q0 226 -50 407q-50 182 -159 375l164 123q151 -170 239 -414q88 -243 88 -491t-88 -493t-239 -413l-164 127q109 189 159 371t50 408z" />
    <glyph glyph-name="asterisk" unicode="*" horiz-adv-x="718" 
d="M424 750h-129l10 225l-190 -121l-64 111l199 102l-199 102l64 113l190 -121l-10 225h129l-10 -225l188 121l66 -113l-199 -102l199 -102l-66 -111l-188 121z" />
    <glyph glyph-name="plus" unicode="+" horiz-adv-x="1032" 
d="M973 610h-367v-415h-178v415h-369v162h369v399h178v-399h367v-162z" />
    <glyph glyph-name="comma" unicode="," horiz-adv-x="524" 
d="M261 309q71 -1 125 -57t54 -160t-57 -204q-57 -99 -154 -169l-112 93q51 27 98 83t59 109q-18 -6 -38 -6q-59 0 -100 41q-40 41 -40 107t47 115q47 48 118 48z" />
    <glyph glyph-name="hyphen" unicode="-" horiz-adv-x="614" 
d="M553 385h-492v221h492v-221z" />
    <glyph glyph-name="period" unicode="." horiz-adv-x="524" 
d="M262 -23q-68 -1 -117 49t-49 118t49 116q49 49 117 49t117 -49t49 -117t-49 -117t-117 -49z" />
    <glyph glyph-name="slash" unicode="/" horiz-adv-x="673" 
d="M188 -41h-188l485 1448h189z" />
    <glyph glyph-name="zero" unicode="0" horiz-adv-x="1269" 
d="M635 233q139 0 204 123t64 326q0 203 -64 325q-65 121 -204 121t-205 -122t-66 -324q0 -203 66 -326t205 -123zM635 -25q-187 -1 -319 105t-189 262t-57 340t57 340t189 260t318 104t318 -104q248 -197 248 -600t-248 -601q-131 -106 -317 -106z" />
    <glyph glyph-name="one" unicode="1" horiz-adv-x="841" 
d="M707 0h-291v991l-228 -231l-165 174l430 432h254v-1366z" />
    <glyph glyph-name="two" unicode="2" horiz-adv-x="1228" 
d="M1124 0h-1028v227q438 326 581 464q142 138 142 259q0 84 -65 131q-66 47 -156 47q-215 0 -367 -157l-165 192q96 111 236 167t290 56q225 0 374 -118q148 -118 148 -302t-132 -344t-415 -366h557v-256z" />
    <glyph glyph-name="three" unicode="3" horiz-adv-x="1202" 
d="M580 -25q-180 1 -320 61t-219 159l152 194q70 -72 172 -114q103 -42 215 -42q112 1 180 49t68 128t-66 118t-202 37q-136 0 -177 -4v262q25 -2 170 -2q252 0 252 146q0 77 -71 119t-183 42q-199 0 -346 -141l-146 182q193 217 523 217q240 0 378 -100t138 -270
q0 -123 -88 -206t-211 -105q121 -11 220 -99t99 -229q0 -178 -147 -290t-391 -112z" />
    <glyph glyph-name="four" unicode="4" horiz-adv-x="1222" 
d="M705 539v569l-369 -569h369zM995 0h-290v283h-654v229l543 854h401v-827h176v-256h-176v-283z" />
    <glyph glyph-name="five" unicode="5" horiz-adv-x="1245" 
d="M627 -25q-338 0 -527 205l162 203q143 -150 363 -150q117 1 185 59t69 147q0 89 -66 145t-180 55q-170 0 -287 -111l-203 54v784h938v-256h-647v-334q115 115 299 115q185 0 313 -121q128 -122 128 -330t-150 -336t-397 -129z" />
    <glyph glyph-name="six" unicode="6" horiz-adv-x="1245" 
d="M633 233q121 -1 187 61t67 151q0 89 -74 141t-180 53q-164 0 -266 -129q9 -115 77 -196t189 -81zM659 -25q-295 0 -442 197t-147 511t170 509t467 194q238 0 403 -141l-131 -223q-113 106 -267 106t-251 -112q-96 -112 -96 -275q0 -18 2 -28q51 74 147 125t203 51
q195 0 330 -118t135 -324t-146 -339t-377 -133z" />
    <glyph glyph-name="seven" unicode="7" horiz-adv-x="1116" 
d="M49 1110v256h1026v-203l-508 -1163h-319l489 1110h-688z" />
    <glyph glyph-name="eight" unicode="8" horiz-adv-x="1241" 
d="M367 392q1 -75 73 -121t180 -46t181 46t73 121t-82 122q-83 47 -171 59q-88 -12 -171 -59t-83 -122zM850 983q0 70 -64 112t-165 42q-102 0 -167 -42t-65 -112t74 -111t158 -53q85 12 157 53t72 111zM1169 354q1 -180 -159 -280t-390 -99t-390 99t-158 280q0 119 82 212
t211 139q-270 94 -271 321q0 178 157 269t370 91q298 0 445 -154q81 -85 81 -206q0 -225 -273 -321q129 -45 212 -139t83 -212z" />
    <glyph glyph-name="nine" unicode="9" horiz-adv-x="1245" 
d="M610 725q164 0 269 127q-10 115 -78 197q-68 81 -190 81q-121 0 -187 -61t-66 -150t74 -141t178 -53zM539 -23q-244 0 -402 142l129 223q113 -106 273 -106t251 114t91 271v30q-53 -74 -149 -125t-204 -51q-194 0 -330 118t-136 324q0 207 146 339t362 132t351 -98
q251 -182 253 -608q0 -315 -169 -510t-466 -195z" />
    <glyph glyph-name="colon" unicode=":" horiz-adv-x="514" 
d="M262 -23q-68 -1 -117 49t-49 118t49 116q49 49 117 49t117 -49t49 -117t-49 -117t-117 -49zM262 672q-68 0 -117 49t-49 117t49 116t117 50q68 0 117 -50t49 -116q0 -68 -49 -117t-117 -49z" />
    <glyph glyph-name="semicolon" unicode=";" horiz-adv-x="524" 
d="M96 153q0 67 47 113t118 47q71 -1 125 -57t54 -160t-57 -204q-57 -99 -154 -168l-112 92q51 29 98 86t59 108q-25 -8 -38 -8q-59 0 -100 42q-40 42 -40 109zM262 672q-68 0 -117 50t-49 117t49 115t117 50q68 0 117 -50t49 -116t-49 -116t-117 -50z" />
    <glyph glyph-name="less" unicode="&#x3c;" horiz-adv-x="1032" 
d="M973 184l-914 408v186l914 410v-193l-727 -311l727 -307v-193z" />
    <glyph glyph-name="equal" unicode="=" horiz-adv-x="1032" 
d="M973 412h-914v159h914v-159zM973 795h-914v163h914v-163z" />
    <glyph glyph-name="greater" unicode="&#x3e;" horiz-adv-x="1032" 
d="M973 592l-914 -408v193l727 307l-727 311v193l914 -410v-186z" />
    <glyph glyph-name="question" unicode="?" horiz-adv-x="933" 
d="M463 -23q-68 -1 -117 49t-49 118t49 116q49 49 117 49t117 -49t49 -117t-49 -117t-117 -49zM297 586q0 94 47 160t102 98q54 33 102 78t48 93t-40 81t-120 32q-145 0 -252 -127l-166 187q170 199 449 198q197 0 311 -89t115 -234q0 -82 -35 -148q-35 -67 -85 -107
t-101 -75q-121 -83 -121 -164q0 -53 37 -86l-223 -65q-68 74 -68 168z" />
    <glyph glyph-name="at" unicode="@" horiz-adv-x="1603" 
d="M719 358q129 0 227 134l51 239q-51 105 -168 105t-199 -90t-81 -207q0 -81 46 -131t124 -50zM721 -143q-279 0 -464 185t-185 458q0 213 113 400q114 187 302 297t398 110q287 -1 466 -183t179 -432t-127 -384t-279 -134q-86 0 -137 44t-63 120q-53 -76 -133 -120
t-162 -44q-145 0 -232 96q-86 96 -86 248q-1 202 141 352t322 150q88 0 155 -38t101 -99l23 108h231l-104 -499q-6 -37 -6 -50q0 -92 74 -92t133 85q60 85 61 245q0 244 -155 396t-410 151q-291 0 -508 -218t-217 -505q0 -242 164 -406t413 -164q197 0 375 113l43 -61
q-201 -129 -426 -129z" />
    <glyph glyph-name="A" unicode="A" horiz-adv-x="1400" 
d="M913 487l-213 588l-213 -588h426zM1409 0h-332l-84 231h-585l-86 -231h-332l528 1366h365z" />
    <glyph glyph-name="B" unicode="B" horiz-adv-x="1357" 
d="M801 252q82 0 129 42t47 113t-47 117t-129 45h-375v-317h375zM791 819q75 0 117 41t42 107q0 65 -44 107t-115 42h-365v-297h365zM877 0h-742v1366h719q186 0 290 -101t103 -237q1 -136 -67 -219q-68 -84 -168 -104q110 -17 186 -113t76 -240t-104 -248t-293 -104z" />
    <glyph glyph-name="C" unicode="C" horiz-adv-x="1406" 
d="M797 -25q-311 0 -519 198t-208 509t208 509t519 198q383 0 571 -334l-250 -123q-45 86 -132 142t-189 56q-186 0 -308 -126q-121 -127 -121 -322t122 -322q120 -127 307 -127q102 -1 189 55t132 144l250 -121q-194 -336 -571 -336z" />
    <glyph glyph-name="D" unicode="D" horiz-adv-x="1470" 
d="M674 256q196 0 312 123t116 307t-113 304t-315 120h-248v-854h248zM674 0h-539v1366h539q322 0 524 -188t201 -496t-201 -494q-200 -188 -524 -188z" />
    <glyph glyph-name="E" unicode="E" horiz-adv-x="1193" 
d="M1102 0h-967v1366h967v-256h-676v-289h661v-256h-661v-309h676v-256z" />
    <glyph glyph-name="F" unicode="F" horiz-adv-x="1169" 
d="M426 0h-291v1366h967v-256h-676v-289h661v-256h-661v-565z" />
    <glyph glyph-name="G" unicode="G" horiz-adv-x="1474" 
d="M797 -27q-307 0 -517 197t-210 513t210 511t517 195q373 0 565 -306l-242 -131q-49 78 -134 128t-189 50q-186 0 -308 -126q-121 -127 -121 -322t122 -322q120 -127 307 -127q86 0 166 31t124 74v164h-360v254h651v-525q-231 -258 -581 -258z" />
    <glyph glyph-name="H" unicode="H" horiz-adv-x="1497" 
d="M1364 0h-293v573h-645v-573h-291v1366h291v-537h645v537h293v-1366z" />
    <glyph glyph-name="I" unicode="I" horiz-adv-x="561" 
d="M426 0h-291v1366h291v-1366z" />
    <glyph glyph-name="J" unicode="J" horiz-adv-x="995" 
d="M860 449q0 -233 -131 -353t-356 -121q-225 0 -361 134l127 223q101 -98 207 -98t164 58q58 60 59 161v913h291v-917z" />
    <glyph glyph-name="K" unicode="K" horiz-adv-x="1302" 
d="M426 0h-291v1366h291v-610l483 610h359l-543 -641l580 -725h-359l-414 547l-106 -127v-420z" />
    <glyph glyph-name="L" unicode="L" horiz-adv-x="1071" 
d="M1004 0h-869v1366h291v-1110h578v-256z" />
    <glyph glyph-name="M" unicode="M" horiz-adv-x="1751" 
d="M1616 0h-293v956l-385 -956h-127l-385 956v-956h-291v1366h408l331 -825l332 825h410v-1366z" />
    <glyph glyph-name="N" unicode="N" horiz-adv-x="1492" 
d="M1358 0h-281l-651 891v-891h-291v1366h299l633 -858v858h291v-1366z" />
    <glyph glyph-name="O" unicode="O" horiz-adv-x="1566" 
d="M782 233q186 0 301 127t115 322t-115 322q-115 126 -301 126t-300 -126t-114 -322q0 -195 114 -322t300 -127zM783 -25q-310 0 -512 200t-201 507q0 307 201 507q202 200 512 200t512 -199t202 -508t-202 -508t-512 -199z" />
    <glyph glyph-name="P" unicode="P" horiz-adv-x="1277" 
d="M735 741q89 1 145 51t56 134t-56 134t-145 50h-309v-369h309zM426 0h-291v1366h639q215 0 337 -126t122 -313t-123 -315t-336 -127h-348v-485z" />
    <glyph glyph-name="Q" unicode="Q" horiz-adv-x="1566" 
d="M782 233q72 0 144 23l-150 176l201 166l151 -178q70 115 70 262q0 195 -115 322q-115 126 -301 126t-300 -126t-114 -322q0 -195 114 -322t300 -127zM782 -25q-309 0 -511 200t-201 507q0 307 201 507q202 200 512 200t512 -199t202 -498t-178 -493l100 -117l-202 -166
l-111 127q-152 -68 -324 -68z" />
    <glyph glyph-name="R" unicode="R" horiz-adv-x="1316" 
d="M731 741q89 1 147 51t58 134t-57 134t-148 50h-305v-369h305zM426 485v-485h-291v1366h639q211 0 335 -123t124 -304t-87 -285t-212 -134l307 -520h-334l-268 485h-213z" />
    <glyph glyph-name="S" unicode="S" horiz-adv-x="1228" 
d="M621 -25q-365 0 -578 218l158 221q176 -184 434 -185q113 0 175 44q62 43 62 103t-58 97t-145 53t-189 47t-190 70q-87 39 -146 123q-58 84 -58 205q0 176 141 296t377 119q326 0 533 -190l-162 -213q-162 150 -397 150q-92 0 -144 -37q-52 -38 -51 -94q0 -103 197 -139
t384 -121q87 -40 145 -125t58 -203q0 -197 -140 -318t-406 -121z" />
    <glyph glyph-name="T" unicode="T" horiz-adv-x="1191" 
d="M743 0h-292v1110h-400v256h1090v-256h-398v-1110z" />
    <glyph glyph-name="U" unicode="U" horiz-adv-x="1501" 
d="M752 -25q-303 0 -460 155t-157 415v821h295v-811q0 -147 84 -234t238 -87t236 86q82 88 83 235v811h297v-819q0 -264 -156 -418t-460 -154z" />
    <glyph glyph-name="V" unicode="V" horiz-adv-x="1400" 
d="M883 0h-365l-528 1366h332l378 -1051l377 1051h332z" />
    <glyph glyph-name="W" unicode="W" horiz-adv-x="1880" 
d="M1489 0h-309l-240 938l-238 -938h-309l-391 1366h326l239 -987l260 987h228l258 -987l237 987h328z" />
    <glyph glyph-name="X" unicode="X" horiz-adv-x="1368" 
d="M1374 0h-348l-342 500l-344 -500h-346l495 700l-464 666h346l313 -467l309 467h350l-464 -664z" />
    <glyph glyph-name="Y" unicode="Y" horiz-adv-x="1320" 
d="M807 0h-291v559l-526 807h332l340 -549l335 549h332l-522 -807v-559z" />
    <glyph glyph-name="Z" unicode="Z" horiz-adv-x="1212" 
d="M1126 0h-1040v236l645 874h-645v256h1026v-233l-645 -877h659v-256z" />
    <glyph glyph-name="bracketleft" unicode="[" horiz-adv-x="573" 
d="M539 -389h-443v1778h443v-175h-256v-1429h256v-174z" />
    <glyph glyph-name="backslash" unicode="\" horiz-adv-x="673" 
d="M485 -41l-485 1448h188l486 -1448h-189z" />
    <glyph glyph-name="bracketright" unicode="]" horiz-adv-x="573" 
d="M477 -389h-442v174h256v1429h-256v175h442v-1778z" />
    <glyph glyph-name="asciicircum" unicode="^" horiz-adv-x="903" 
d="M864 682h-192l-221 506l-220 -506h-192l319 684h191z" />
    <glyph glyph-name="underscore" unicode="_" horiz-adv-x="1155" 
d="M1161 -256h-1167v174h1167v-174z" />
    <glyph glyph-name="grave" unicode="`" horiz-adv-x="514" 
d="M514 1139h-182l-332 295h238z" />
    <glyph glyph-name="a" unicode="a" horiz-adv-x="1112" 
d="M514 152q145 0 209 86v122q-63 86 -209 86q-80 0 -133 -40t-53 -108q0 -70 53 -108t133 -38zM983 0h-260v102q-106 -127 -313 -127q-133 0 -239 87q-105 87 -105 244t103 237t241 80q211 0 313 -121v133q0 76 -59 121t-158 45q-162 0 -289 -117l-98 174q176 156 432 156
q190 0 311 -88t121 -287v-639z" />
    <glyph glyph-name="b" unicode="b" horiz-adv-x="1200" 
d="M389 0h-260v1366h260v-504q117 152 307 152t314 -142q123 -142 123 -380q0 -240 -123 -378q-124 -138 -312 -138t-309 151v-127zM612 207q113 0 183 79t69 208q0 128 -70 208t-182 80q-62 0 -126 -32t-97 -82v-351q33 -47 96 -79t127 -31z" />
    <glyph glyph-name="c" unicode="c" horiz-adv-x="1021" 
d="M590 -25q-228 -1 -376 145t-148 374t147 374t393 146t375 -178l-170 -160q-72 106 -200 106q-129 0 -203 -79t-74 -207t75 -209q75 -80 201 -80t201 106l170 -157q-129 -181 -391 -181z" />
    <glyph glyph-name="d" unicode="d" horiz-adv-x="1200" 
d="M584 207q66 0 129 32t96 80v351q-33 49 -96 81t-129 31q-111 0 -181 -80q-69 -80 -69 -208t70 -207q70 -80 180 -80zM1071 0h-262v127q-121 -152 -309 -152q-188 1 -312 139q-122 138 -122 378t122 380t314 142q190 0 307 -152v504h262v-1366z" />
    <glyph glyph-name="e" unicode="e" horiz-adv-x="1132" 
d="M581 807q-114 0 -175 -67t-72 -152h487q-6 84 -66 152t-174 67zM608 -25q-244 -1 -393 143t-149 370t144 376t366 150t360 -151q137 -151 137 -394v-57h-735q12 -98 88 -164t197 -66q67 0 143 27t121 72l114 -168q-149 -138 -393 -138z" />
    <glyph glyph-name="f" unicode="f" horiz-adv-x="669" 
d="M449 0h-263v762h-163v227h163v53q0 158 92 251t254 93q160 0 246 -92l-98 -153q-40 41 -102 41t-96 -36t-33 -104v-53h200v-227h-200v-762z" />
    <glyph glyph-name="g" unicode="g" horiz-adv-x="1198" 
d="M584 238q62 0 126 32t97 80v320q-33 49 -95 81t-128 31q-113 0 -182 -74q-68 -74 -68 -198q0 -125 68 -199q69 -73 182 -73zM535 -401q-256 0 -426 147l116 188q111 -123 310 -122q111 0 191 58t81 191v101q-123 -156 -311 -156t-309 132t-121 371t121 372
q123 133 311 133t309 -152v127h262v-921q0 -360 -347 -448q-87 -21 -187 -21z" />
    <glyph glyph-name="h" unicode="h" horiz-adv-x="1187" 
d="M1059 0h-260v602q0 98 -47 139t-138 41q-137 0 -225 -116v-666h-260v1366h260v-506q53 62 145 108t203 46q160 0 241 -82t81 -230v-702z" />
    <glyph glyph-name="i" unicode="i" horiz-adv-x="518" 
d="M389 0h-260v989h260v-989zM260 1096q-64 0 -112 46q-46 46 -46 109t46 109t111 45q65 0 110 -45q45 -44 45 -108t-45 -110t-109 -46z" />
    <glyph glyph-name="j" unicode="j" horiz-adv-x="518" 
d="M37 -401q-90 0 -140 15t-108 54l72 195q61 -51 127 -51t104 41q37 41 37 120v1016h260v-1016q0 -174 -89 -274t-263 -100zM260 1096q-64 0 -112 46q-46 46 -46 109t46 109t111 45q65 0 110 -45q45 -44 45 -108t-45 -110t-109 -46z" />
    <glyph glyph-name="k" unicode="k" horiz-adv-x="1095" 
d="M389 0h-260v1366h260v-817l375 440h319l-391 -448l404 -541h-326l-262 381l-119 -127v-254z" />
    <glyph glyph-name="l" unicode="l" horiz-adv-x="518" 
d="M389 0h-260v1366h260v-1366z" />
    <glyph glyph-name="m" unicode="m" horiz-adv-x="1744" 
d="M1618 0h-262v625q0 158 -148 157q-63 0 -117 -34t-87 -80v-668h-263v625q0 158 -147 157q-60 0 -116 -34t-89 -82v-666h-260v989h260v-129q37 54 129 104t195 50q215 0 274 -180q47 74 140 127t216 53t199 -75t76 -224v-715z" />
    <glyph glyph-name="n" unicode="n" 
d="M1057 0h-260v598q0 184 -183 184q-141 0 -225 -116v-666h-260v989h260v-129q129 154 346 154q160 0 241 -84t81 -232v-698z" />
    <glyph glyph-name="o" unicode="o" horiz-adv-x="1175" 
d="M588 207q118 0 186 83t68 205q0 123 -69 205t-185 82t-185 -83q-67 -83 -67 -205t68 -204q68 -83 184 -83zM588 -25q-238 0 -380 151t-142 370q0 218 142 368t380 150t381 -150t143 -368t-143 -370q-143 -151 -381 -151z" />
    <glyph glyph-name="p" unicode="p" horiz-adv-x="1193" 
d="M612 207q113 0 182 80q68 80 68 208q0 127 -68 207t-182 80q-62 0 -126 -32t-97 -80v-351q33 -47 97 -79t126 -33zM1133 496q0 -242 -122 -382q-123 -140 -313 -139q-190 0 -309 152v-504h-260v1366h260v-125q117 150 309 150t313 -138q122 -138 122 -380z" />
    <glyph glyph-name="q" unicode="q" horiz-adv-x="1193" 
d="M496 -25q-190 -1 -313 139q-122 140 -122 382t122 380q121 138 313 138t309 -150v125h262v-1366h-262v504q-119 -152 -309 -152zM582 207q61 0 126 33t97 79v351q-33 47 -96 80t-127 32q-111 0 -181 -80q-69 -80 -69 -208t70 -207q70 -80 180 -80z" />
    <glyph glyph-name="r" unicode="r" horiz-adv-x="737" 
d="M389 0h-260v989h260v-135q55 70 141 115t175 45v-254q-27 6 -83 6t-128 -33q-74 -33 -105 -80v-653z" />
    <glyph glyph-name="s" unicode="s" horiz-adv-x="976" 
d="M485 -25q-129 0 -247 41t-195 113l113 182q57 -53 155 -94q97 -41 183 -41t128 29t42 72t-44 67t-109 33q-65 11 -141 31t-142 49q-64 29 -108 91t-44 154q0 131 108 222q110 90 318 90t379 -135l-105 -179q-47 49 -126 82t-158 33q-80 0 -122 -28q-42 -27 -42 -65
q0 -67 149 -91q149 -23 285 -83q66 -30 108 -96t43 -159q1 -139 -113 -229t-315 -89z" />
    <glyph glyph-name="t" unicode="t" horiz-adv-x="692" 
d="M465 -25q-141 0 -213 70t-72 201v516h-164v227h164v271h262v-271h201v-227h-201v-447q0 -47 25 -77t75 -31q50 0 81 29l55 -197q-72 -64 -213 -64z" />
    <glyph glyph-name="u" unicode="u" 
d="M1057 0h-260v125q-133 -150 -348 -150q-160 0 -240 82t-80 230v702h260v-600q0 -182 182 -182q137 0 226 112v670h260v-989z" />
    <glyph glyph-name="v" unicode="v" horiz-adv-x="1050" 
d="M666 0h-281l-397 989h278l258 -688l258 688h281z" />
    <glyph glyph-name="w" unicode="w" horiz-adv-x="1574" 
d="M1274 0h-277l-209 674l-208 -674h-279l-301 989h270l185 -665l217 665h231l217 -665l185 665h270z" />
    <glyph glyph-name="x" unicode="x" horiz-adv-x="1032" 
d="M1032 0h-291l-225 334l-227 -334h-289l350 508l-330 481h291l205 -305l203 305h291l-332 -481z" />
    <glyph glyph-name="y" unicode="y" horiz-adv-x="1050" 
d="M215 -170q104 0 137 72l37 84l-401 1003h278l258 -688l258 688h281l-465 -1151q-90 -232 -341 -237q-106 -2 -163 12l39 233q37 -16 82 -16z" />
    <glyph glyph-name="z" unicode="z" horiz-adv-x="980" 
d="M893 0h-807v195l446 567h-446v227h799v-188l-453 -574h461v-227z" />
    <glyph glyph-name="braceleft" unicode="{" horiz-adv-x="589" 
d="M555 -389h-125q-129 0 -223 90t-94 236v352q0 59 -28 98t-79 39v147q51 0 79 39t28 99v350q0 145 94 236t223 92h125v-175h-125q-53 0 -90 -42t-37 -109v-379q0 -143 -94 -184q94 -41 94 -185v-376q0 -68 37 -111t90 -43h125v-174z" />
    <glyph glyph-name="bar" unicode="|" horiz-adv-x="442" 
d="M309 -41h-174v1448h174v-1448z" />
    <glyph glyph-name="braceright" unicode="}" horiz-adv-x="589" 
d="M35 -389v174h125q53 0 91 43t38 111v376q0 143 94 185q-94 41 -94 184v379q0 67 -38 109t-91 42h-125v175h125q129 1 223 -91t94 -237v-350q0 -59 28 -99t79 -39v-147q-51 0 -79 -39t-28 -98v-352q0 -145 -94 -235t-223 -91h-125z" />
    <glyph glyph-name="asciitilde" unicode="~" horiz-adv-x="1044" 
d="M682 844q-86 0 -141 56t-73 124q-45 180 -110 180q-98 0 -127 -360l-178 20q28 358 165 458q58 42 136 42t128 -37t73 -90t39 -107q38 -129 92 -129q100 0 129 365l176 -20q-15 -204 -72 -340q-66 -162 -237 -162z" />
    <glyph glyph-name="nbspace" unicode="&#xa0;" horiz-adv-x="524" 
 />
    <glyph glyph-name="exclamdown" unicode="&#xa1;" horiz-adv-x="524" 
d="M96 847q0 67 48 116t116 49t117 -49t49 -116t-49 -117t-117 -50t-116 50t-48 117zM104 -377l41 920h232l43 -920h-316z" />
    <glyph glyph-name="cent" unicode="&#xa2;" horiz-adv-x="1021" 
d="M334 496q0 -96 43 -167t117 -102v535q-74 -30 -117 -100t-43 -166zM494 -205v189q-193 29 -311 169q-117 140 -117 342t117 342q118 140 311 169v151h188v-149q195 -31 299 -172l-170 -160q-51 74 -129 94v-553q76 23 129 96l170 -157q-104 -147 -299 -174v-187h-188z
" />
    <glyph glyph-name="sterling" unicode="&#xa3;" horiz-adv-x="1126" 
d="M546 299q60 0 138 -34t127 -34q121 0 176 76l115 -231q-98 -102 -301 -103q-96 0 -206 45t-165 45q-96 0 -237 -77l-99 198q223 109 223 256q0 51 -24 111h-246v166h139q-94 129 -94 246q0 186 152 305t346 118q346 0 475 -247l-231 -135q-27 66 -83 106t-137 39
q-80 0 -142 -53t-62 -138t43 -152q7 -11 31 -48t26 -41h295v-166h-232l2 -39q-1 -70 -37 -131t-94 -96q42 14 102 14z" />
    <glyph glyph-name="currency" unicode="&#xa4;" horiz-adv-x="1275" 
d="M638 410q122 0 192 78t69 193q0 115 -70 193q-69 78 -191 78t-192 -78t-70 -192t70 -194q70 -78 192 -78zM637 176q-160 0 -283 72l-149 -152l-156 152l150 149q-82 127 -82 285t82 285l-152 153l156 152l155 -156q123 70 277 70t280 -70l156 156l156 -154l-150 -149
q84 -129 84 -289t-86 -287l152 -145l-156 -152l-153 150q-121 -70 -281 -70z" />
    <glyph glyph-name="yen" unicode="&#xa5;" horiz-adv-x="1320" 
d="M807 0h-291v236h-467v159h467v164h-467v162h361l-420 645h332l340 -549l335 549h332l-418 -645h365v-162h-469v-164h469v-159h-469v-236z" />
    <glyph glyph-name="brokenbar" unicode="&#xa6;" horiz-adv-x="442" 
d="M309 760h-174v647h174v-647zM309 -41h-174v647h174v-647z" />
    <glyph glyph-name="section" unicode="&#xa7;" horiz-adv-x="991" 
d="M657 618q0 109 -170 148q-87 -20 -123 -57t-36 -99t55 -92t156 -51q118 51 118 151zM913 668q0 -176 -170 -262q170 -74 170 -252q-1 -150 -119 -235t-309 -85q-260 0 -438 162l109 164q59 -58 147 -102t176 -44t136 31q49 31 49 82q1 91 -150 121q-150 30 -286 87
q-64 28 -108 89t-44 154t59 159t141 94q-201 76 -200 259q0 127 113 212q114 85 292 84q254 0 398 -139l-103 -153q-111 111 -284 110q-76 0 -120 -30t-44 -78q0 -49 60 -75t146 -43t173 -43q86 -25 146 -93t60 -174z" />
    <glyph glyph-name="dieresis" unicode="&#xa8;" horiz-adv-x="604" 
d="M223 1251q0 -57 -40 -98t-97 -41t-98 40t-41 98t41 98t98 41q57 -1 97 -41t40 -97zM657 1251q0 -57 -41 -98t-98 -41t-98 41t-41 98t41 97t98 41q57 -1 98 -41t41 -97z" />
    <glyph glyph-name="copyright" unicode="&#xa9;" horiz-adv-x="1593" 
d="M811 252q-182 0 -306 124t-124 309t124 308t307 123t298 -135l-63 -63q-85 116 -231 116t-244 -98t-97 -249q0 -151 97 -252t243 -101t234 119l63 -62q-119 -139 -301 -139zM1430 685q0 261 -186 447t-447 185t-447 -187t-186 -446t186 -446t446 -186t448 186
q186 186 186 447zM1503 684q0 -293 -207 -500q-208 -207 -500 -207t-499 208t-207 500t207 499t500 207t499 -207t207 -500z" />
    <glyph glyph-name="ordfeminine" unicode="&#xaa;" horiz-adv-x="788" 
d="M367 768q88 0 131 59v74q-43 55 -131 55q-49 0 -83 -24t-34 -69q0 -43 34 -69t83 -26zM686 668h-188v65q-74 -82 -209 -82q-90 1 -158 57t-68 155t68 153t158 55q139 0 209 -78v82q0 51 -39 81t-103 30q-109 0 -188 -84l-72 123q121 102 293 102q129 0 213 -59t84 -197
v-403z" />
    <glyph glyph-name="guillemotleft" unicode="&#xab;" horiz-adv-x="1079" 
d="M629 129h-240l-328 369l328 362h240l-328 -362zM1018 129h-240l-327 369l327 362h240l-328 -362z" />
    <glyph glyph-name="logicalnot" unicode="&#xac;" horiz-adv-x="1054" 
d="M973 958v-546h-166v383h-748v163h914z" />
    <glyph glyph-name="uni00AD" unicode="&#xad;" horiz-adv-x="614" 
d="M553 385h-492v221h492v-221z" />
    <glyph glyph-name="registered" unicode="&#xae;" horiz-adv-x="1011" 
d="M543 963q35 1 63 25t27 62q0 38 -28 64t-62 25h-133v-176h133zM410 899v-197h-70v498h203q65 0 113 -42t48 -112t-46 -107q-46 -38 -80 -38l133 -199h-86l-129 197h-86zM874 953q0 153 -108 261t-262 107q-152 0 -260 -108q-108 -109 -107 -261q0 -152 108 -260
q109 -108 261 -108t260 108t108 261zM72 952q0 180 127 308t308 126q181 0 307 -126t126 -307t-127 -308t-307 -127t-307 127t-127 307z" />
    <glyph glyph-name="macron" unicode="&#xaf;" horiz-adv-x="743" 
d="M743 1151h-743v147h743v-147z" />
    <glyph glyph-name="degree" unicode="&#xb0;" horiz-adv-x="636" 
d="M453 1109q0 56 -40 96q-41 40 -97 40t-94 -40t-38 -96t38 -95t94 -39t97 39q40 39 40 95zM594 1108q0 -115 -81 -195q-81 -79 -196 -79t-195 80t-81 194q0 115 81 197q82 81 196 81t195 -82t81 -196z" />
    <glyph glyph-name="plusminus" unicode="&#xb1;" horiz-adv-x="1032" 
d="M973 0h-914v160h914v-160zM973 668h-367v-418h-178v418h-369v159h369v404h178v-404h367v-159z" />
    <glyph glyph-name="twosuperior" unicode="&#xb2;" horiz-adv-x="813" 
d="M537 1417q0 119 -143 119q-65 0 -126 -31t-94 -71l-102 125q121 135 329 135q145 0 237 -68t93 -176q0 -108 -83 -204t-269 -226h358v-158h-643v144q268 188 356 269q87 81 87 142z" />
    <glyph glyph-name="threesuperior" unicode="&#xb3;" horiz-adv-x="813" 
d="M743 1078q0 -96 -93 -164q-93 -67 -247 -66q-227 0 -337 129l96 129q94 -100 235 -100q72 0 111 26t39 70q0 100 -180 100q-80 0 -93 -2v156q18 -2 91 -2q168 0 167 92q0 90 -137 90t-227 -90l-92 117q121 131 327 131q154 0 240 -60t86 -164q0 -72 -53 -122t-129 -64
q72 -6 134 -58t62 -148z" />
    <glyph glyph-name="acute" unicode="&#xb4;" horiz-adv-x="514" 
d="M514 1434l-332 -295h-182l274 295h240z" />
    <glyph glyph-name="mu" unicode="&#xb5;" horiz-adv-x="1214" 
d="M389 -377h-260v1366h260v-600q0 -184 184 -184q133 0 224 114v670h260v-692q1 -43 23 -67t50 -24t48 5l18 -221q-53 -14 -121 -15q-213 0 -266 177q-45 -78 -118 -127t-166 -49t-136 57v-410z" />
    <glyph glyph-name="paragraph" unicode="&#xb6;" horiz-adv-x="919" 
d="M825 -205h-129v1444h-159v-1444h-129v867q-145 0 -249 103q-103 103 -103 249t102 248q104 104 250 104h417v-1571z" />
    <glyph glyph-name="periodcentered" unicode="&#xb7;" horiz-adv-x="524" 
d="M96 501q0 67 49 115t117 50q68 0 117 -49t49 -116t-49 -116t-117 -49t-117 49t-49 116z" />
    <glyph glyph-name="cedilla" unicode="&#xb8;" horiz-adv-x="452" 
d="M202 -401q-120 0 -202 65l51 105q78 -59 166 -60q45 -1 76 17t31 51q0 53 -60 53q-37 0 -65 -29l-95 54l62 168h129l-53 -127q34 20 82 20t88 -40t41 -112q0 -72 -66 -118q-65 -47 -185 -47z" />
    <glyph glyph-name="onesuperior" unicode="&#xb9;" horiz-adv-x="585" 
d="M463 862h-199v568l-139 -142l-111 119l279 274h170v-819z" />
    <glyph glyph-name="ordmasculine" unicode="&#xba;" horiz-adv-x="829" 
d="M414 803q74 0 116 50t43 135q0 85 -42 134q-43 49 -117 49t-116 -48t-42 -134t42 -136t116 -50zM768 990q0 -142 -97 -240t-256 -99q-159 1 -256 99t-98 239t97 239t257 99q159 0 256 -98q97 -97 97 -239z" />
    <glyph glyph-name="guillemotright" unicode="&#xbb;" horiz-adv-x="1079" 
d="M1018 498l-328 -369h-239l327 369l-327 362h239zM629 498l-328 -369h-240l328 369l-328 362h240z" />
    <glyph glyph-name="onequarter" unicode="&#xbc;" horiz-adv-x="1705" 
d="M1313 1366l-875 -1366h-155l872 1366h158zM1352 330v323l-207 -323h207zM1655 176h-109v-176h-194v176h-402v133l324 510h272v-489h109v-154zM463 547h-199v567l-139 -141l-111 119l279 274h170v-819z" />
    <glyph glyph-name="onehalf" unicode="&#xbd;" horiz-adv-x="1775" 
d="M1313 1366l-875 -1366h-155l872 1366h158zM1497 555q-1 119 -143 119q-64 0 -125 -31t-94 -72l-103 125q121 135 330 135q145 1 237 -67q93 -68 93 -176t-83 -204q-83 -95 -270 -226h359v-158h-643v143q268 187 355 269t87 143zM463 547h-199v567l-139 -141l-111 119
l279 274h170v-819z" />
    <glyph glyph-name="threequarters" unicode="&#xbe;" horiz-adv-x="1886" 
d="M743 762q0 -96 -93 -164q-93 -66 -247 -66q-227 0 -337 130l96 129q94 -100 235 -101q72 0 111 27t39 69q0 100 -180 101q-80 0 -93 -2v155q18 -2 91 -2q168 0 167 92q0 90 -137 90t-227 -90l-92 117q121 131 327 131q154 0 240 -60t86 -163q0 -72 -53 -123t-129 -63
q72 -7 134 -59t62 -148zM1491 1366l-875 -1366h-155l872 1366h158zM1532 330v323l-207 -323h207zM1835 176h-109v-176h-194v176h-402v133l324 510h272v-489h109v-154z" />
    <glyph glyph-name="questiondown" unicode="&#xbf;" horiz-adv-x="815" 
d="M471 1012q68 0 117 -49t49 -117t-49 -117t-117 -49t-117 49t-49 117t49 117t117 49zM637 401q0 -97 -47 -161q-48 -64 -104 -98q-150 -91 -150 -169q0 -49 41 -82t121 -32q147 0 252 125l165 -187q-172 -197 -450 -196q-195 0 -311 89t-115 234q0 100 54 178
q53 78 117 117q172 106 173 199q0 53 -39 86l223 63q70 -70 70 -166z" />
    <glyph glyph-name="Agrave" unicode="&#xc0;" horiz-adv-x="1400" 
d="M831 1481h-182l-332 295h238zM913 487l-213 588l-213 -588h426zM1409 0h-332l-84 231h-585l-86 -231h-332l528 1366h365z" />
    <glyph glyph-name="Aacute" unicode="&#xc1;" horiz-adv-x="1400" 
d="M1085 1776l-331 -295h-183l275 295h239zM913 487l-213 588l-213 -588h426zM1409 0h-332l-84 231h-585l-86 -231h-332l528 1366h365z" />
    <glyph glyph-name="Acircumflex" unicode="&#xc2;" horiz-adv-x="1400" 
d="M913 487l-213 588l-213 -588h426zM1409 0h-332l-84 231h-585l-86 -231h-332l528 1366h365zM1010 1481h-160l-150 182l-145 -182h-160l189 295h233z" />
    <glyph glyph-name="Atilde" unicode="&#xc3;" horiz-adv-x="1400" 
d="M817 1477q-59 1 -102 35t-75 69t-62 35q-74 0 -74 -127h-137q0 131 57 203t164 71q45 1 83 -21t57 -48q51 -68 97 -68q74 0 74 125h137q0 -131 -56 -203q-57 -71 -163 -71zM913 487l-213 588l-213 -588h426zM1409 0h-332l-84 231h-585l-86 -231h-332l528 1366h365z" />
    <glyph glyph-name="Adieresis" unicode="&#xc4;" horiz-adv-x="1400" 
d="M913 487l-213 588l-213 -588h426zM1409 0h-332l-84 231h-585l-86 -231h-332l528 1366h365zM623 1593q0 -57 -40 -98q-41 -41 -99 -41t-98 41t-40 98t41 97t98 41q57 0 98 -40q40 -41 40 -98zM1057 1593q0 -57 -41 -98t-98 -41t-99 41q-41 41 -41 98t41 97t99 41
q58 -1 98 -41q41 -40 41 -97z" />
    <glyph glyph-name="Aring" unicode="&#xc5;" horiz-adv-x="1400" 
d="M702 1528q39 0 67 28t28 69q0 40 -28 68q-28 27 -67 27q-40 0 -68 -28t-28 -68t28 -68t68 -28zM702 1409q-88 -1 -151 63t-64 152t63 153t152 65t151 -65q62 -65 62 -154t-62 -152q-63 -62 -151 -62zM913 487l-213 588l-213 -588h426zM1409 0h-332l-84 231h-585l-86 -231
h-332l528 1366h365z" />
    <glyph glyph-name="AE" unicode="&#xc6;" horiz-adv-x="1982" 
d="M930 487v588l-342 -588h342zM1896 0h-966v231h-481l-136 -231h-331l831 1366h1083v-256h-673v-289h659v-256h-659v-309h673v-256z" />
    <glyph glyph-name="Ccedilla" unicode="&#xc7;" horiz-adv-x="1406" 
d="M760 -393q-120 0 -201 65l51 105q78 -59 166 -60q45 -1 76 17t31 51q0 53 -60 53q-37 0 -65 -28l-94 53l43 119q-279 30 -458 222t-179 490t208 497q208 198 519 198q383 0 571 -334l-250 -123q-45 86 -132 142t-189 56q-186 0 -308 -126q-121 -127 -121 -322t122 -322
q120 -127 307 -127q102 -1 189 55t132 144l250 -121q-182 -317 -537 -334l-30 -73q35 20 83 20t88 -40t40 -112t-66 -118q-66 -47 -186 -47z" />
    <glyph glyph-name="Egrave" unicode="&#xc8;" horiz-adv-x="1193" 
d="M745 1481h-182l-332 295h238zM1102 0h-967v1366h967v-256h-676v-289h661v-256h-661v-309h676v-256z" />
    <glyph glyph-name="Eacute" unicode="&#xc9;" horiz-adv-x="1193" 
d="M1102 0h-967v1366h967v-256h-676v-289h661v-256h-661v-309h676v-256zM1001 1776l-331 -295h-183l275 295h239z" />
    <glyph glyph-name="Ecircumflex" unicode="&#xca;" horiz-adv-x="1193" 
d="M1102 0h-967v1366h967v-256h-676v-289h661v-256h-661v-309h676v-256zM926 1481h-160l-150 182l-145 -182h-160l189 295h233z" />
    <glyph glyph-name="Edieresis" unicode="&#xcb;" horiz-adv-x="1193" 
d="M1102 0h-967v1366h967v-256h-676v-289h661v-256h-661v-309h676v-256zM541 1593q0 -57 -40 -98q-41 -41 -99 -41t-98 41t-40 98t41 97t98 41q57 0 98 -40q40 -41 40 -98zM975 1593q0 -57 -41 -98t-98 -41t-99 41q-41 41 -41 98t41 97t99 41q58 -1 98 -41q41 -40 41 -97z
" />
    <glyph glyph-name="Igrave" unicode="&#xcc;" horiz-adv-x="561" 
d="M412 1481h-183l-331 295h237zM426 0h-291v1366h291v-1366z" />
    <glyph glyph-name="Iacute" unicode="&#xcd;" horiz-adv-x="561" 
d="M668 1776l-332 -295h-182l274 295h240zM426 0h-291v1366h291v-1366z" />
    <glyph glyph-name="Icircumflex" unicode="&#xce;" horiz-adv-x="561" 
d="M426 0h-291v1366h291v-1366zM588 1481h-160l-149 182l-146 -182h-160l189 295h233z" />
    <glyph glyph-name="Idieresis" unicode="&#xcf;" horiz-adv-x="561" 
d="M426 0h-291v1366h291v-1366zM203 1593q0 -57 -40 -98t-97 -41t-99 41q-41 41 -41 98t41 97t99 41q58 -1 97 -41q40 -40 40 -97zM637 1593q0 -57 -41 -98t-98 -41t-99 41q-41 41 -41 98t41 97t99 41q58 -1 98 -41q41 -40 41 -97z" />
    <glyph glyph-name="Eth" unicode="&#xd0;" horiz-adv-x="1519" 
d="M725 256q197 0 313 123t115 307q0 184 -113 304t-315 120h-248v-328h305v-215h-305v-311h248zM725 0h-539v567h-170v215h170v584h539q321 0 523 -188t202 -496t-200 -494q-200 -188 -525 -188z" />
    <glyph glyph-name="Ntilde" unicode="&#xd1;" horiz-adv-x="1492" 
d="M1358 0h-281l-651 891v-891h-291v1366h299l633 -858v858h291v-1366zM860 1477q-59 1 -102 35t-75 69t-62 35q-74 0 -74 -127h-137q0 131 57 203t164 71q45 1 83 -21t57 -48q51 -68 97 -68q74 0 74 125h137q0 -131 -56 -203q-57 -71 -163 -71z" />
    <glyph glyph-name="Ograve" unicode="&#xd2;" horiz-adv-x="1566" 
d="M782 233q186 0 301 127t115 322t-115 322q-115 126 -301 126t-300 -126t-114 -322q0 -195 114 -322t300 -127zM783 -25q-310 0 -512 200t-201 507q0 307 201 507q202 200 512 200t512 -199t202 -508t-202 -508t-512 -199zM915 1481h-182l-332 295h238z" />
    <glyph glyph-name="Oacute" unicode="&#xd3;" horiz-adv-x="1566" 
d="M782 233q186 0 301 127t115 322t-115 322q-115 126 -301 126t-300 -126t-114 -322q0 -195 114 -322t300 -127zM783 -25q-310 0 -512 200t-201 507q0 307 201 507q202 200 512 200t512 -199t202 -508t-202 -508t-512 -199zM1167 1776l-331 -295h-183l275 295h239z" />
    <glyph glyph-name="Ocircumflex" unicode="&#xd4;" horiz-adv-x="1566" 
d="M782 233q186 0 301 127t115 322t-115 322q-115 126 -301 126t-300 -126t-114 -322q0 -195 114 -322t300 -127zM783 -25q-310 0 -512 200t-201 507q0 307 201 507q202 200 512 200t512 -199t202 -508t-202 -508t-512 -199zM1096 1481h-160l-150 182l-145 -182h-160
l189 295h233z" />
    <glyph glyph-name="Otilde" unicode="&#xd5;" horiz-adv-x="1566" 
d="M899 1477q-59 1 -102 35t-75 69t-63 35q-74 0 -73 -127h-137q0 131 57 203t164 71q45 1 83 -21t57 -48q51 -69 97 -68q74 0 74 125h137q0 -131 -56 -203q-57 -71 -163 -71zM782 233q186 0 301 127t115 322t-115 322q-115 126 -301 126t-300 -126t-114 -322
q0 -195 114 -322t300 -127zM783 -25q-310 0 -512 200t-201 507q0 307 201 507q202 200 512 200t512 -199t202 -508t-202 -508t-512 -199z" />
    <glyph glyph-name="Odieresis" unicode="&#xd6;" horiz-adv-x="1566" 
d="M782 233q186 0 301 127t115 322t-115 322q-115 126 -301 126t-300 -126t-114 -322q0 -195 114 -322t300 -127zM783 -25q-310 0 -512 200t-201 507q0 307 201 507q202 200 512 200t512 -199t202 -508t-202 -508t-512 -199zM707 1593q0 -57 -40 -98q-39 -41 -97 -41t-99 41
t-41 98t41 97t98 41q57 0 98 -40q40 -41 40 -98zM1141 1593q0 -57 -41 -98q-40 -41 -98 -41t-99 41t-41 98t41 97t98 41q57 0 99 -40q41 -41 41 -98z" />
    <glyph glyph-name="multiply" unicode="&#xd7;" horiz-adv-x="1032" 
d="M805 281l-289 288l-287 -288l-116 112l288 291l-288 289l116 114l287 -290l289 290l115 -114l-289 -289l289 -291z" />
    <glyph glyph-name="Oslash" unicode="&#xd8;" horiz-adv-x="1566" 
d="M369 698q0 -178 80 -297l522 686q-90 43 -189 43q-186 0 -300 -126q-113 -128 -113 -306zM782 233q186 0 301 127q115 126 115 314t-98 309l-531 -694q94 -56 213 -56zM782 -25q-211 0 -376 97l-56 -72h-209l131 172q-202 199 -202 508t201 509q202 200 511 200
q193 0 355 -84l47 61h209l-119 -156q223 -203 223 -520t-202 -516t-513 -199z" />
    <glyph glyph-name="Ugrave" unicode="&#xd9;" horiz-adv-x="1501" 
d="M883 1481h-183l-331 295h237zM752 -25q-303 0 -460 155t-157 415v821h295v-811q0 -147 84 -234t238 -87t236 86q82 88 83 235v811h297v-819q0 -264 -156 -418t-460 -154z" />
    <glyph glyph-name="Uacute" unicode="&#xda;" horiz-adv-x="1501" 
d="M752 -25q-303 0 -460 155t-157 415v821h295v-811q0 -147 84 -234t238 -87t236 86q82 88 83 235v811h297v-819q0 -264 -156 -418t-460 -154zM1137 1776l-332 -295h-182l274 295h240z" />
    <glyph glyph-name="Ucircumflex" unicode="&#xdb;" horiz-adv-x="1501" 
d="M752 -25q-303 0 -460 155t-157 415v821h295v-811q0 -147 84 -234t238 -87t236 86q82 88 83 235v811h297v-819q0 -264 -156 -418t-460 -154zM1067 1481h-160l-149 182l-146 -182h-159l188 295h233z" />
    <glyph glyph-name="Udieresis" unicode="&#xdc;" horiz-adv-x="1501" 
d="M752 -25q-303 0 -460 155t-157 415v821h295v-811q0 -147 84 -234t238 -87t236 86q82 88 83 235v811h297v-819q0 -264 -156 -418t-460 -154zM678 1593q0 -57 -40 -98t-97 -41t-99 41q-41 41 -41 98t41 97q40 40 98 41q58 -1 98 -41t40 -97zM1112 1593q0 -57 -41 -98
t-98 -41t-99 41q-41 41 -40 98q0 57 40 98q40 40 98 40q58 -1 99 -41t41 -97z" />
    <glyph glyph-name="Yacute" unicode="&#xdd;" horiz-adv-x="1320" 
d="M1044 1776l-331 -295h-183l275 295h239zM807 0h-291v559l-526 807h332l340 -549l335 549h332l-522 -807v-559z" />
    <glyph glyph-name="Thorn" unicode="&#xde;" horiz-adv-x="1277" 
d="M731 522q90 0 148 49q57 49 57 133t-58 135q-58 50 -147 50h-305v-367h305zM426 0h-291v1366h291v-221h348q215 0 337 -127q122 -126 122 -314t-123 -313t-336 -125h-348v-266z" />
    <glyph glyph-name="germandbls" unicode="&#xdf;" horiz-adv-x="1316" 
d="M1284 281q0 -125 -113 -215t-299 -91q-135 0 -227 40t-176 116l111 180q44 -55 124 -94t163 -39t125 31t42 75t-55 70t-134 42q-79 17 -157 45t-133 94t-55 175t89 184q38 32 75 58q88 61 88 104q0 44 -47 72t-123 27q-76 0 -134 -49t-59 -133v-973h-260v973
q0 176 127 295t342 118q170 0 296 -82t126 -214q0 -78 -42 -138t-93 -91q-51 -29 -93 -69t-42 -79t55 -59t133 -36t157 -44t134 -98t55 -195z" />
    <glyph glyph-name="agrave" unicode="&#xe0;" horiz-adv-x="1112" 
d="M680 1139h-182l-332 295h237zM514 152q145 0 209 86v122q-63 86 -209 86q-80 0 -133 -40t-53 -108q0 -70 53 -108t133 -38zM983 0h-260v102q-106 -127 -313 -127q-133 0 -239 87q-105 87 -105 244t103 237t241 80q211 0 313 -121v133q0 76 -59 121t-158 45
q-162 0 -289 -117l-98 174q176 156 432 156q190 0 311 -88t121 -287v-639z" />
    <glyph glyph-name="aacute" unicode="&#xe1;" horiz-adv-x="1112" 
d="M934 1434l-332 -295h-182l274 295h240zM514 152q145 0 209 86v122q-63 86 -209 86q-80 0 -133 -40t-53 -108q0 -70 53 -108t133 -38zM983 0h-260v102q-106 -127 -313 -127q-133 0 -239 87q-105 87 -105 244t103 237t241 80q211 0 313 -121v133q0 76 -59 121t-158 45
q-162 0 -289 -117l-98 174q176 156 432 156q190 0 311 -88t121 -287v-639z" />
    <glyph glyph-name="acircumflex" unicode="&#xe2;" horiz-adv-x="1112" 
d="M862 1139h-160l-149 182l-145 -182h-160l188 295h234zM514 152q145 0 209 86v122q-63 86 -209 86q-80 0 -133 -40t-53 -108q0 -70 53 -108t133 -38zM983 0h-260v102q-106 -127 -313 -127q-133 0 -239 87q-105 87 -105 244t103 237t241 80q211 0 313 -121v133
q0 76 -59 121t-158 45q-162 0 -289 -117l-98 174q176 156 432 156q190 0 311 -88t121 -287v-639z" />
    <glyph glyph-name="atilde" unicode="&#xe3;" horiz-adv-x="1112" 
d="M668 1135q-58 1 -102 35t-76 69t-62 35q-74 0 -74 -127h-137q0 131 57 203t164 71q56 0 100 -35q44 -34 76 -68t62 -34q74 0 74 125h137q-1 -131 -57 -203t-162 -71zM514 152q145 0 209 86v122q-63 86 -209 86q-80 0 -133 -40t-53 -108q0 -70 53 -108t133 -38zM983 0
h-260v102q-106 -127 -313 -127q-133 0 -239 87q-105 87 -105 244t103 237t241 80q211 0 313 -121v133q0 76 -59 121t-158 45q-162 0 -289 -117l-98 174q176 156 432 156q190 0 311 -88t121 -287v-639z" />
    <glyph glyph-name="adieresis" unicode="&#xe4;" horiz-adv-x="1112" 
d="M473 1251q0 -57 -40 -98t-97 -41t-98 40t-41 98t41 98t98 41q57 -1 97 -41t40 -97zM907 1251q0 -57 -41 -98t-98 -41t-98 41t-41 98t41 97t98 41q57 -1 98 -41t41 -97zM514 152q145 0 209 86v122q-63 86 -209 86q-80 0 -133 -40t-53 -108q0 -70 53 -108t133 -38zM983 0
h-260v102q-106 -127 -313 -127q-133 0 -239 87q-105 87 -105 244t103 237t241 80q211 0 313 -121v133q0 76 -59 121t-158 45q-162 0 -289 -117l-98 174q176 156 432 156q190 0 311 -88t121 -287v-639z" />
    <glyph glyph-name="aring" unicode="&#xe5;" horiz-adv-x="1112" 
d="M555 1206q39 0 67 29t28 69t-28 68t-67 27q-39 0 -68 -29q-29 -30 -29 -68t30 -67q28 -29 67 -29zM555 1087q-87 -1 -151 63t-64 152t63 154q63 64 151 64t152 -65q62 -65 62 -153t-62 -152q-62 -63 -151 -63zM514 152q145 0 209 86v122q-63 86 -209 86q-80 0 -133 -40
t-53 -108q0 -70 53 -108t133 -38zM983 0h-260v102q-106 -127 -313 -127q-133 0 -239 87q-105 87 -105 244t103 237t241 80q211 0 313 -121v133q0 76 -59 121t-158 45q-162 0 -289 -117l-98 174q176 156 432 156q190 0 311 -88t121 -287v-639z" />
    <glyph glyph-name="ae" unicode="&#xe6;" horiz-adv-x="1781" 
d="M762 346v12q-78 88 -232 88q-88 0 -145 -34t-57 -98t56 -99t145 -35t161 52t72 114zM1248 807q-106 -1 -162 -67q-58 -66 -66 -152h450q-4 84 -60 152t-162 67zM1722 412h-698q14 -96 84 -160t182 -64q152 0 244 97l117 -172q-72 -66 -176 -102t-203 -36q-256 0 -381 181
q-63 -80 -173 -130t-262 -50t-272 82q-118 83 -118 240t102 241t256 84q223 0 338 -119v133q0 74 -65 119t-171 45q-170 0 -309 -117l-98 174q176 156 437 156t347 -170q129 170 347 170t344 -151q128 -151 128 -394v-57z" />
    <glyph glyph-name="ccedilla" unicode="&#xe7;" horiz-adv-x="1021" 
d="M823 -232q1 -72 -65 -118q-66 -47 -186 -47t-201 65l51 105q78 -59 166 -60q45 -1 76 17t30 51q0 53 -59 53q-37 0 -66 -29l-94 54l43 121q-203 24 -328 164q-124 140 -124 360t147 364q147 146 393 146t375 -178l-170 -160q-72 106 -200 106q-129 0 -203 -79t-74 -207
t75 -209q75 -80 201 -80t201 106l170 -157q-113 -160 -336 -179l-33 -77q35 20 83 20t88 -40t40 -112z" />
    <glyph glyph-name="egrave" unicode="&#xe8;" horiz-adv-x="1132" 
d="M709 1139h-183l-331 295h237zM581 807q-114 0 -175 -67t-72 -152h487q-6 84 -66 152t-174 67zM608 -25q-244 -1 -393 143t-149 370t144 376t366 150t360 -151q137 -151 137 -394v-57h-735q12 -98 88 -164t197 -66q67 0 143 27t121 72l114 -168q-149 -138 -393 -138z" />
    <glyph glyph-name="eacute" unicode="&#xe9;" horiz-adv-x="1132" 
d="M581 807q-114 0 -175 -67t-72 -152h487q-6 84 -66 152t-174 67zM608 -25q-244 -1 -393 143t-149 370t144 376t366 150t360 -151q137 -151 137 -394v-57h-735q12 -98 88 -164t197 -66q67 0 143 27t121 72l114 -168q-149 -138 -393 -138zM963 1434l-332 -295h-182l274 295
h240z" />
    <glyph glyph-name="ecircumflex" unicode="&#xea;" horiz-adv-x="1132" 
d="M581 807q-114 0 -175 -67t-72 -152h487q-6 84 -66 152t-174 67zM608 -25q-244 -1 -393 143t-149 370t144 376t366 150t360 -151q137 -151 137 -394v-57h-735q12 -98 88 -164t197 -66q67 0 143 27t121 72l114 -168q-149 -138 -393 -138zM887 1139h-160l-149 182l-146 -182
h-160l189 295h233z" />
    <glyph glyph-name="edieresis" unicode="&#xeb;" horiz-adv-x="1132" 
d="M581 807q-114 0 -175 -67t-72 -152h487q-6 84 -66 152t-174 67zM608 -25q-244 -1 -393 143t-149 370t144 376t366 150t360 -151q137 -151 137 -394v-57h-735q12 -98 88 -164t197 -66q67 0 143 27t121 72l114 -168q-149 -138 -393 -138zM502 1251q0 -57 -40 -98t-97 -41
t-99 40q-41 40 -41 98t41 98q40 40 98 41q58 -1 98 -41t40 -97zM936 1251q0 -57 -41 -98t-98 -41t-99 41q-41 41 -41 98t41 97q40 40 98 41q58 -1 99 -41t41 -97z" />
    <glyph glyph-name="igrave" unicode="&#xec;" horiz-adv-x="518" 
d="M389 1139h-182l-332 295h238zM389 0h-260v989h260v-989z" />
    <glyph glyph-name="iacute" unicode="&#xed;" horiz-adv-x="518" 
d="M389 0h-260v989h260v-989zM643 1434l-332 -295h-182l274 295h240z" />
    <glyph glyph-name="icircumflex" unicode="&#xee;" horiz-adv-x="518" 
d="M389 0h-260v989h260v-989zM565 1139h-159l-150 182l-145 -182h-160l188 295h234z" />
    <glyph glyph-name="idieresis" unicode="&#xef;" horiz-adv-x="518" 
d="M389 0h-260v989h260v-989zM180 1251q0 -57 -40 -98t-98 -41t-98 40t-40 98t41 98t98 41q57 -1 97 -41t40 -97zM614 1251q0 -57 -41 -98t-98 -41t-98 41t-41 98t41 97t98 41q57 -1 98 -41t41 -97z" />
    <glyph glyph-name="eth" unicode="&#xf0;" horiz-adv-x="1175" 
d="M588 207q118 0 186 73t68 179t-69 179t-185 73t-185 -73q-67 -73 -67 -179t68 -179t184 -73zM1112 516q0 -244 -141 -392t-379 -148t-382 134q-144 136 -144 348t125 348q126 136 323 136t317 -190q-74 166 -321 340l-299 -131l-51 122l219 97q-16 10 -125 75l141 211
q162 -98 252 -170l211 93l51 -119l-149 -66q352 -313 352 -688z" />
    <glyph glyph-name="ntilde" unicode="&#xf1;" 
d="M711 1135q-59 1 -103 35t-74 69q-32 35 -63 35q-74 0 -74 -127h-137q0 131 57 203t164 71q57 0 101 -35q44 -34 74 -68q32 -34 63 -34q74 0 74 125h137q0 -131 -56 -203t-163 -71zM1057 0h-260v598q0 184 -183 184q-141 0 -225 -116v-666h-260v989h260v-129
q129 154 346 154q160 0 241 -84t81 -232v-698z" />
    <glyph glyph-name="ograve" unicode="&#xf2;" horiz-adv-x="1175" 
d="M719 1139h-182l-332 295h237zM588 207q118 0 186 83t68 205q0 123 -69 205t-185 82t-185 -83q-67 -83 -67 -205t68 -204q68 -83 184 -83zM588 -25q-238 0 -380 151t-142 370q0 218 142 368t380 150t381 -150t143 -368t-143 -370q-143 -151 -381 -151z" />
    <glyph glyph-name="oacute" unicode="&#xf3;" horiz-adv-x="1175" 
d="M588 207q118 0 186 83t68 205q0 123 -69 205t-185 82t-185 -83q-67 -83 -67 -205t68 -204q68 -83 184 -83zM588 -25q-238 0 -380 151t-142 370q0 218 142 368t380 150t381 -150t143 -368t-143 -370q-143 -151 -381 -151zM973 1434l-332 -295h-182l274 295h240z" />
    <glyph glyph-name="ocircumflex" unicode="&#xf4;" horiz-adv-x="1175" 
d="M588 207q118 0 186 83t68 205q0 123 -69 205t-185 82t-185 -83q-67 -83 -67 -205t68 -204q68 -83 184 -83zM588 -25q-238 0 -380 151t-142 370q0 218 142 368t380 150t381 -150t143 -368t-143 -370q-143 -151 -381 -151zM895 1139h-160l-149 182l-146 -182h-159l188 295
h233z" />
    <glyph glyph-name="otilde" unicode="&#xf5;" horiz-adv-x="1175" 
d="M705 1135q-59 1 -103 35t-75 69q-32 35 -62 35q-74 0 -74 -127h-137q0 131 57 203t164 71q57 0 100 -35q43 -34 75 -68t63 -34q74 0 73 125h138q0 -131 -56 -203t-163 -71zM588 207q118 0 186 83t68 205q0 123 -69 205t-185 82t-185 -83q-67 -83 -67 -205t68 -204
q68 -83 184 -83zM588 -25q-238 0 -380 151t-142 370q0 218 142 368t380 150t381 -150t143 -368t-143 -370q-143 -151 -381 -151z" />
    <glyph glyph-name="odieresis" unicode="&#xf6;" horiz-adv-x="1175" 
d="M588 207q118 0 186 83t68 205q0 123 -69 205t-185 82t-185 -83q-67 -83 -67 -205t68 -204q68 -83 184 -83zM588 -25q-238 0 -380 151t-142 370q0 218 142 368t380 150t381 -150t143 -368t-143 -370q-143 -151 -381 -151zM510 1251q0 -57 -40 -98t-97 -41t-99 40
q-41 40 -41 98t41 98q40 40 98 41q58 -1 98 -41t40 -97zM944 1251q0 -57 -41 -98t-98 -41t-98 41t-41 98t41 97t98 41q57 -1 98 -41t41 -97z" />
    <glyph glyph-name="divide" unicode="&#xf7;" horiz-adv-x="1046" 
d="M647 322q0 -50 -37 -88t-88 -38t-88 38q-37 36 -37 88t37 88t88 36t88 -36t37 -88zM987 610h-928v162h928v-162zM647 1056q0 -52 -37 -89t-88 -37t-88 37t-37 89t37 88t88 36t88 -36t37 -88z" />
    <glyph glyph-name="oslash" unicode="&#xf8;" horiz-adv-x="1175" 
d="M336 514q0 -104 35 -174l346 408q-57 35 -129 34q-116 0 -184 -82t-68 -186zM588 207q118 0 186 83q68 84 68 190t-41 177l-350 -411q53 -39 137 -39zM66 498q0 216 142 366t380 150q166 0 289 -78l45 53h163l-112 -131q139 -145 139 -363t-143 -369t-381 -151
q-174 0 -297 82l-49 -57h-160l117 137q-133 145 -133 361z" />
    <glyph glyph-name="ugrave" unicode="&#xf9;" 
d="M723 1139h-182l-332 295h237zM1057 0h-260v125q-133 -150 -348 -150q-160 0 -240 82t-80 230v702h260v-600q0 -182 182 -182q137 0 226 112v670h260v-989z" />
    <glyph glyph-name="uacute" unicode="&#xfa;" 
d="M1057 0h-260v125q-133 -150 -348 -150q-160 0 -240 82t-80 230v702h260v-600q0 -182 182 -182q137 0 226 112v670h260v-989zM975 1434l-332 -295h-182l274 295h240z" />
    <glyph glyph-name="ucircumflex" unicode="&#xfb;" 
d="M1057 0h-260v125q-133 -150 -348 -150q-160 0 -240 82t-80 230v702h260v-600q0 -182 182 -182q137 0 226 112v670h260v-989zM901 1139h-160l-149 182l-146 -182h-159l188 295h234z" />
    <glyph glyph-name="udieresis" unicode="&#xfc;" 
d="M1057 0h-260v125q-133 -150 -348 -150q-160 0 -240 82t-80 230v702h260v-600q0 -182 182 -182q137 0 226 112v670h260v-989zM514 1251q0 -57 -40 -98t-97 -41t-98 40t-41 98t41 98t98 41q57 -1 97 -41t40 -97zM948 1251q0 -57 -41 -98t-98 -41t-98 41t-41 98t41 97t98 41
q57 -1 98 -41t41 -97z" />
    <glyph glyph-name="yacute" unicode="&#xfd;" horiz-adv-x="1050" 
d="M907 1434l-332 -295h-182l275 295h239zM215 -170q104 0 137 72l37 84l-401 1003h278l258 -688l258 688h281l-465 -1151q-90 -232 -341 -237q-106 -2 -163 12l39 233q37 -16 82 -16z" />
    <glyph glyph-name="thorn" unicode="&#xfe;" horiz-adv-x="1193" 
d="M612 207q113 0 182 80q68 80 68 208q0 127 -68 207t-182 80q-62 0 -126 -32t-97 -80v-351q33 -47 97 -79t126 -33zM1133 496q0 -242 -122 -382q-123 -140 -313 -139q-190 0 -309 152v-504h-260v1743h260v-502q117 150 309 150t313 -138q122 -138 122 -380z" />
    <glyph glyph-name="ydieresis" unicode="&#xff;" horiz-adv-x="1050" 
d="M446 1251q0 -57 -40 -98t-98 -41t-98 40t-40 98t41 98t98 41q57 0 98 -40q39 -41 39 -98zM881 1251q0 -57 -41 -98q-40 -41 -98 -41t-99 41t-41 98t41 97t98 41q57 0 99 -40q41 -41 41 -98zM215 -170q104 0 137 72l37 84l-401 1003h278l258 -688l258 688h281l-465 -1151
q-90 -232 -341 -237q-106 -2 -163 12l39 233q37 -16 82 -16z" />
    <glyph glyph-name="Amacron" unicode="&#x100;" horiz-adv-x="1400" 
d="M1071 1493h-743v147h743v-147zM913 487l-213 588l-213 -588h426zM1409 0h-332l-84 231h-585l-86 -231h-332l528 1366h365z" />
    <glyph glyph-name="amacron" unicode="&#x101;" horiz-adv-x="1112" 
d="M924 1151h-744v147h744v-147zM514 152q145 0 209 86v122q-63 86 -209 86q-80 0 -133 -40t-53 -108q0 -70 53 -108t133 -38zM983 0h-260v102q-106 -127 -313 -127q-133 0 -239 87q-105 87 -105 244t103 237t241 80q211 0 313 -121v133q0 76 -59 121t-158 45
q-162 0 -289 -117l-98 174q176 156 432 156q190 0 311 -88t121 -287v-639z" />
    <glyph glyph-name="Abreve" unicode="&#x102;" horiz-adv-x="1400" 
d="M702 1430q-224 0 -362 180l115 96q89 -127 243 -127t246 127l115 -96q-133 -180 -357 -180zM913 487l-213 588l-213 -588h426zM1409 0h-332l-84 231h-585l-86 -231h-332l528 1366h365z" />
    <glyph glyph-name="abreve" unicode="&#x103;" horiz-adv-x="1112" 
d="M551 1237q154 0 246 127l114 -96q-133 -180 -357 -180t-361 180l114 96q90 -127 244 -127zM514 152q145 0 209 86v122q-63 86 -209 86q-80 0 -133 -40t-53 -108q0 -70 53 -108t133 -38zM983 0h-260v102q-106 -127 -313 -127q-133 0 -239 87q-105 87 -105 244t103 237
t241 80q211 0 313 -121v133q0 76 -59 121t-158 45q-162 0 -289 -117l-98 174q176 156 432 156q190 0 311 -88t121 -287v-639z" />
    <glyph glyph-name="Aogonek" unicode="&#x104;" horiz-adv-x="1400" 
d="M913 487l-213 588l-213 -588h426zM1341 -381q-88 0 -146 46q-58 45 -58 149t92 186h-152l-84 231h-585l-86 -231h-332l528 1366h365l526 -1366q-143 -72 -143 -184q0 -45 22 -67t53 -21q64 -1 89 71l104 -65q-63 -115 -193 -115z" />
    <glyph glyph-name="aogonek" unicode="&#x105;" horiz-adv-x="1112" 
d="M514 152q145 0 209 86v122q-63 86 -209 86q-80 0 -133 -40t-53 -108q0 -70 53 -108t133 -38zM915 -381q-88 0 -146 46q-58 45 -58 149t92 186h-80v102q-106 -127 -313 -127q-133 0 -239 87q-105 87 -105 244t103 237t241 80q211 0 313 -121v133q0 76 -59 121t-158 45
q-162 0 -289 -117l-98 174q176 156 432 156q190 0 311 -88t121 -287v-639q-143 -72 -143 -184q0 -45 22 -67t53 -21q64 -1 89 71l104 -65q-63 -115 -193 -115z" />
    <glyph glyph-name="Cacute" unicode="&#x106;" horiz-adv-x="1406" 
d="M797 -25q-311 0 -519 198t-208 509t208 509t519 198q383 0 571 -334l-250 -123q-45 86 -132 142t-189 56q-186 0 -308 -126q-121 -127 -121 -322t122 -322q120 -127 307 -127q102 -1 189 55t132 144l250 -121q-194 -336 -571 -336zM1180 1776l-332 -295h-182l274 295h240
z" />
    <glyph glyph-name="cacute" unicode="&#x107;" horiz-adv-x="1021" 
d="M590 -25q-228 -1 -376 145t-148 374t147 374t393 146t375 -178l-170 -160q-72 106 -200 106q-129 0 -203 -79t-74 -207t75 -209q75 -80 201 -80t201 106l170 -157q-129 -181 -391 -181zM973 1434l-332 -295h-182l274 295h240z" />
    <glyph glyph-name="Ccircumflex" unicode="&#x108;" horiz-adv-x="1406" 
d="M797 -25q-311 0 -519 198t-208 509t208 509t519 198q383 0 571 -334l-250 -123q-45 86 -132 142t-189 56q-186 0 -308 -126q-121 -127 -121 -322t122 -322q120 -127 307 -127q102 -1 189 55t132 144l250 -121q-194 -336 -571 -336zM1102 1481h-160l-149 182l-146 -182
h-160l189 295h233z" />
    <glyph glyph-name="ccircumflex" unicode="&#x109;" horiz-adv-x="1021" 
d="M590 -25q-228 -1 -376 145t-148 374t147 374t393 146t375 -178l-170 -160q-72 106 -200 106q-129 0 -203 -79t-74 -207t75 -209q75 -80 201 -80t201 106l170 -157q-129 -181 -391 -181zM905 1139h-160l-149 182l-145 -182h-160l188 295h234z" />
    <glyph glyph-name="Cdotaccent" unicode="&#x10a;" horiz-adv-x="1406" 
d="M802 1454q-56 0 -97 41t-41 98t41 99t97 41q56 0 97 -41q41 -40 41 -98t-41 -99t-97 -41zM797 -25q-311 0 -519 198t-208 509t208 509t519 198q383 0 571 -334l-250 -123q-45 86 -132 142t-189 56q-186 0 -308 -126q-121 -127 -121 -322t122 -322q120 -127 307 -127
q102 -1 189 55t132 144l250 -121q-194 -336 -571 -336z" />
    <glyph glyph-name="cdotaccent" unicode="&#x10b;" horiz-adv-x="1021" 
d="M590 1112q-57 0 -97 40t-40 98t41 100t97 41q56 0 97 -41q41 -40 41 -98t-41 -99t-98 -41zM590 -25q-228 -1 -376 145t-148 374t147 374t393 146t375 -178l-170 -160q-72 106 -200 106q-129 0 -203 -79t-74 -207t75 -209q75 -80 201 -80t201 106l170 -157
q-129 -181 -391 -181z" />
    <glyph glyph-name="Ccaron" unicode="&#x10c;" horiz-adv-x="1406" 
d="M797 -25q-311 0 -519 198t-208 509t208 509t519 198q383 0 571 -334l-250 -123q-45 86 -132 142t-189 56q-186 0 -308 -126q-121 -127 -121 -322t122 -322q120 -127 307 -127q102 -1 189 55t132 144l250 -121q-194 -336 -571 -336zM915 1481h-233l-195 295h160l152 -185
l143 185h160z" />
    <glyph glyph-name="ccaron" unicode="&#x10d;" horiz-adv-x="1021" 
d="M590 -25q-228 -1 -376 145t-148 374t147 374t393 146t375 -178l-170 -160q-72 106 -200 106q-129 0 -203 -79t-74 -207t75 -209q75 -80 201 -80t201 106l170 -157q-129 -181 -391 -181zM719 1139h-234l-194 295h160l151 -185l143 185h160z" />
    <glyph glyph-name="Dcaron" unicode="&#x10e;" horiz-adv-x="1470" 
d="M674 256q196 0 312 123t116 307t-113 304t-315 120h-248v-854h248zM674 0h-539v1366h539q322 0 524 -188t201 -496t-201 -494q-200 -188 -524 -188zM862 1481h-233l-195 295h160l151 -185l144 185h160z" />
    <glyph glyph-name="dcaron" unicode="&#x10f;" horiz-adv-x="1413" 
d="M584 207q66 0 129 32t96 80v351q-33 49 -96 81t-129 31q-111 0 -181 -80q-69 -80 -69 -208t70 -207q70 -80 180 -80zM1071 0h-262v127q-121 -152 -309 -152q-188 1 -312 139q-122 138 -122 378t122 380t314 142q190 0 307 -152v504h262v-1366zM1425 1225
q0 -186 -170 -307l-90 71q43 25 82 72t47 90q-8 -4 -42 -4t-66 32q-31 32 -31 84t37 90t92 38t98 -45t43 -121z" />
    <glyph glyph-name="Dcroat" unicode="&#x110;" horiz-adv-x="1519" 
d="M725 256q197 0 313 123t115 307q0 184 -113 304t-315 120h-248v-328h305v-215h-305v-311h248zM725 0h-539v567h-170v215h170v584h539q321 0 523 -188t202 -496t-200 -494q-200 -188 -525 -188z" />
    <glyph glyph-name="dcroat" unicode="&#x111;" horiz-adv-x="1208" 
d="M584 207q66 0 129 32t96 80v351q-33 49 -96 81t-129 31q-111 0 -181 -80q-69 -80 -69 -208t70 -207q70 -80 180 -80zM1071 0h-262v127q-121 -152 -309 -152q-188 1 -312 139q-122 138 -122 378t122 380t314 142q190 0 307 -152v219h-297v148h297v137h262v-137h119v-148
h-119v-1081z" />
    <glyph glyph-name="Emacron" unicode="&#x112;" horiz-adv-x="1193" 
d="M987 1493h-743v147h743v-147zM1102 0h-967v1366h967v-256h-676v-289h661v-256h-661v-309h676v-256z" />
    <glyph glyph-name="emacron" unicode="&#x113;" horiz-adv-x="1132" 
d="M948 1151h-743v147h743v-147zM581 807q-114 0 -175 -67t-72 -152h487q-6 84 -66 152t-174 67zM608 -25q-244 -1 -393 143t-149 370t144 376t366 150t360 -151q137 -151 137 -394v-57h-735q12 -98 88 -164t197 -66q67 0 143 27t121 72l114 -168q-149 -138 -393 -138z" />
    <glyph glyph-name="Ebreve" unicode="&#x114;" horiz-adv-x="1193" 
d="M620 1430q-224 0 -362 180l115 96q89 -127 243 -127t246 127l115 -96q-133 -180 -357 -180zM1102 0h-967v1366h967v-256h-676v-289h661v-256h-661v-309h676v-256z" />
    <glyph glyph-name="ebreve" unicode="&#x115;" horiz-adv-x="1132" 
d="M580 1237q154 0 245 127l115 -96q-133 -180 -357 -180t-362 180l115 96q90 -127 244 -127zM581 807q-114 0 -175 -67t-72 -152h487q-6 84 -66 152t-174 67zM608 -25q-244 -1 -393 143t-149 370t144 376t366 150t360 -151q137 -151 137 -394v-57h-735q12 -98 88 -164
t197 -66q67 0 143 27t121 72l114 -168q-149 -138 -393 -138z" />
    <glyph glyph-name="Edotaccent" unicode="&#x116;" horiz-adv-x="1193" 
d="M619 1454q-57 0 -98 41q-40 41 -40 98t41 99q42 42 98 41q56 0 97 -41q41 -40 41 -98t-41 -99t-98 -41zM1102 0h-967v1366h967v-256h-676v-289h661v-256h-661v-309h676v-256z" />
    <glyph glyph-name="edotaccent" unicode="&#x117;" horiz-adv-x="1132" 
d="M582 1112q-57 0 -98 40q-40 40 -40 98t41 100t97 41q56 0 98 -41q41 -40 41 -98t-41 -99t-98 -41zM581 807q-114 0 -175 -67t-72 -152h487q-6 84 -66 152t-174 67zM608 -25q-244 -1 -393 143t-149 370t144 376t366 150t360 -151q137 -151 137 -394v-57h-735
q12 -98 88 -164t197 -66q67 0 143 27t121 72l114 -168q-149 -138 -393 -138z" />
    <glyph glyph-name="Eogonek" unicode="&#x118;" horiz-adv-x="1193" 
d="M1034 -381q-88 0 -146 46q-58 45 -58 149t92 186h-787v1366h967v-256h-676v-289h661v-256h-661v-309h676v-256q-143 -72 -144 -184q0 -45 22 -67t54 -21q63 0 88 71l105 -65q-63 -115 -193 -115z" />
    <glyph glyph-name="eogonek" unicode="&#x119;" horiz-adv-x="1132" 
d="M581 807q-114 0 -175 -67t-72 -152h487q-6 84 -66 152t-174 67zM717 -381q-88 0 -147 46q-58 46 -58 139t68 171q-226 5 -370 147t-144 368t144 374q144 150 366 150t360 -151q137 -151 137 -394v-57h-735q12 -98 88 -164t197 -66q67 0 143 27t121 72l114 -168
q-82 -76 -217 -113q-143 -72 -143 -184q0 -45 22 -67t54 -21q63 -1 88 71l104 -65q-66 -115 -192 -115z" />
    <glyph glyph-name="Ecaron" unicode="&#x11a;" horiz-adv-x="1193" 
d="M1102 0h-967v1366h967v-256h-676v-289h661v-256h-661v-309h676v-256zM741 1481h-233l-195 295h160l152 -185l143 185h160z" />
    <glyph glyph-name="ecaron" unicode="&#x11b;" horiz-adv-x="1132" 
d="M581 807q-114 0 -175 -67t-72 -152h487q-6 84 -66 152t-174 67zM608 -25q-244 -1 -393 143t-149 370t144 376t366 150t360 -151q137 -151 137 -394v-57h-735q12 -98 88 -164t197 -66q67 0 143 27t121 72l114 -168q-149 -138 -393 -138zM698 1139h-233l-195 295h160
l152 -185l143 185h160z" />
    <glyph glyph-name="Gcircumflex" unicode="&#x11c;" horiz-adv-x="1474" 
d="M797 -27q-307 0 -517 197t-210 513t210 511t517 195q373 0 565 -306l-242 -131q-49 78 -134 128t-189 50q-186 0 -308 -126q-121 -127 -121 -322t122 -322q120 -127 307 -127q86 0 166 31t124 74v164h-360v254h651v-525q-231 -258 -581 -258zM1110 1481h-160l-149 182
l-146 -182h-159l188 295h234z" />
    <glyph glyph-name="gcircumflex" unicode="&#x11d;" horiz-adv-x="1198" 
d="M584 238q62 0 126 32t97 80v320q-33 49 -95 81t-128 31q-113 0 -182 -74q-68 -74 -68 -198q0 -125 68 -199q69 -73 182 -73zM535 -401q-256 0 -426 147l116 188q111 -123 310 -122q111 0 191 58t81 191v101q-123 -156 -311 -156t-309 132t-121 371t121 372
q123 133 311 133t309 -152v127h262v-921q0 -360 -347 -448q-87 -21 -187 -21zM918 1139h-160l-150 182l-145 -182h-160l189 295h233z" />
    <glyph glyph-name="Gbreve" unicode="&#x11e;" horiz-adv-x="1474" 
d="M802 1430q-224 0 -362 180l115 96q90 -127 244 -127t245 127l115 -96q-133 -180 -357 -180zM797 -27q-307 0 -517 197t-210 513t210 511t517 195q373 0 565 -306l-242 -131q-49 78 -134 128t-189 50q-186 0 -308 -126q-121 -127 -121 -322t122 -322q120 -127 307 -127
q86 0 166 31t124 74v164h-360v254h651v-525q-231 -258 -581 -258z" />
    <glyph glyph-name="gbreve" unicode="&#x11f;" horiz-adv-x="1198" 
d="M600 1237q154 0 246 127l115 -96q-133 -180 -357 -180t-362 180l114 96q90 -127 244 -127zM584 238q62 0 126 32t97 80v320q-33 49 -95 81t-128 31q-113 0 -182 -74q-68 -74 -68 -198q0 -125 68 -199q69 -73 182 -73zM535 -401q-256 0 -426 147l116 188
q111 -123 310 -122q111 0 191 58t81 191v101q-123 -156 -311 -156t-309 132t-121 371t121 372q123 133 311 133t309 -152v127h262v-921q0 -360 -347 -448q-87 -21 -187 -21z" />
    <glyph glyph-name="Gdotaccent" unicode="&#x120;" horiz-adv-x="1474" 
d="M799 1454q-57 0 -98 41q-40 41 -39 98q0 57 40 99q42 41 98 41t97 -41q41 -40 41 -98t-41 -99t-98 -41zM797 -27q-307 0 -517 197t-210 513t210 511t517 195q373 0 565 -306l-242 -131q-49 78 -134 128t-189 50q-186 0 -308 -126q-121 -127 -121 -322t122 -322
q120 -127 307 -127q86 0 166 31t124 74v164h-360v254h651v-525q-231 -258 -581 -258z" />
    <glyph glyph-name="gdotaccent" unicode="&#x121;" horiz-adv-x="1198" 
d="M471 1250q0 58 41 100t97 41q55 0 97 -41q42 -40 42 -98t-42 -99t-97 -41q-56 0 -97 40t-41 98zM584 238q62 0 126 32t97 80v320q-33 49 -95 81t-128 31q-113 0 -182 -74q-68 -74 -68 -198q0 -125 68 -199q69 -73 182 -73zM535 -401q-256 0 -426 147l116 188
q111 -123 310 -122q111 0 191 58t81 191v101q-123 -156 -311 -156t-309 132t-121 371t121 372q123 133 311 133t309 -152v127h262v-921q0 -360 -347 -448q-87 -21 -187 -21z" />
    <glyph glyph-name="Gcommaaccent" unicode="&#x122;" horiz-adv-x="1474" 
d="M797 -27q-307 0 -517 197t-210 513t210 511t517 195q373 0 565 -306l-242 -131q-49 78 -134 128t-189 50q-186 0 -308 -126q-121 -127 -121 -322t122 -322q120 -127 307 -127q86 0 166 31t124 74v164h-360v254h651v-525q-231 -258 -581 -258zM944 -283q0 -186 -170 -307
l-90 72q43 25 82 72t47 90q-8 -4 -43 -4q-36 0 -66 32t-30 83q0 52 37 90t92 38t98 -45t43 -121z" />
    <glyph glyph-name="gcommaaccent" unicode="&#x123;" horiz-adv-x="1198" 
d="M584 238q62 0 126 32t97 80v320q-33 49 -95 81t-128 31q-113 0 -182 -74q-68 -74 -68 -198q0 -125 68 -199q69 -73 182 -73zM535 -401q-256 0 -426 147l116 188q111 -123 310 -122q111 0 191 58t81 191v101q-123 -156 -311 -156t-309 132t-121 371t121 372
q123 133 311 133t309 -152v127h262v-921q0 -360 -347 -448q-87 -21 -187 -21zM731 1226q0 -52 -38 -91t-90 -39t-93 38t-41 117q0 207 164 320l88 -72q-41 -25 -81 -69t-46 -84l14 2q47 0 85 -35t38 -87z" />
    <glyph glyph-name="Hcircumflex" unicode="&#x124;" horiz-adv-x="1497" 
d="M1364 0h-293v573h-645v-573h-291v1366h291v-537h645v537h293v-1366zM1053 1481h-160l-150 182l-145 -182h-160l189 295h233z" />
    <glyph glyph-name="hcircumflex" unicode="&#x125;" horiz-adv-x="1187" 
d="M1059 0h-260v602q0 98 -47 139t-138 41q-137 0 -225 -116v-666h-260v1366h260v-506q53 62 145 108t203 46q160 0 241 -82t81 -230v-702zM903 1481h-160l-149 182l-145 -182h-160l188 295h234z" />
    <glyph glyph-name="Hbar" unicode="&#x126;" horiz-adv-x="1531" 
d="M442 829h645v191h-645v-191zM1380 0h-293v573h-645v-573h-290v1020h-136v147h136v199h290v-199h645v199h293v-199h133v-147h-133v-1020z" />
    <glyph glyph-name="hbar" unicode="&#x127;" horiz-adv-x="1196" 
d="M694 1081h-297v-221q53 62 145 108t203 46q160 0 241 -82t81 -230v-702h-260v602q0 98 -47 139t-137 41q-137 0 -226 -116v-666h-260v1081h-121v148h121v137h260v-137h297v-148z" />
    <glyph glyph-name="Itilde" unicode="&#x128;" horiz-adv-x="561" 
d="M399 1477q-59 1 -102 35t-75 69t-62 35q-74 0 -74 -127h-137q0 131 57 203t164 71q45 1 83 -21t57 -48q51 -69 98 -68q74 0 73 125h137q0 -131 -56 -203q-57 -71 -163 -71zM426 0h-291v1366h291v-1366z" />
    <glyph glyph-name="itilde" unicode="&#x129;" horiz-adv-x="518" 
d="M375 1135q-59 1 -103 35t-74 69q-32 35 -63 35q-74 0 -74 -127h-137q0 131 58 203t163 71q57 0 101 -35q44 -34 75 -68q32 -34 62 -34q74 0 74 125h137q0 -131 -56 -203q-57 -71 -163 -71zM389 0h-260v989h260v-989z" />
    <glyph glyph-name="Imacron" unicode="&#x12a;" horiz-adv-x="561" 
d="M653 1493h-743v147h743v-147zM426 0h-291v1366h291v-1366z" />
    <glyph glyph-name="imacron" unicode="&#x12b;" horiz-adv-x="518" 
d="M631 1151h-744v147h744v-147zM389 0h-260v989h260v-989z" />
    <glyph glyph-name="Ibreve" unicode="&#x12c;" horiz-adv-x="561" 
d="M288 1430q-224 0 -362 180l115 96q90 -127 244 -127t245 127l115 -96q-133 -180 -357 -180zM426 0h-291v1366h291v-1366z" />
    <glyph glyph-name="ibreve" unicode="&#x12d;" horiz-adv-x="518" 
d="M258 1237q154 0 246 127l114 -96q-133 -180 -357 -180t-361 180l114 96q90 -127 244 -127zM389 0h-260v989h260v-989z" />
    <glyph glyph-name="Iogonek" unicode="&#x12e;" horiz-adv-x="561" 
d="M358 -381q-88 0 -146 46q-58 45 -58 149t92 186h-111v1366h291v-1366q-143 -72 -143 -184q-1 -45 21 -67t54 -21q63 -1 88 71l105 -65q-66 -115 -193 -115z" />
    <glyph glyph-name="iogonek" unicode="&#x12f;" horiz-adv-x="518" 
d="M260 1096q-64 0 -112 46q-46 46 -46 109t46 109t111 45q65 0 110 -45q45 -44 45 -108t-45 -110t-109 -46zM322 -381q-88 0 -147 46q-58 45 -58 149t92 186h-80v989h260v-989q-143 -72 -143 -184q0 -45 22 -67t54 -21q63 -1 88 71l104 -65q-66 -115 -192 -115z" />
    <glyph glyph-name="Idotaccent" unicode="&#x130;" horiz-adv-x="561" 
d="M283 1454q-57 0 -98 41q-40 41 -40 98t41 99q42 42 98 41q56 0 97 -41q41 -40 41 -98t-41 -99t-98 -41zM426 0h-291v1366h291v-1366z" />
    <glyph glyph-name="dotlessi" unicode="&#x131;" horiz-adv-x="518" 
d="M389 0h-260v989h260v-989z" />
    <glyph glyph-name="IJ" unicode="&#x132;" horiz-adv-x="1556" 
d="M1421 449q0 -233 -131 -353t-356 -121q-225 0 -361 134l127 223q102 -98 208 -98t164 58q58 60 58 161v913h291v-917zM426 0h-291v1366h291v-1366z" />
    <glyph glyph-name="ij" unicode="&#x133;" horiz-adv-x="1034" 
d="M555 -401q-90 0 -140 15t-108 54l72 195q61 -51 127 -51t104 41q37 41 37 120v1016h260v-1016q0 -174 -89 -274t-263 -100zM776 1096q-63 0 -109 46t-46 109t46 109q47 46 111 45q64 0 109 -45q45 -44 45 -108t-46 -110t-110 -46zM389 0h-260v989h260v-989zM260 1096
q-64 0 -112 46q-46 46 -46 109t46 109t111 45q65 0 110 -45q45 -44 45 -108t-45 -110t-109 -46z" />
    <glyph glyph-name="Jcircumflex" unicode="&#x134;" horiz-adv-x="995" 
d="M860 449q0 -233 -131 -353t-356 -121q-225 0 -361 134l127 223q101 -98 207 -98t164 58q58 60 59 161v913h291v-917zM1024 1481h-160l-149 182l-146 -182h-159l188 295h233z" />
    <glyph glyph-name="jcircumflex" unicode="&#x135;" horiz-adv-x="518" 
d="M37 -401q-90 0 -140 15t-108 54l72 201q61 -49 127 -49t104 40q37 40 37 113v1016h260v-1016q0 -174 -89 -274t-263 -100zM571 1139h-159l-150 182l-145 -182h-160l188 295h234z" />
    <glyph glyph-name="Kcommaaccent" unicode="&#x136;" horiz-adv-x="1327" 
d="M426 0h-291v1366h291v-610l483 610h359l-543 -641l580 -725h-359l-414 547l-106 -127v-420zM809 -283q0 -186 -170 -307l-90 72q43 25 82 72t47 90q-8 -4 -43 -4t-66 32t-31 83q0 52 37 90t93 38t98 -45q43 -45 43 -121z" />
    <glyph glyph-name="kcommaaccent" unicode="&#x137;" horiz-adv-x="1095" 
d="M389 0h-260v1366h260v-817l375 440h319l-391 -448l404 -541h-326l-262 381l-119 -127v-254zM694 -283q0 -186 -170 -307l-90 72q43 25 82 72t47 90q-8 -4 -43 -4q-36 0 -66 32t-30 83q0 52 37 90t92 38t98 -45t43 -121z" />
    <glyph glyph-name="kgreenlandic" unicode="&#x138;" horiz-adv-x="1095" 
d="M389 0h-260v989h260v-440l375 440h319l-391 -448l404 -541h-326l-262 381l-119 -127v-254z" />
    <glyph glyph-name="Lacute" unicode="&#x139;" horiz-adv-x="1071" 
d="M1004 0h-869v1366h291v-1110h578v-256zM952 1776l-331 -295h-183l275 295h239z" />
    <glyph glyph-name="lacute" unicode="&#x13a;" horiz-adv-x="518" 
d="M389 0h-260v1366h260v-1366zM643 1776l-332 -295h-182l274 295h240z" />
    <glyph glyph-name="Lcommaaccent" unicode="&#x13b;" horiz-adv-x="1071" 
d="M1004 0h-869v1366h291v-1110h578v-256zM678 -283q0 -186 -170 -307l-90 72q43 25 82 72t47 90q-8 -4 -43 -4t-66 32q-30 32 -30 83q0 52 36 90q37 38 92 38q54 0 98 -45t44 -121z" />
    <glyph glyph-name="lcommaaccent" unicode="&#x13c;" horiz-adv-x="518" 
d="M389 0h-260v1366h260v-1366zM406 -283q0 -186 -170 -307l-91 72q43 25 82 72t47 90q-8 -4 -42 -4t-66 32q-31 32 -31 83q0 52 37 90t92 38q54 0 98 -45t44 -121z" />
    <glyph glyph-name="Lcaron" unicode="&#x13d;" horiz-adv-x="1071" 
d="M1004 0h-869v1366h291v-1110h578v-256zM862 1227q0 -186 -170 -307l-90 71q43 25 82 72t47 90q-8 -4 -43 -4q-36 0 -66 32t-30 84t37 90t92 38t98 -45t43 -121z" />
    <glyph glyph-name="lcaron" unicode="&#x13e;" horiz-adv-x="724" 
d="M389 0h-260v1366h260v-1366zM764 1227q0 -186 -170 -307l-90 71q43 25 82 72t47 90q-8 -4 -43 -4t-66 32q-30 32 -30 84t36 90q37 38 92 38q54 0 98 -45t44 -121z" />
    <glyph glyph-name="Ldot" unicode="&#x13f;" horiz-adv-x="1110" 
d="M834 864q68 0 116 -49t49 -116q0 -67 -49 -115q-48 -48 -116 -49q-68 0 -117 49q-49 50 -49 116t49 115t117 49zM1004 0h-869v1366h291v-1110h578v-256z" />
    <glyph glyph-name="ldot" unicode="&#x140;" horiz-adv-x="786" 
d="M651 336q-69 0 -117 49t-48 116t48 115q50 48 118 50q68 0 116 -49q49 -49 49 -116t-49 -116t-117 -49zM389 0h-260v1366h260v-1366z" />
    <glyph glyph-name="Lslash" unicode="&#x141;" horiz-adv-x="1099" 
d="M164 1366h291v-483l157 90v-238l-157 -90v-389h577v-256h-868v477l-148 -84v238l148 84v651z" />
    <glyph glyph-name="lslash" unicode="&#x142;" horiz-adv-x="630" 
d="M186 1366h260v-512l166 96v-190l-166 -96v-664h-260v514l-170 -96v190l170 97v661z" />
    <glyph glyph-name="Nacute" unicode="&#x143;" horiz-adv-x="1492" 
d="M1358 0h-281l-651 891v-891h-291v1366h299l633 -858v858h291v-1366zM1130 1776l-331 -295h-183l275 295h239z" />
    <glyph glyph-name="nacute" unicode="&#x144;" 
d="M1057 0h-260v598q0 184 -183 184q-141 0 -225 -116v-666h-260v989h260v-129q129 154 346 154q160 0 241 -84t81 -232v-698zM977 1434l-332 -295h-182l274 295h240z" />
    <glyph glyph-name="Ncommaaccent" unicode="&#x145;" horiz-adv-x="1492" 
d="M1358 0h-281l-651 891v-891h-291v1366h299l633 -858v858h291v-1366zM893 -283q0 -186 -170 -307l-90 72q43 25 82 72t47 90q-8 -4 -43 -4t-66 32t-31 83q0 52 37 90t93 38t98 -45q43 -45 43 -121z" />
    <glyph glyph-name="ncommaaccent" unicode="&#x146;" 
d="M1057 0h-260v598q0 184 -183 184q-141 0 -225 -116v-666h-260v989h260v-129q129 154 346 154q160 0 241 -84t81 -232v-698zM733 -283q0 -186 -170 -307l-90 72q43 25 82 72t47 90q-8 -4 -43 -4t-65 32t-31 83q0 52 37 90t92 38t98 -45t43 -121z" />
    <glyph glyph-name="Ncaron" unicode="&#x147;" horiz-adv-x="1492" 
d="M1358 0h-281l-651 891v-891h-291v1366h299l633 -858v858h291v-1366zM864 1481h-233l-195 295h160l152 -185l143 185h160z" />
    <glyph glyph-name="ncaron" unicode="&#x148;" 
d="M1057 0h-260v598q0 184 -183 184q-141 0 -225 -116v-666h-260v989h260v-129q129 154 346 154q160 0 241 -84t81 -232v-698zM715 1139h-234l-194 295h159l152 -185l143 185h160z" />
    <glyph glyph-name="napostrophe" unicode="&#x149;" 
d="M1057 0h-260v598q0 184 -183 184q-141 0 -225 -116v-666h-260v989h260v-129q129 154 346 154q160 0 241 -84t81 -232v-698zM360 1399q0 -186 -170 -307l-90 71q43 25 82 72t47 90q-9 -4 -43 -4t-65 32t-31 84t37 90t92 38t98 -45t43 -121z" />
    <glyph glyph-name="Eng" unicode="&#x14a;" horiz-adv-x="1492" 
d="M1358 70q0 -233 -131 -352t-355 -119t-364 133l129 223q98 -98 217 -98q82 0 137 44t70 119l-635 871v-891h-291v1366h299l633 -858v858h291v-1296z" />
    <glyph glyph-name="eng" unicode="&#x14b;" 
d="M1057 698v-725q0 -174 -89 -274t-263 -100q-89 0 -139 15t-105 54l69 211q61 -49 128 -49t103 37t36 106v625q0 184 -183 184q-141 0 -225 -116v-666h-260v989h260v-129q129 154 346 154q160 0 241 -84t81 -232z" />
    <glyph glyph-name="Omacron" unicode="&#x14c;" horiz-adv-x="1566" 
d="M782 233q186 0 301 127t115 322t-115 322q-115 126 -301 126t-300 -126t-114 -322q0 -195 114 -322t300 -127zM783 -25q-310 0 -512 200t-201 507q0 307 201 507q202 200 512 200t512 -199t202 -508t-202 -508t-512 -199zM1153 1493h-743v147h743v-147z" />
    <glyph glyph-name="omacron" unicode="&#x14d;" horiz-adv-x="1175" 
d="M588 207q118 0 186 83t68 205q0 123 -69 205t-185 82t-185 -83q-67 -83 -67 -205t68 -204q68 -83 184 -83zM588 -25q-238 0 -380 151t-142 370q0 218 142 368t380 150t381 -150t143 -368t-143 -370q-143 -151 -381 -151zM961 1151h-744v147h744v-147z" />
    <glyph glyph-name="Obreve" unicode="&#x14e;" horiz-adv-x="1566" 
d="M784 1430q-224 0 -362 180l115 96q89 -127 243 -127t246 127l115 -96q-133 -180 -357 -180zM782 233q186 0 301 127t115 322t-115 322q-115 126 -301 126t-300 -126t-114 -322q0 -195 114 -322t300 -127zM783 -25q-310 0 -512 200t-201 507q0 307 201 507
q202 200 512 200t512 -199t202 -508t-202 -508t-512 -199z" />
    <glyph glyph-name="obreve" unicode="&#x14f;" horiz-adv-x="1175" 
d="M586 1237q154 0 245 127l115 -96q-133 -180 -357 -180t-362 180l115 96q90 -127 244 -127zM588 207q118 0 186 83t68 205q0 123 -69 205t-185 82t-185 -83q-67 -83 -67 -205t68 -204q68 -83 184 -83zM588 -25q-238 0 -380 151t-142 370q0 218 142 368t380 150t381 -150
t143 -368t-143 -370q-143 -151 -381 -151z" />
    <glyph glyph-name="Ohungarumlaut" unicode="&#x150;" horiz-adv-x="1566" 
d="M782 233q186 0 301 127t115 322t-115 322q-115 126 -301 126t-300 -126t-114 -322q0 -195 114 -322t300 -127zM783 -25q-310 0 -512 200t-201 507q0 307 201 507q202 200 512 200t512 -199t202 -508t-202 -508t-512 -199zM1225 1776l-236 -295h-151l178 295h209z
M920 1776l-236 -295h-152l179 295h209z" />
    <glyph glyph-name="ohungarumlaut" unicode="&#x151;" horiz-adv-x="1175" 
d="M588 207q118 0 186 83t68 205q0 123 -69 205t-185 82t-185 -83q-67 -83 -67 -205t68 -204q68 -83 184 -83zM588 -25q-238 0 -380 151t-142 370q0 218 142 368t380 150t381 -150t143 -368t-143 -370q-143 -151 -381 -151zM1028 1434l-235 -295h-152l178 295h209zM723 1434
l-236 -295h-151l178 295h209z" />
    <glyph glyph-name="OE" unicode="&#x152;" horiz-adv-x="2220" 
d="M795 1128q-195 0 -311 -124t-116 -321q0 -196 116 -323t311 -127q125 1 223 63t147 175v422q-49 115 -146 175t-224 60zM2132 0h-967v160q-65 -88 -179 -136t-232 -49q-299 0 -492 199t-192 508q0 309 192 507q193 198 492 197q118 0 232 -47t179 -135v162h967v-256h-674
v-289h660v-256h-660v-309h674v-256z" />
    <glyph glyph-name="oe" unicode="&#x153;" horiz-adv-x="1906" 
d="M590 205q114 0 182 81q70 81 70 209q0 127 -70 207t-184 80t-182 -80q-70 -80 -70 -208t70 -208q70 -81 184 -81zM1355 807q-113 -1 -175 -67t-70 -152h487q-6 84 -67 152t-175 67zM1847 412h-733q14 -98 89 -164t213 -66t245 97l117 -166q-154 -137 -404 -137t-401 219
q-151 -219 -387 -219t-378 150q-142 151 -142 370q0 218 142 368t376 150t391 -221q141 221 371 221t365 -151q136 -151 136 -394v-57z" />
    <glyph glyph-name="Racute" unicode="&#x154;" horiz-adv-x="1316" 
d="M731 741q89 1 147 51t58 134t-57 134t-148 50h-305v-369h305zM426 485v-485h-291v1366h639q211 0 335 -123t124 -304t-87 -285t-212 -134l307 -520h-334l-268 485h-213zM1059 1776l-332 -295h-182l274 295h240z" />
    <glyph glyph-name="racute" unicode="&#x155;" horiz-adv-x="737" 
d="M389 0h-260v989h260v-135q55 70 141 115t175 45v-254q-27 6 -83 6t-128 -33q-74 -33 -105 -80v-653zM801 1434l-332 -295h-182l274 295h240z" />
    <glyph glyph-name="Rcommaaccent" unicode="&#x156;" horiz-adv-x="1316" 
d="M731 741q89 1 147 51t58 134t-57 134t-148 50h-305v-369h305zM426 485v-485h-291v1366h639q211 0 335 -123t124 -304t-87 -285t-212 -134l307 -520h-334l-268 485h-213zM811 -283q0 -186 -170 -307l-90 72q43 25 82 72t47 90q-8 -4 -43 -4t-66 32t-31 83q0 52 38 90
q37 38 92 38t98 -45t43 -121z" />
    <glyph glyph-name="rcommaaccent" unicode="&#x157;" horiz-adv-x="737" 
d="M389 0h-260v989h260v-135q55 70 141 115t175 45v-254q-27 6 -83 6t-128 -33q-74 -33 -105 -80v-653zM514 -283q0 -186 -170 -307l-90 72q43 25 82 72t47 90q-8 -4 -43 -4t-66 32q-30 32 -30 83q0 52 37 90t92 38t98 -45t43 -121z" />
    <glyph glyph-name="Rcaron" unicode="&#x158;" horiz-adv-x="1316" 
d="M731 741q89 1 147 51t58 134t-57 134t-148 50h-305v-369h305zM426 485v-485h-291v1366h639q211 0 335 -123t124 -304t-87 -285t-212 -134l307 -520h-334l-268 485h-213zM784 1481h-233l-195 295h160l152 -185l143 185h160z" />
    <glyph glyph-name="rcaron" unicode="&#x159;" horiz-adv-x="737" 
d="M389 0h-260v989h260v-135q55 70 141 115t175 45v-254q-27 6 -83 6t-128 -33q-74 -33 -105 -80v-653zM535 1139h-234l-195 295h160l152 -185l143 185h160z" />
    <glyph glyph-name="Sacute" unicode="&#x15a;" horiz-adv-x="1228" 
d="M621 -25q-365 0 -578 218l158 221q176 -184 434 -185q113 0 175 44q62 43 62 103t-58 97t-145 53t-189 47t-190 70q-87 39 -146 123q-58 84 -58 205q0 176 141 296t377 119q326 0 533 -190l-162 -213q-162 150 -397 150q-92 0 -144 -37q-52 -38 -51 -94q0 -103 197 -139
t384 -121q87 -40 145 -125t58 -203q0 -197 -140 -318t-406 -121zM995 1776l-331 -295h-183l275 295h239z" />
    <glyph glyph-name="sacute" unicode="&#x15b;" horiz-adv-x="976" 
d="M485 -25q-129 0 -247 41t-195 113l113 182q57 -53 155 -94q97 -41 183 -41t128 29t42 72t-44 67t-109 33q-65 11 -141 31t-142 49q-64 29 -108 91t-44 154q0 131 108 222q110 90 318 90t379 -135l-105 -179q-47 49 -126 82t-158 33q-80 0 -122 -28q-42 -27 -42 -65
q0 -67 149 -91q149 -23 285 -83q66 -30 108 -96t43 -159q1 -139 -113 -229t-315 -89zM870 1434l-331 -295h-183l275 295h239z" />
    <glyph glyph-name="Scircumflex" unicode="&#x15c;" horiz-adv-x="1228" 
d="M621 -25q-365 0 -578 218l158 221q176 -184 434 -185q113 0 175 44q62 43 62 103t-58 97t-145 53t-189 47t-190 70q-87 39 -146 123q-58 84 -58 205q0 176 141 296t377 119q326 0 533 -190l-162 -213q-162 150 -397 150q-92 0 -144 -37q-52 -38 -51 -94q0 -103 197 -139
t384 -121q87 -40 145 -125t58 -203q0 -197 -140 -318t-406 -121zM907 1481h-159l-150 182l-145 -182h-160l188 295h234z" />
    <glyph glyph-name="scircumflex" unicode="&#x15d;" horiz-adv-x="976" 
d="M485 -25q-129 0 -247 41t-195 113l113 182q57 -53 155 -94q97 -41 183 -41t128 29t42 72t-44 67t-109 33q-65 11 -141 31t-142 49q-64 29 -108 91t-44 154q0 131 108 222q110 90 318 90t379 -135l-105 -179q-47 49 -126 82t-158 33q-80 0 -122 -28q-42 -27 -42 -65
q0 -67 149 -91q149 -23 285 -83q66 -30 108 -96t43 -159q1 -139 -113 -229t-315 -89zM793 1139h-160l-150 182l-145 -182h-160l189 295h233z" />
    <glyph glyph-name="Scedilla" unicode="&#x15e;" horiz-adv-x="1228" 
d="M825 -236q1 -72 -65 -118q-66 -47 -186 -47t-201 65l51 105q78 -59 166 -60q45 -1 76 17t30 51q0 53 -59 53q-37 0 -66 -29l-94 54l45 125q-299 29 -479 213l158 221q176 -184 434 -185q113 0 175 44q62 43 62 103t-58 97t-145 53t-189 47t-190 70q-87 39 -146 123
q-58 84 -58 205q0 176 141 296t377 119q326 0 533 -190l-162 -213q-162 150 -397 150q-92 0 -144 -37q-52 -38 -51 -94q0 -103 197 -139t384 -121q87 -40 145 -125t58 -203q0 -190 -133 -310t-387 -129l-33 -79q35 20 83 20t88 -40t40 -112z" />
    <glyph glyph-name="scedilla" unicode="&#x15f;" horiz-adv-x="976" 
d="M460 -401q-120 0 -202 65l51 105q78 -59 166 -60q45 -1 76 17t31 51q0 53 -60 53q-37 0 -65 -29l-95 54l46 125q-229 23 -365 149l113 182q57 -53 155 -94q97 -41 183 -41t128 29t42 72t-44 67t-109 33q-65 11 -141 31t-142 49q-64 29 -108 91t-44 154q0 131 108 222
q110 90 318 90t379 -135l-105 -179q-47 49 -126 82t-158 33q-80 0 -122 -28q-42 -27 -42 -65q0 -67 149 -91q149 -23 285 -83q66 -30 108 -96t43 -159q0 -131 -101 -218t-280 -98l-32 -81q34 20 82 20t88 -40t41 -112q0 -72 -66 -118q-65 -47 -185 -47z" />
    <glyph glyph-name="Scaron" unicode="&#x160;" horiz-adv-x="1228" 
d="M621 -25q-365 0 -578 218l158 221q176 -184 434 -185q113 0 175 44q62 43 62 103t-58 97t-145 53t-189 47t-190 70q-87 39 -146 123q-58 84 -58 205q0 176 141 296t377 119q326 0 533 -190l-162 -213q-162 150 -397 150q-92 0 -144 -37q-52 -38 -51 -94q0 -103 197 -139
t384 -121q87 -40 145 -125t58 -203q0 -197 -140 -318t-406 -121zM721 1481h-234l-194 295h160l151 -185l144 185h159z" />
    <glyph glyph-name="scaron" unicode="&#x161;" horiz-adv-x="976" 
d="M485 -25q-129 0 -247 41t-195 113l113 182q57 -53 155 -94q97 -41 183 -41t128 29t42 72t-44 67t-109 33q-65 11 -141 31t-142 49q-64 29 -108 91t-44 154q0 131 108 222q110 90 318 90t379 -135l-105 -179q-47 49 -126 82t-158 33q-80 0 -122 -28q-42 -27 -42 -65
q0 -67 149 -91q149 -23 285 -83q66 -30 108 -96t43 -159q1 -139 -113 -229t-315 -89zM606 1139h-233l-195 295h160l151 -185l144 185h160z" />
    <glyph glyph-name="Tcommaaccent" unicode="&#x162;" horiz-adv-x="1191" 
d="M743 0h-292v1110h-400v256h1090v-256h-398v-1110zM741 -283q0 -186 -170 -307l-90 72q43 25 82 72t47 90q-8 -4 -42 -4t-66 32q-31 32 -31 83q0 52 37 90t92 38t98 -45t43 -121z" />
    <glyph glyph-name="tcommaaccent" unicode="&#x163;" horiz-adv-x="692" 
d="M465 -25q-141 0 -213 70t-72 201v516h-164v227h164v271h262v-271h201v-227h-201v-447q0 -47 25 -77t75 -31q50 0 81 29l55 -197q-72 -64 -213 -64zM492 -283q0 -186 -170 -307l-91 72q43 25 82 72t47 90q-8 -4 -42 -4t-66 32q-31 32 -31 83q0 52 37 90t92 38q54 0 98 -45
t44 -121z" />
    <glyph glyph-name="Tcaron" unicode="&#x164;" horiz-adv-x="1191" 
d="M743 0h-292v1110h-400v256h1090v-256h-398v-1110zM717 1481h-234l-194 295h160l151 -185l143 185h160z" />
    <glyph glyph-name="tcaron" unicode="&#x165;" horiz-adv-x="778" 
d="M465 -25q-141 0 -213 70t-72 201v516h-164v227h164v271h262v-271h201v-227h-201v-447q0 -47 25 -77t75 -31q50 0 81 29l55 -197q-72 -64 -213 -64zM823 1399q0 -186 -170 -307l-90 71q43 25 82 72t47 90q-8 -4 -42 -4t-66 32q-31 32 -31 84t37 90t92 38t98 -45t43 -121z
" />
    <glyph glyph-name="Tbar" unicode="&#x166;" horiz-adv-x="1191" 
d="M743 0h-292v539h-273v147h273v424h-400v256h1090v-256h-398v-424h275v-147h-275v-539z" />
    <glyph glyph-name="tbar" unicode="&#x167;" horiz-adv-x="692" 
d="M465 -25q-141 0 -213 70t-72 201v182h-164v147h164v187h-164v227h164v271h262v-271h201v-227h-201v-187h140v-147h-140v-113q0 -47 25 -77t75 -31q50 0 81 29l55 -197q-72 -64 -213 -64z" />
    <glyph glyph-name="Utilde" unicode="&#x168;" horiz-adv-x="1501" 
d="M870 1477q-59 1 -102 35t-75 69t-62 35q-74 0 -74 -127h-137q0 131 57 203t164 71q45 1 83 -21t57 -48q51 -68 98 -68q74 0 73 125h138q0 -131 -57 -203t-163 -71zM752 -25q-303 0 -460 155t-157 415v821h295v-811q0 -147 84 -234t238 -87t236 86q82 88 83 235v811h297
v-819q0 -264 -156 -418t-460 -154z" />
    <glyph glyph-name="utilde" unicode="&#x169;" 
d="M709 1135q-59 1 -103 35t-75 69q-32 35 -62 35q-74 0 -74 -127h-137q0 131 57 203t164 71q57 0 101 -35q44 -34 74 -68q32 -34 63 -34q74 0 74 125h137q0 -131 -56 -203t-163 -71zM1057 0h-260v125q-133 -150 -348 -150q-160 0 -240 82t-80 230v702h260v-600
q0 -182 182 -182q137 0 226 112v670h260v-989z" />
    <glyph glyph-name="Umacron" unicode="&#x16a;" horiz-adv-x="1501" 
d="M1126 1493h-743v147h743v-147zM752 -25q-303 0 -460 155t-157 415v821h295v-811q0 -147 84 -234t238 -87t236 86q82 88 83 235v811h297v-819q0 -264 -156 -418t-460 -154z" />
    <glyph glyph-name="umacron" unicode="&#x16b;" 
d="M963 1151h-744v147h744v-147zM1057 0h-260v125q-133 -150 -348 -150q-160 0 -240 82t-80 230v702h260v-600q0 -182 182 -182q137 0 226 112v670h260v-989z" />
    <glyph glyph-name="Ubreve" unicode="&#x16c;" horiz-adv-x="1501" 
d="M757 1430q-224 0 -362 180l115 96q90 -127 244 -127t245 127l115 -96q-133 -180 -357 -180zM752 -25q-303 0 -460 155t-157 415v821h295v-811q0 -147 84 -234t238 -87t236 86q82 88 83 235v811h297v-819q0 -264 -156 -418t-460 -154z" />
    <glyph glyph-name="ubreve" unicode="&#x16d;" 
d="M594 1237q154 0 246 127l114 -96q-133 -180 -357 -180t-361 180l114 96q90 -127 244 -127zM1057 0h-260v125q-133 -150 -348 -150q-160 0 -240 82t-80 230v702h260v-600q0 -182 182 -182q137 0 226 112v670h260v-989z" />
    <glyph glyph-name="Uring" unicode="&#x16e;" horiz-adv-x="1501" 
d="M752 -25q-303 0 -460 155t-157 415v821h295v-811q0 -147 84 -234t238 -87t236 86q82 88 83 235v811h297v-819q0 -264 -156 -418t-460 -154zM756 1548q38 0 66 29t28 69t-28 68t-66 27q-38 0 -68 -29q-29 -30 -29 -68t29 -67t68 -29zM756 1430q-88 0 -152 63
q-63 63 -63 151t63 154q64 64 152 64t150 -65t62 -153t-62 -152q-62 -62 -150 -62z" />
    <glyph glyph-name="uring" unicode="&#x16f;" 
d="M1057 0h-260v125q-133 -150 -348 -150q-160 0 -240 82t-80 230v702h260v-600q0 -182 182 -182q137 0 226 112v670h260v-989zM594 1206q38 0 66 29t28 69t-28 68t-66 27q-38 0 -68 -29q-28 -30 -28 -68t28 -67t68 -29zM594 1087q-88 -1 -152 63t-63 152q0 88 63 154
q64 64 152 64t150 -65t62 -153t-62 -152q-62 -63 -150 -63z" />
    <glyph glyph-name="Uhungarumlaut" unicode="&#x170;" horiz-adv-x="1501" 
d="M1196 1776l-235 -295h-152l178 295h209zM891 1776l-236 -295h-151l178 295h209zM752 -25q-303 0 -460 155t-157 415v821h295v-811q0 -147 84 -234t238 -87t236 86q82 88 83 235v811h297v-819q0 -264 -156 -418t-460 -154z" />
    <glyph glyph-name="uhungarumlaut" unicode="&#x171;" 
d="M1032 1434l-235 -295h-152l178 295h209zM727 1434l-235 -295h-152l178 295h209zM1057 0h-260v125q-133 -150 -348 -150q-160 0 -240 82t-80 230v702h260v-600q0 -182 182 -182q137 0 226 112v670h260v-989z" />
    <glyph glyph-name="Uogonek" unicode="&#x172;" horiz-adv-x="1501" 
d="M752 -25q-303 0 -460 155t-157 415v821h295v-811q0 -147 84 -234t238 -87t236 86q82 88 83 235v811h297v-819q0 -211 -101 -354t-300 -193q-143 -72 -144 -184q0 -45 22 -67t54 -21q63 0 88 71l105 -65q-63 -115 -193 -115q-88 0 -146 46q-59 46 -59 139t68 171h-10z" />
    <glyph glyph-name="uogonek" unicode="&#x173;" 
d="M989 -381q-88 0 -146 46q-59 45 -59 149t93 186h-80v125q-133 -150 -348 -150q-160 0 -240 82t-80 230v702h260v-600q0 -182 182 -182q137 0 226 112v670h260v-989q-143 -72 -144 -184q0 -45 22 -67t54 -21q63 0 88 71l105 -65q-63 -115 -193 -115z" />
    <glyph glyph-name="Wcircumflex" unicode="&#x174;" horiz-adv-x="1880" 
d="M1489 0h-309l-240 938l-238 -938h-309l-391 1366h326l239 -987l260 987h228l258 -987l237 987h328zM1247 1481h-160l-149 182l-145 -182h-160l188 295h234z" />
    <glyph glyph-name="wcircumflex" unicode="&#x175;" horiz-adv-x="1574" 
d="M1274 0h-277l-209 674l-208 -674h-279l-301 989h270l185 -665l217 665h231l217 -665l185 665h270zM1096 1139h-160l-150 182l-145 -182h-160l189 295h233z" />
    <glyph glyph-name="Ycircumflex" unicode="&#x176;" horiz-adv-x="1320" 
d="M807 0h-291v559l-526 807h332l340 -549l335 549h332l-522 -807v-559zM971 1481h-160l-149 182l-146 -182h-160l189 295h233z" />
    <glyph glyph-name="ycircumflex" unicode="&#x177;" horiz-adv-x="1050" 
d="M831 1139h-159l-150 182l-145 -182h-160l189 295h233zM215 -170q104 0 137 72l37 84l-401 1003h278l258 -688l258 688h281l-465 -1151q-90 -232 -341 -237q-106 -2 -163 12l39 233q37 -16 82 -16z" />
    <glyph glyph-name="Ydieresis" unicode="&#x178;" horiz-adv-x="1320" 
d="M807 0h-291v559l-526 807h332l340 -549l335 549h332l-522 -807v-559zM584 1593q0 -57 -40 -98t-98 -41t-98 41q-41 41 -41 98t41 97t98 41q57 0 98 -40q40 -41 40 -98zM1018 1593q0 -57 -41 -98t-98 -41t-99 41q-41 41 -41 98t41 97q40 40 98 41q58 -1 99 -41t41 -97z
" />
    <glyph glyph-name="Zacute" unicode="&#x179;" horiz-adv-x="1212" 
d="M1126 0h-1040v236l645 874h-645v256h1026v-233l-645 -877h659v-256zM958 1776l-331 -295h-183l275 295h239z" />
    <glyph glyph-name="zacute" unicode="&#x17a;" horiz-adv-x="980" 
d="M893 0h-807v195l446 567h-446v227h799v-188l-453 -574h461v-227zM872 1434l-331 -295h-183l275 295h239z" />
    <glyph glyph-name="Zdotaccent" unicode="&#x17b;" horiz-adv-x="1212" 
d="M594 1454q-57 0 -97 41t-40 98t41 99t97 41q56 0 97 -41q41 -40 41 -98t-41 -99t-98 -41zM1126 0h-1040v236l645 874h-645v256h1026v-233l-645 -877h659v-256z" />
    <glyph glyph-name="zdotaccent" unicode="&#x17c;" horiz-adv-x="980" 
d="M348 1250q0 58 41 100t97 41q56 0 98 -41q42 -40 41 -98q1 -58 -41 -99t-98 -41t-97 40t-41 98zM893 0h-807v195l446 567h-446v227h799v-188l-453 -574h461v-227z" />
    <glyph glyph-name="Zcaron" unicode="&#x17d;" horiz-adv-x="1212" 
d="M1126 0h-1040v236l645 874h-645v256h1026v-233l-645 -877h659v-256zM721 1481h-234l-194 295h160l151 -185l144 185h159z" />
    <glyph glyph-name="zcaron" unicode="&#x17e;" horiz-adv-x="980" 
d="M893 0h-807v195l446 567h-446v227h799v-188l-453 -574h461v-227zM602 1139h-233l-195 295h160l151 -185l144 185h159z" />
    <glyph glyph-name="longs" unicode="&#x17f;" horiz-adv-x="669" 
d="M449 0h-263v762h-163v227h163v53q0 158 92 251t254 93q160 0 246 -92l-98 -164q-40 41 -102 41q-62 -1 -96 -35t-33 -94v-1042z" />
    <glyph glyph-name="florin" unicode="&#x192;" horiz-adv-x="929" 
d="M86 487v230h160l76 340q33 147 144 238q112 91 264 91t239 -88l-111 -211q-39 43 -96 43t-99 -36t-57 -101l-61 -276h231v-230h-282l-181 -817h-297l181 817h-111z" />
    <glyph glyph-name="Ohorn" unicode="&#x1a0;" horiz-adv-x="1566" 
d="M782 233q186 0 301 127t115 322t-115 322q-115 126 -301 126t-300 -126t-114 -322q0 -195 114 -322t300 -127zM783 -25q-310 0 -512 200t-201 507q0 307 201 507q203 200 521 200t523 -222q74 63 90 131q-8 -4 -39 -4q-32 0 -60 30t-28 76t33 80t83 34t88 -40t38 -110
q0 -164 -144 -272q121 -174 121 -410q0 -309 -202 -508t-512 -199z" />
    <glyph glyph-name="ohorn" unicode="&#x1a1;" horiz-adv-x="1175" 
d="M588 207q118 0 186 83t68 205q0 123 -69 205t-185 82t-185 -83q-67 -83 -67 -205t68 -204q68 -83 184 -83zM1130 1090q0 -154 -131 -263q113 -137 113 -343t-143 -358q-143 -151 -381 -151t-380 151t-142 370q0 218 142 368t380 150q201 0 342 -115q72 59 86 127
q-8 -4 -40 -4t-60 29t-28 75t34 81q32 34 82 34q50 -1 88 -41t38 -110z" />
    <glyph glyph-name="Uhorn" unicode="&#x1af;" horiz-adv-x="1501" 
d="M1591 1475q0 -82 -58 -169t-165 -137v-622q0 -264 -157 -418t-459 -154t-460 155q-157 155 -157 415v821h295v-811q0 -147 84 -234t238 -87t236 86q82 88 83 235v811h297v-88q92 63 109 147q-6 -6 -39 -6t-61 30t-27 77q0 47 33 80q34 32 83 32t87 -40t38 -123z" />
    <glyph glyph-name="uhorn" unicode="&#x1b0;" 
d="M1057 0h-260v125q-133 -150 -348 -150q-160 0 -240 82t-80 230v702h260v-600q0 -182 182 -182q137 0 226 112v670h260v-35q45 51 53 99q-8 -4 -40 -4q-32 1 -60 29t-27 75q0 47 33 81t84 34t88 -41t37 -111q0 -176 -168 -289v-827z" />
    <glyph glyph-name="AEacute" unicode="&#x1fc;" horiz-adv-x="1982" 
d="M930 487v588l-342 -588h342zM1896 0h-966v231h-481l-136 -231h-331l831 1366h1083v-256h-673v-289h659v-256h-659v-309h673v-256zM1464 1776l-331 -295h-183l275 295h239z" />
    <glyph glyph-name="aeacute" unicode="&#x1fd;" horiz-adv-x="1781" 
d="M762 346v12q-78 88 -232 88q-88 0 -145 -34t-57 -98t56 -99t145 -35t161 52t72 114zM1248 807q-106 -1 -162 -67q-58 -66 -66 -152h450q-4 84 -60 152t-162 67zM1722 412h-698q14 -96 84 -160t182 -64q152 0 244 97l117 -172q-72 -66 -176 -102t-203 -36q-256 0 -381 181
q-63 -80 -173 -130t-262 -50t-272 82q-118 83 -118 240t102 241t256 84q223 0 338 -119v133q0 74 -65 119t-171 45q-170 0 -309 -117l-98 174q176 156 437 156t347 -170q129 170 347 170t344 -151q128 -151 128 -394v-57zM1245 1434l-332 -295h-182l275 295h239z" />
    <glyph glyph-name="Oslashacute" unicode="&#x1fe;" horiz-adv-x="1566" 
d="M369 698q0 -178 80 -297l522 686q-90 43 -189 43q-186 0 -300 -126q-113 -128 -113 -306zM782 233q186 0 301 127q115 126 115 314t-98 309l-531 -694q94 -56 213 -56zM782 -25q-211 0 -376 97l-56 -72h-209l131 172q-202 199 -202 508t201 509q202 200 511 200
q193 0 355 -84l47 61h209l-119 -156q223 -203 223 -520t-202 -516t-513 -199zM1167 1776l-331 -295h-183l275 295h239z" />
    <glyph glyph-name="oslashacute" unicode="&#x1ff;" horiz-adv-x="1175" 
d="M336 514q0 -104 35 -174l346 408q-57 35 -129 34q-116 0 -184 -82t-68 -186zM588 207q118 0 186 83q68 84 68 190t-41 177l-350 -411q53 -39 137 -39zM66 498q0 216 142 366t380 150q166 0 289 -78l45 53h163l-112 -131q139 -145 139 -363t-143 -369t-381 -151
q-174 0 -297 82l-49 -57h-160l117 137q-133 145 -133 361zM973 1434l-332 -295h-182l274 295h240z" />
    <glyph glyph-name="Scommaaccent" unicode="&#x218;" horiz-adv-x="1228" 
d="M621 -25q-365 0 -578 218l158 221q176 -184 434 -185q113 0 175 44q62 43 62 103t-58 97t-145 53t-189 47t-190 70q-87 39 -146 123q-58 84 -58 205q0 176 141 296t377 119q326 0 533 -190l-162 -213q-162 150 -397 150q-92 0 -144 -37q-52 -38 -51 -94q0 -103 197 -139
t384 -121q87 -40 145 -125t58 -203q0 -197 -140 -318t-406 -121zM754 -283q0 -186 -170 -307l-90 72q44 25 82 72t47 90q-8 -4 -43 -4t-66 32t-31 83q0 52 37 90t92 38q54 0 98 -45t44 -121z" />
    <glyph glyph-name="scommaaccent" unicode="&#x219;" horiz-adv-x="976" 
d="M485 -25q-129 0 -247 41t-195 113l113 182q57 -53 155 -94q97 -41 183 -41t128 29t42 72t-44 67t-109 33q-65 11 -141 31t-142 49q-64 29 -108 91t-44 154q0 131 108 222q110 90 318 90t379 -135l-105 -179q-47 49 -126 82t-158 33q-80 0 -122 -28q-42 -27 -42 -65
q0 -67 149 -91q149 -23 285 -83q66 -30 108 -96t43 -159q1 -139 -113 -229t-315 -89zM643 -283q0 -186 -170 -307l-90 72q43 25 82 72t47 90q-8 -4 -43 -4t-66 32t-31 83q0 52 38 90q37 38 92 38t98 -45t43 -121z" />
    <glyph glyph-name="uni021A" unicode="&#x21a;" horiz-adv-x="1191" 
d="M743 0h-292v1110h-400v256h1090v-256h-398v-1110zM741 -283q0 -186 -170 -307l-90 72q43 25 82 72t47 90q-8 -4 -42 -4t-66 32q-31 32 -31 83q0 52 37 90t92 38t98 -45t43 -121z" />
    <glyph glyph-name="uni021B" unicode="&#x21b;" horiz-adv-x="692" 
d="M465 -25q-141 0 -213 70t-72 201v516h-164v227h164v271h262v-271h201v-227h-201v-447q0 -47 25 -77t75 -31q50 0 81 29l55 -197q-72 -64 -213 -64zM492 -283q0 -186 -170 -307l-91 72q43 25 82 72t47 90q-8 -4 -42 -4t-66 32q-31 32 -31 83q0 52 37 90t92 38q54 0 98 -45
t44 -121z" />
    <glyph glyph-name="uni0237" unicode="&#x237;" horiz-adv-x="518" 
d="M37 -401q-90 0 -140 15t-108 54l72 201q61 -49 127 -49t104 40q37 40 37 113v1016h260v-1016q0 -174 -89 -274t-263 -100z" />
    <glyph glyph-name="hsuperior" unicode="&#x2b0;" horiz-adv-x="841" 
d="M739 668h-190v385q0 115 -117 114q-86 0 -141 -67v-432h-189v888h189v-327q86 98 229 98q109 0 164 -55t55 -156v-448z" />
    <glyph glyph-name="uni02BC" unicode="&#x2bc;" horiz-adv-x="522" 
d="M440 1170q0 -104 -57 -204q-57 -99 -154 -169l-112 92q51 27 98 84t59 110q-12 -8 -38 -8q-59 0 -100 42q-40 42 -40 108q0 65 47 113t118 48t125 -56t54 -160z" />
    <glyph glyph-name="circumflex" unicode="&#x2c6;" horiz-adv-x="614" 
d="M614 1139h-159l-150 182l-145 -182h-160l188 295h234z" />
    <glyph glyph-name="caron" unicode="&#x2c7;" horiz-adv-x="614" 
d="M428 1139h-233l-195 295h160l151 -185l144 185h159z" />
    <glyph glyph-name="uni02C9" unicode="&#x2c9;" horiz-adv-x="743" 
d="M743 1210h-743v150h743v-150z" />
    <glyph glyph-name="uni02CB" unicode="&#x2cb;" horiz-adv-x="514" 
d="M514 1139h-182l-332 295h238z" />
    <glyph glyph-name="breve" unicode="&#x2d8;" horiz-adv-x="718" 
d="M358 1237q154 0 246 127l115 -96q-133 -180 -357 -180t-362 180l115 96q89 -127 243 -127z" />
    <glyph glyph-name="dotaccent" unicode="&#x2d9;" horiz-adv-x="356" 
d="M179 1112q-56 0 -97 40t-41 98t41 100t97 41q56 0 97 -41q41 -40 41 -98t-41 -99t-97 -41z" />
    <glyph glyph-name="ring" unicode="&#x2da;" horiz-adv-x="428" 
d="M215 1206q39 0 67 29t28 69t-28 68t-67 27q-39 0 -68 -29q-29 -30 -29 -68t30 -67q28 -29 67 -29zM215 1087q-87 -1 -151 63t-64 152t63 154q63 64 151 64t152 -65q62 -65 62 -153t-62 -152q-62 -63 -151 -63z" />
    <glyph glyph-name="ogonek" unicode="&#x2db;" horiz-adv-x="397" 
d="M205 -381q-88 0 -147 46q-58 46 -58 138q0 160 180 258l92 -61q-143 -72 -143 -184q0 -45 22 -67t54 -21q63 -1 88 71l104 -65q-66 -115 -192 -115z" />
    <glyph glyph-name="tilde" unicode="&#x2dc;" horiz-adv-x="669" 
d="M451 1135q-59 1 -103 35t-75 69q-32 35 -62 35q-74 0 -74 -127h-137q0 131 57 203t164 71q57 0 101 -35q44 -34 74 -68q32 -34 63 -34q74 0 73 125h138q0 -131 -56 -203t-163 -71z" />
    <glyph glyph-name="hungarumlaut" unicode="&#x2dd;" horiz-adv-x="692" 
d="M692 1434l-235 -295h-152l178 295h209zM387 1434l-235 -295h-152l178 295h209z" />
    <glyph glyph-name="hookabovecomb" unicode="&#x309;" horiz-adv-x="397" 
d="M195 1618q69 0 115 -37t46 -101t-30 -114h-113q41 44 41 104t-59 60q-52 0 -72 -57l-92 28q37 117 164 117z" />
    <glyph glyph-name="uni037E" unicode="&#x37e;" horiz-adv-x="524" 
d="M96 153q0 67 47 113t118 47q71 -1 125 -57t54 -160t-57 -204q-57 -99 -154 -168l-112 92q51 29 98 86t59 108q-25 -8 -38 -8q-59 0 -100 42q-40 42 -40 109zM262 672q-68 0 -117 50t-49 117t49 115t117 50q68 0 117 -50t49 -116t-49 -116t-117 -50z" />
    <glyph glyph-name="tonos" unicode="&#x384;" horiz-adv-x="460" 
d="M338 1133h-115l43 434h215z" />
    <glyph glyph-name="dieresistonos" unicode="&#x385;" 
d="M145 1250q0 58 41 98q40 40 98 41q58 -1 98 -41t40 -98t-40 -98t-98 -40t-99 40q-40 40 -40 98zM899 1389q57 -1 98 -41t41 -98t-40 -98t-98 -40t-99 41t-41 98t41 97t98 41zM614 1133h-116l43 434h217z" />
    <glyph glyph-name="Alphatonos" unicode="&#x386;" horiz-adv-x="1400" 
d="M913 487l-213 588l-213 -588h426zM1409 0h-332l-84 231h-585l-86 -231h-332l528 1366h365zM338 1133h-115l43 434h215z" />
    <glyph glyph-name="Epsilontonos" unicode="&#x388;" horiz-adv-x="1267" 
d="M1176 0h-967v1366h967v-256h-676v-289h661v-256h-661v-309h676v-256zM78 1133h-115l43 434h215z" />
    <glyph glyph-name="Etatonos" unicode="&#x389;" horiz-adv-x="1572" 
d="M1438 0h-293v573h-645v-573h-291v1366h291v-537h645v537h293v-1366zM78 1133h-115l43 434h215z" />
    <glyph glyph-name="Iotatonos" unicode="&#x38a;" horiz-adv-x="636" 
d="M500 0h-291v1366h291v-1366zM78 1133h-115l43 434h215z" />
    <glyph glyph-name="Omicrontonos" unicode="&#x38c;" horiz-adv-x="1566" 
d="M782 233q186 0 301 127t115 322t-115 322q-115 126 -301 126t-300 -126t-114 -322q0 -195 114 -322t300 -127zM783 -25q-310 0 -512 200t-201 507q0 307 201 507q202 200 512 200t512 -199t202 -508t-202 -508t-512 -199zM113 1133h-115l43 434h215z" />
    <glyph glyph-name="Upsilontonos" unicode="&#x38e;" horiz-adv-x="1495" 
d="M979 0h-291v559l-526 807h332l340 -549l335 549h332l-522 -807v-559zM78 1133h-115l43 434h215z" />
    <glyph glyph-name="Omegatonos" unicode="&#x38f;" horiz-adv-x="1585" 
d="M125 256h244q-281 190 -281 486t201 472q201 174 513 174t513 -174q201 -176 201 -472t-279 -486h244v-256h-553v256q129 35 209 153q80 119 80 287q-1 168 -107 300t-309 132t-308 -132t-105 -301t79 -287q80 -118 209 -152v-256h-551v256zM113 1133h-115l43 434h215z
" />
    <glyph glyph-name="iotadieresistonos" unicode="&#x390;" horiz-adv-x="546" 
d="M408 -25q-137 0 -208 69t-71 202v743h260v-692q0 -43 23 -67t50 -24t48 5l18 -221q-52 -15 -120 -15zM-35 1389q57 -1 97 -41t40 -98t-40 -98t-98 -40t-98 40t-40 98t41 98t98 41zM440 1251q0 57 41 97t99 41q58 -1 98 -41q41 -40 41 -98t-40 -98t-98 -40t-100 41
q-41 41 -41 98zM295 1133h-117l43 434h217z" />
    <glyph glyph-name="Alpha" unicode="&#x391;" horiz-adv-x="1400" 
d="M913 487l-213 588l-213 -588h426zM1409 0h-332l-84 231h-585l-86 -231h-332l528 1366h365z" />
    <glyph glyph-name="Beta" unicode="&#x392;" horiz-adv-x="1357" 
d="M801 252q82 0 129 42t47 113t-47 117t-129 45h-375v-317h375zM791 819q75 0 117 41t42 107q0 65 -44 107t-115 42h-365v-297h365zM877 0h-742v1366h719q186 0 290 -101t103 -237q1 -136 -67 -219q-68 -84 -168 -104q110 -17 186 -113t76 -240t-104 -248t-293 -104z" />
    <glyph glyph-name="Gamma" unicode="&#x393;" horiz-adv-x="1169" 
d="M426 0h-291v1366h967v-256h-676v-1110z" />
    <glyph glyph-name="uni0394" unicode="&#x394;" horiz-adv-x="1400" 
d="M999 256l-299 819l-299 -819h598zM1409 0h-1419l528 1366h365z" />
    <glyph glyph-name="Epsilon" unicode="&#x395;" horiz-adv-x="1193" 
d="M1102 0h-967v1366h967v-256h-676v-289h661v-256h-661v-309h676v-256z" />
    <glyph glyph-name="Zeta" unicode="&#x396;" horiz-adv-x="1212" 
d="M1126 0h-1040v236l645 874h-645v256h1026v-233l-645 -877h659v-256z" />
    <glyph glyph-name="Eta" unicode="&#x397;" horiz-adv-x="1497" 
d="M1364 0h-293v573h-645v-573h-291v1366h291v-537h645v537h293v-1366z" />
    <glyph glyph-name="Theta" unicode="&#x398;" horiz-adv-x="1566" 
d="M782 233q186 0 301 127t115 322t-115 322q-115 126 -301 126t-300 -126t-114 -322q0 -195 114 -322t300 -127zM783 -25q-310 0 -512 200t-201 507q0 307 201 507q202 200 512 200t512 -199t202 -508t-202 -508t-512 -199zM1098 565h-629v256h629v-256z" />
    <glyph glyph-name="Iota" unicode="&#x399;" horiz-adv-x="561" 
d="M426 0h-291v1366h291v-1366z" />
    <glyph glyph-name="Kappa" unicode="&#x39a;" horiz-adv-x="1302" 
d="M426 0h-291v1366h291v-610l483 610h359l-543 -641l580 -725h-359l-414 547l-106 -127v-420z" />
    <glyph glyph-name="Lambda" unicode="&#x39b;" horiz-adv-x="1400" 
d="M1409 0h-332l-377 1075l-378 -1075h-332l528 1366h365z" />
    <glyph glyph-name="Mu" unicode="&#x39c;" horiz-adv-x="1751" 
d="M1616 0h-293v956l-385 -956h-127l-385 956v-956h-291v1366h408l331 -825l332 825h410v-1366z" />
    <glyph glyph-name="Nu" unicode="&#x39d;" horiz-adv-x="1492" 
d="M1358 0h-281l-651 891v-891h-291v1366h299l633 -858v858h291v-1366z" />
    <glyph glyph-name="Xi" unicode="&#x39e;" horiz-adv-x="1277" 
d="M1171 565h-1065v256h1065v-256zM1184 0h-1092v256h1092v-256zM1184 1110h-1092v256h1092v-256z" />
    <glyph glyph-name="Omicron" unicode="&#x39f;" horiz-adv-x="1566" 
d="M782 233q186 0 301 127t115 322t-115 322q-115 126 -301 126t-300 -126t-114 -322q0 -195 114 -322t300 -127zM783 -25q-310 0 -512 200t-201 507q0 307 201 507q202 200 512 200t512 -199t202 -508t-202 -508t-512 -199z" />
    <glyph glyph-name="Pi" unicode="&#x3a0;" horiz-adv-x="1497" 
d="M1364 0h-293v1110h-645v-1110h-291v1366h1229v-1366z" />
    <glyph glyph-name="Rho" unicode="&#x3a1;" horiz-adv-x="1277" 
d="M735 741q89 1 145 51t56 134t-56 134t-145 50h-309v-369h309zM426 0h-291v1366h639q215 0 337 -126t122 -313t-123 -315t-336 -127h-348v-485z" />
    <glyph glyph-name="Sigma" unicode="&#x3a3;" horiz-adv-x="1200" 
d="M1106 256v-256h-1014v256l416 440l-414 414v256h1012v-256h-647l407 -412l-422 -442h662z" />
    <glyph glyph-name="Tau" unicode="&#x3a4;" horiz-adv-x="1191" 
d="M743 0h-292v1110h-400v256h1090v-256h-398v-1110z" />
    <glyph glyph-name="Upsilon" unicode="&#x3a5;" horiz-adv-x="1320" 
d="M807 0h-291v559l-526 807h332l340 -549l335 549h332l-522 -807v-559z" />
    <glyph glyph-name="Phi" unicode="&#x3a6;" horiz-adv-x="1751" 
d="M369 682q0 -116 92 -190t268 -95v570q-176 -20 -268 -94t-92 -191zM1382 682q0 116 -93 190t-269 95v-570q176 20 269 94t93 191zM1020 0h-291v137q-313 27 -486 168t-173 375t173 376t486 171v139h291v-139q313 -29 486 -169t173 -376t-173 -377t-486 -168v-137z" />
    <glyph glyph-name="Chi" unicode="&#x3a7;" horiz-adv-x="1368" 
d="M1374 0h-348l-342 500l-344 -500h-346l495 700l-464 666h346l313 -467l309 467h350l-464 -664z" />
    <glyph glyph-name="Psi" unicode="&#x3a8;" horiz-adv-x="1773" 
d="M1034 0h-293v260q-299 30 -453 180t-153 383v543h295v-532q0 -127 79 -207t232 -105v844h293v-844q307 53 307 312v532h297v-541q0 -235 -152 -385t-452 -180v-260z" />
    <glyph glyph-name="uni03A9" unicode="&#x3a9;" horiz-adv-x="1566" 
d="M106 256h244q-280 190 -280 486t200 472q200 174 513 174q312 0 513 -174q201 -176 201 -472t-278 -486h243v-256h-553v256q129 35 209 153q80 119 80 287t-106 300t-310 132t-308 -132q-105 -132 -105 -301t80 -287t208 -152v-256h-551v256z" />
    <glyph glyph-name="Iotadieresis" unicode="&#x3aa;" horiz-adv-x="561" 
d="M203 1628q0 -57 -40 -98t-97 -41t-99 40q-41 40 -41 98t41 98t99 40t97 -40q40 -40 40 -97zM637 1628q0 -57 -41 -98t-98 -41t-99 41q-41 41 -41 98t41 97t99 40t98 -40q41 -40 41 -97zM426 0h-291v1366h291v-1366z" />
    <glyph glyph-name="Upsilondieresis" unicode="&#x3ab;" horiz-adv-x="1320" 
d="M580 1628q0 -57 -40 -98t-98 -41t-98 40q-41 40 -41 98t41 98t98 40q58 0 98 -40t40 -97zM1014 1628q0 -57 -41 -98t-99 -41t-98 41q-41 41 -41 98t41 97t98 40q56 0 98 -40t42 -97zM807 0h-291v559l-526 807h332l340 -549l335 549h332l-522 -807v-559z" />
    <glyph glyph-name="alphatonos" unicode="&#x3ac;" horiz-adv-x="1228" 
d="M584 207q66 0 129 32t96 80v349q-33 49 -96 81t-129 31q-111 0 -181 -79q-69 -79 -69 -207t70 -207q70 -80 180 -80zM807 989h264v-692q0 -43 27 -71t94 -15l16 -221q-53 -14 -118 -15q-213 0 -265 177q-49 -80 -135 -128t-186 -49q-193 1 -316 139q-122 138 -122 378
t122 380t312 142q190 0 307 -152v127zM649 1133h-114l43 434h215z" />
    <glyph glyph-name="epsilontonos" unicode="&#x3ad;" horiz-adv-x="1032" 
d="M543 -25q-219 0 -349 82t-128 215q0 102 87 166t191 70q-106 16 -183 80t-77 153q2 127 129 200t354 71q260 0 420 -164l-125 -154q-115 113 -307 113q-88 0 -143 -28t-56 -72q0 -106 203 -107h203v-201h-203q-221 0 -221 -110q0 -49 53 -78t152 -29q209 0 340 113
l121 -162q-164 -158 -461 -158zM551 1133h-115l43 434h215z" />
    <glyph glyph-name="etatonos" unicode="&#x3ae;" 
d="M1057 -377h-260v975q0 184 -183 184q-141 0 -225 -116v-666h-260v989h260v-129q129 154 346 154q160 0 241 -84t81 -232v-1075zM629 1133h-115l43 434h215z" />
    <glyph glyph-name="iotatonos" unicode="&#x3af;" horiz-adv-x="546" 
d="M408 -25q-137 0 -208 69t-71 202v743h260v-692q0 -43 23 -67t50 -24t48 5l18 -221q-52 -15 -120 -15zM309 1133h-114l43 434h215z" />
    <glyph glyph-name="upsilondieresistonos" unicode="&#x3b0;" horiz-adv-x="1181" 
d="M600 -25q-234 0 -353 127q-118 127 -118 344v543h260v-538q0 -111 53 -178t162 -67q110 0 176 90q66 89 66 234q0 225 -121 379l240 105q151 -212 151 -470t-141 -414t-375 -155zM143 1250q0 58 41 98q40 40 98 41q58 -1 98 -41t40 -98t-40 -98t-97 -40t-99 40
q-41 40 -41 98zM897 1389q57 -1 98 -41t41 -98t-41 -98t-98 -40t-98 41t-41 98t41 97t98 41zM612 1133h-116l43 434h217z" />
    <glyph glyph-name="alpha" unicode="&#x3b1;" horiz-adv-x="1228" 
d="M584 207q66 0 129 32t96 80v349q-33 49 -96 81t-129 31q-111 0 -181 -79q-69 -79 -69 -207t70 -207q70 -80 180 -80zM807 989h264v-692q0 -43 27 -71t94 -15l16 -221q-53 -14 -118 -15q-213 0 -265 177q-49 -80 -135 -128t-186 -49q-193 1 -316 139q-122 138 -122 378
t122 380t312 142q190 0 307 -152v127z" />
    <glyph glyph-name="beta" unicode="&#x3b2;" horiz-adv-x="1200" 
d="M389 -377h-260v1295q0 121 45 215t120 147q153 108 356 107q204 -1 328 -100t124 -271q0 -123 -84 -207t-203 -104q121 -13 219 -105t98 -251t-120 -267q-121 -108 -289 -107q-213 0 -334 152v-504zM389 918v-601q90 -111 246 -110q109 0 169 51t60 137t-63 134t-172 49
h-82v231h74q98 0 154 45t56 126t-55 127q-54 46 -152 46t-166 -62t-69 -173z" />
    <glyph glyph-name="gamma" unicode="&#x3b3;" horiz-adv-x="1050" 
d="M655 -377h-262v219q0 324 -120 634t-306 513h295q109 -125 195 -325t104 -363q78 119 133 317t56 371h262q0 -240 -100 -511t-257 -468v-387z" />
    <glyph glyph-name="delta" unicode="&#x3b4;" horiz-adv-x="1175" 
d="M336 468q0 -102 71 -182t189 -79q118 0 190 79t72 164t-24 136q-54 111 -289 184q-101 -41 -155 -120q-54 -80 -54 -182zM1112 465q0 -201 -138 -345t-378 -145q-240 1 -385 147t-145 353q0 135 64 237q65 101 169 156q-117 76 -117 209t109 223t317 90t375 -135
l-102 -184q-113 113 -293 113q-70 0 -113 -27t-43 -65t50 -63q50 -26 126 -42t164 -53t164 -87q76 -49 126 -149t50 -233z" />
    <glyph glyph-name="epsilon" unicode="&#x3b5;" horiz-adv-x="1032" 
d="M543 -25q-219 0 -349 82t-128 215q0 102 87 166t191 70q-106 16 -183 80t-77 153q2 127 129 200t354 71q260 0 420 -164l-125 -154q-115 113 -307 113q-88 0 -143 -28t-56 -72q0 -106 203 -107h203v-201h-203q-221 0 -221 -110q0 -49 53 -78t152 -29q209 0 340 113
l121 -162q-164 -158 -461 -158z" />
    <glyph glyph-name="zeta" unicode="&#x3b6;" horiz-adv-x="995" 
d="M334 453q0 -246 310 -246q152 0 222 -52t70 -168t-109 -309h-276q41 55 79 132t38 121t-68 44q-244 0 -389 123t-145 335t136 395t376 311h-480v227h817v-188q-253 -138 -417 -330t-164 -395z" />
    <glyph glyph-name="eta" unicode="&#x3b7;" 
d="M1057 -377h-260v975q0 184 -183 184q-141 0 -225 -116v-666h-260v989h260v-129q129 154 346 154q160 0 241 -84t81 -232v-1075z" />
    <glyph glyph-name="theta" unicode="&#x3b8;" horiz-adv-x="1175" 
d="M588 1159q-221 0 -248 -358h498q-29 358 -250 358zM588 207q221 0 250 364h-498q27 -364 248 -364zM588 -25q-246 0 -384 204t-138 506t138 504t384 202q166 1 286 -97q238 -192 238 -610q0 -301 -139 -505t-385 -204z" />
    <glyph glyph-name="iota" unicode="&#x3b9;" horiz-adv-x="546" 
d="M408 -25q-137 0 -208 69t-71 202v743h260v-692q0 -43 23 -67t50 -24t48 5l18 -221q-52 -15 -120 -15z" />
    <glyph glyph-name="kappa" unicode="&#x3ba;" horiz-adv-x="1095" 
d="M389 0h-260v989h260v-440l375 440h319l-391 -448l404 -541h-326l-262 381l-119 -127v-254z" />
    <glyph glyph-name="lambda" unicode="&#x3bb;" horiz-adv-x="1050" 
d="M215 1159q-47 0 -82 -18l-39 233q53 16 129 17q139 -5 231 -57t144 -183l465 -1151h-281l-258 688l-258 -688h-278l401 1001l-37 84q-33 74 -137 74z" />
    <glyph glyph-name="uni03BC" unicode="&#x3bc;" horiz-adv-x="1214" 
d="M389 -377h-260v1366h260v-600q0 -184 184 -184q133 0 224 114v670h260v-692q1 -43 23 -67t50 -24t48 5l18 -221q-53 -14 -121 -15q-213 0 -266 177q-45 -78 -118 -127t-166 -49t-136 57v-410z" />
    <glyph glyph-name="nu" unicode="&#x3bd;" horiz-adv-x="1050" 
d="M1012 989q0 -244 -104 -518t-261 -471h-262l-397 989h278l271 -729q98 150 155 348t58 381h262z" />
    <glyph glyph-name="xi" unicode="&#x3be;" horiz-adv-x="995" 
d="M336 396q0 -188 306 -189q152 0 224 -52q70 -52 70 -168t-109 -309h-276q41 54 79 132t38 122t-68 43q-258 1 -396 99t-138 268q0 125 71 202q72 77 176 107q-89 15 -157 75t-68 150t55 160t142 103h-176v227h798v-227h-389q-72 -19 -116 -67t-44 -116t66 -110
q66 -41 174 -41h299v-223h-299q-122 0 -192 -47t-70 -139z" />
    <glyph glyph-name="omicron" unicode="&#x3bf;" horiz-adv-x="1175" 
d="M588 207q118 0 186 83t68 205q0 123 -69 205t-185 82t-185 -83q-67 -83 -67 -205t68 -204q68 -83 184 -83zM588 -25q-238 0 -380 151t-142 370q0 218 142 368t380 150t381 -150t143 -368t-143 -370q-143 -151 -381 -151z" />
    <glyph glyph-name="pi" unicode="&#x3c0;" horiz-adv-x="1292" 
d="M1112 0h-262v762h-408v-762h-262v762h-164v227h1260v-227h-164v-762z" />
    <glyph glyph-name="rho" unicode="&#x3c1;" horiz-adv-x="1193" 
d="M612 207q113 0 182 80q68 80 68 205q0 126 -63 208t-173 82t-173 -83t-64 -203v-177q33 -47 97 -79t126 -33zM698 -25q-190 0 -309 152v-504h-260v873q0 218 136 368q137 150 365 150t365 -150t137 -380t-121 -370q-123 -140 -313 -139z" />
    <glyph glyph-name="sigma1" unicode="&#x3c2;" horiz-adv-x="1007" 
d="M618 -25q-246 -1 -400 141t-152 374q0 232 147 378t393 146t375 -178l-170 -160q-72 106 -200 106q-129 0 -203 -79t-74 -213t82 -208q82 -75 215 -75q319 0 319 -215q0 -121 -108 -314h-273q117 166 117 252q0 45 -68 45z" />
    <glyph glyph-name="sigma" unicode="&#x3c3;" horiz-adv-x="1175" 
d="M842 489q0 180 -144 269h-96q-126 0 -196 -78t-70 -192t68 -198q68 -83 184 -83q118 1 186 83t68 199zM1090 440q0 -200 -134 -332t-370 -132t-378 150q-142 151 -142 367t144 356t392 140h533v-231h-185q140 -119 140 -318z" />
    <glyph glyph-name="tau" unicode="&#x3c4;" horiz-adv-x="987" 
d="M646 -25q-140 0 -212 70t-72 201v516h-319v227h901v-227h-321v-447q1 -47 25 -77t77 -31q53 0 78 29l55 -197q-72 -64 -212 -64z" />
    <glyph glyph-name="upsilon" unicode="&#x3c5;" horiz-adv-x="1181" 
d="M600 -25q-234 0 -353 127q-118 127 -118 344v543h260v-538q0 -111 53 -178t162 -67q110 0 176 90q66 89 66 234q0 225 -121 379l240 105q151 -212 151 -470t-141 -414t-375 -155z" />
    <glyph glyph-name="phi" unicode="&#x3c6;" horiz-adv-x="1628" 
d="M1292 496q0 122 -93 196t-255 84v-563q348 37 348 283zM813 1014q371 0 561 -137t189 -371q0 -234 -157 -368t-462 -156v-359h-260v359q-307 24 -463 162t-155 380q0 328 380 490l109 -203q-107 -45 -163 -121t-56 -166q0 -274 348 -311v801h129z" />
    <glyph glyph-name="chi" unicode="&#x3c7;" horiz-adv-x="1032" 
d="M1032 -377h-289l-227 459l-231 -459h-285l350 703l-330 663h287l209 -420l205 420h289l-332 -663z" />
    <glyph glyph-name="psi" unicode="&#x3c8;" horiz-adv-x="1628" 
d="M944 -377h-260v359q-276 27 -416 158q-139 132 -139 352v497h260v-497q0 -115 77 -185t218 -92v1151h260v-1151q139 23 217 93t78 184v497h260v-497q0 -216 -140 -350t-415 -160v-359z" />
    <glyph glyph-name="omega" unicode="&#x3c9;" horiz-adv-x="1744" 
d="M1679 496q-1 -219 -119 -370t-317 -151q-262 0 -371 281q-109 -281 -370 -281q-199 0 -318 151t-118 370q0 330 213 518l196 -148q-139 -145 -139 -370q0 -123 53 -206t149 -83t149 83q54 83 54 206v249h263v-249q0 -123 54 -206t148 -83t149 83q54 83 54 206
q0 223 -141 370l198 148q213 -188 213 -518z" />
    <glyph glyph-name="iotadieresis" unicode="&#x3ca;" horiz-adv-x="546" 
d="M408 -25q-137 0 -208 69t-71 202v743h260v-692q0 -43 23 -67t50 -24t48 5l18 -221q-52 -15 -120 -15zM195 1251q0 -57 -40 -98q-39 -41 -97 -41t-99 40t-41 98t41 98t98 41q57 0 98 -40q40 -41 40 -98zM629 1251q0 -57 -41 -98q-40 -41 -98 -41t-99 41t-41 98t41 97
t98 41q57 0 99 -40q41 -41 41 -98z" />
    <glyph glyph-name="upsilondieresis" unicode="&#x3cb;" horiz-adv-x="1181" 
d="M600 -25q-234 0 -353 127q-118 127 -118 344v543h260v-538q0 -111 53 -178t162 -67q110 0 176 90q66 89 66 234q0 225 -121 379l240 105q151 -212 151 -470t-141 -414t-375 -155zM510 1251q0 -57 -40 -98t-97 -41t-99 40q-41 40 -41 98t41 98q40 40 98 41q58 -1 98 -41
t40 -97zM944 1251q0 -57 -41 -98t-98 -41t-98 41t-41 98t41 97t98 41q57 -1 98 -41t41 -97z" />
    <glyph glyph-name="omicrontonos" unicode="&#x3cc;" horiz-adv-x="1175" 
d="M588 207q118 0 186 83t68 205q0 123 -69 205t-185 82t-185 -83q-67 -83 -67 -205t68 -204q68 -83 184 -83zM588 -25q-238 0 -380 151t-142 370q0 218 142 368t380 150t381 -150t143 -368t-143 -370q-143 -151 -381 -151zM623 1133h-115l43 434h215z" />
    <glyph glyph-name="upsilontonos" unicode="&#x3cd;" horiz-adv-x="1181" 
d="M600 -25q-234 0 -353 127q-118 127 -118 344v543h260v-538q0 -111 53 -178t162 -67q110 0 176 90q66 89 66 234q0 225 -121 379l240 105q151 -212 151 -470t-141 -414t-375 -155zM627 1133h-115l43 434h215z" />
    <glyph glyph-name="omegatonos" unicode="&#x3ce;" horiz-adv-x="1744" 
d="M1679 496q-1 -219 -119 -370t-317 -151q-262 0 -371 281q-109 -281 -370 -281q-199 0 -318 151t-118 370q0 330 213 518l196 -148q-139 -145 -139 -370q0 -123 53 -206t149 -83t149 83q54 83 54 206v249h263v-249q0 -123 54 -206t148 -83t149 83q54 83 54 206
q0 223 -141 370l198 148q213 -188 213 -518zM907 1133h-114l43 434h215z" />
    <glyph glyph-name="afii10023" unicode="&#x401;" horiz-adv-x="1193" 
d="M1102 0h-967v1366h967v-256h-676v-289h661v-256h-661v-309h676v-256zM539 1593q0 -57 -40 -98q-39 -41 -97 -41t-99 41t-41 98t41 97t98 41q57 0 98 -40q40 -41 40 -98zM973 1593q0 -57 -41 -98t-98 -41t-99 41q-41 41 -41 98t41 97t99 41q58 -1 98 -41q41 -40 41 -97z
" />
    <glyph glyph-name="afii10051" unicode="&#x402;" horiz-adv-x="1589" 
d="M1053 -25v252q92 0 145 47t53 127v17q0 92 -65 142q-66 50 -195 50t-248 -45v-565h-292v1110h-400v256h1090v-256h-398v-289q145 45 293 45q250 0 380 -126t130 -322v-17q0 -201 -138 -313t-355 -113z" />
    <glyph glyph-name="afii10052" unicode="&#x403;" horiz-adv-x="1169" 
d="M426 0h-291v1366h967v-256h-676v-1110zM975 1776l-332 -295h-182l274 295h240z" />
    <glyph glyph-name="afii10053" unicode="&#x404;" horiz-adv-x="1406" 
d="M797 -25q-311 0 -519 198t-208 509t208 509t519 198q383 0 571 -334l-250 -123q-45 86 -133 142t-192 56q-152 0 -261 -84t-147 -225h649v-256h-653q33 -151 143 -241t269 -91q106 -1 193 55t132 144l250 -121q-194 -336 -571 -336z" />
    <glyph glyph-name="afii10054" unicode="&#x405;" horiz-adv-x="1228" 
d="M621 -25q-365 0 -578 218l158 221q176 -184 434 -185q113 0 175 44q62 43 62 103t-58 97t-145 53t-189 47t-190 70q-87 39 -146 123q-58 84 -58 205q0 176 141 296t377 119q326 0 533 -190l-162 -213q-162 150 -397 150q-92 0 -144 -37q-52 -38 -51 -94q0 -103 197 -139
t384 -121q87 -40 145 -125t58 -203q0 -197 -140 -318t-406 -121z" />
    <glyph glyph-name="afii10055" unicode="&#x406;" horiz-adv-x="561" 
d="M426 0h-291v1366h291v-1366z" />
    <glyph glyph-name="afii10056" unicode="&#x407;" horiz-adv-x="561" 
d="M203 1593q0 -57 -40 -98t-97 -41t-99 41q-41 41 -41 98t41 97t99 41q58 -1 97 -41q40 -40 40 -97zM637 1593q0 -57 -41 -98t-98 -41t-99 41q-41 41 -41 98t41 97t99 41q58 -1 98 -41q41 -40 41 -97zM426 0h-291v1366h291v-1366z" />
    <glyph glyph-name="afii10057" unicode="&#x408;" horiz-adv-x="995" 
d="M860 449q0 -233 -131 -353t-356 -121q-225 0 -361 134l127 223q101 -98 207 -98t164 58q58 60 59 161v913h291v-917z" />
    <glyph glyph-name="afii10058" unicode="&#x409;" horiz-adv-x="2213" 
d="M1671 625h-307v-369h307q88 0 145 50q56 50 56 134t-56 134t-145 51zM53 -25v258q111 -1 170 89t90 346l80 698h971v-485h346q213 0 337 -127q124 -126 124 -314t-123 -314t-338 -126h-639v1110h-416l-53 -463q-50 -412 -195 -549q-75 -70 -157 -96t-197 -27z" />
    <glyph glyph-name="afii10059" unicode="&#x40a;" horiz-adv-x="2213" 
d="M1364 256h336q76 0 124 44t48 116t-48 114t-124 43h-336v-317zM135 0v1366h291v-537h645v537h293v-537h373q201 -1 317 -119t117 -295q0 -177 -116 -296t-318 -119h-666v573h-645v-573h-291z" />
    <glyph glyph-name="afii10060" unicode="&#x40b;" horiz-adv-x="1652" 
d="M1251 0v362q0 248 -250 248q-139 0 -258 -45v-565h-292v1110h-400v256h1090v-256h-398v-289q145 45 293 45q254 0 382 -135t128 -369v-362h-295z" />
    <glyph glyph-name="afii10061" unicode="&#x40c;" horiz-adv-x="1302" 
d="M426 0h-291v1366h291v-610l483 610h359l-543 -641l580 -725h-359l-414 547l-106 -127v-420zM1051 1776l-332 -295h-182l274 295h240z" />
    <glyph glyph-name="afii10062" unicode="&#x40e;" horiz-adv-x="1320" 
d="M663 1430q-224 0 -362 180l115 96q90 -127 244 -127t245 127l115 -96q-133 -180 -357 -180zM319 -25q-92 0 -177 28t-132 71l111 233q90 -74 170 -74t122 32t83 110l-504 991h330l337 -725l340 725h330l-563 -1104q-70 -139 -174 -213t-273 -74z" />
    <glyph glyph-name="afii10145" unicode="&#x40f;" horiz-adv-x="1497" 
d="M135 0v1366h291v-1110h645v1110h293v-1366h-469v-260h-291v260h-469z" />
    <glyph glyph-name="afii10017" unicode="&#x410;" horiz-adv-x="1400" 
d="M913 487l-213 588l-213 -588h426zM1409 0h-332l-84 231h-585l-86 -231h-332l528 1366h365z" />
    <glyph glyph-name="afii10018" unicode="&#x411;" horiz-adv-x="1277" 
d="M741 612h-315v-356h315q86 0 141 49q54 49 54 130t-54 129q-55 48 -141 48zM135 1366h998v-256h-707v-242h354q211 0 332 -125t121 -309t-121 -309t-332 -125h-645v1366z" />
    <glyph glyph-name="afii10019" unicode="&#x412;" horiz-adv-x="1357" 
d="M801 252q82 0 129 42t47 113t-47 117t-129 45h-375v-317h375zM791 819q75 0 117 41t42 107q0 65 -44 107t-115 42h-365v-297h365zM877 0h-742v1366h719q186 0 290 -101t103 -237q1 -136 -67 -219q-68 -84 -168 -104q110 -17 186 -113t76 -240t-104 -248t-293 -104z" />
    <glyph glyph-name="afii10020" unicode="&#x413;" horiz-adv-x="1169" 
d="M426 0h-291v1366h967v-256h-676v-1110z" />
    <glyph glyph-name="afii10021" unicode="&#x414;" horiz-adv-x="1521" 
d="M1071 256v854h-416l-53 -463q-29 -264 -166 -391h635zM53 -252v485q78 10 122 41q101 71 138 394l80 698h971v-1110h123v-508h-291v252h-852v-252h-291z" />
    <glyph glyph-name="afii10022" unicode="&#x415;" horiz-adv-x="1193" 
d="M1102 0h-967v1366h967v-256h-676v-289h661v-256h-661v-309h676v-256z" />
    <glyph glyph-name="afii10024" unicode="&#x416;" horiz-adv-x="1947" 
d="M827 1366h293v-549l432 549h361l-543 -641l578 -725h-357l-413 547l-58 -70v-477h-293v477l-57 70l-414 -547h-356l578 725l-543 641h358l434 -549v549z" />
    <glyph glyph-name="afii10025" unicode="&#x417;" horiz-adv-x="1249" 
d="M604 -25q-182 -1 -334 61t-229 159l152 194q67 -72 181 -114t232 -42q118 1 195 49q76 48 76 126q0 158 -302 157h-276v256h276q127 0 203 37t76 112q0 74 -78 116t-201 42q-223 0 -370 -141l-146 182q87 97 229 157t316 60q242 0 392 -100t149 -270q0 -123 -88 -206
t-209 -105q119 -11 218 -99t99 -229q1 -176 -157 -289t-404 -113z" />
    <glyph glyph-name="afii10026" unicode="&#x418;" horiz-adv-x="1492" 
d="M135 0v1366h291v-883l633 883h299v-1366h-291v915l-651 -915h-281z" />
    <glyph glyph-name="afii10027" unicode="&#x419;" horiz-adv-x="1492" 
d="M749 1430q-224 0 -362 180l115 96q90 -127 244 -127t245 127l115 -96q-133 -180 -357 -180zM135 0v1366h291v-883l633 883h299v-1366h-291v915l-651 -915h-281z" />
    <glyph glyph-name="afii10028" unicode="&#x41a;" horiz-adv-x="1302" 
d="M426 0h-291v1366h291v-610l483 610h359l-543 -641l580 -725h-359l-414 547l-106 -127v-420z" />
    <glyph glyph-name="afii10029" unicode="&#x41b;" horiz-adv-x="1497" 
d="M53 -25v258q111 -1 170 89t90 346l80 698h971v-1366h-293v1110h-416l-53 -463q-50 -412 -195 -549q-75 -70 -157 -96t-197 -27z" />
    <glyph glyph-name="afii10030" unicode="&#x41c;" horiz-adv-x="1751" 
d="M1616 0h-293v956l-385 -956h-127l-385 956v-956h-291v1366h408l331 -825l332 825h410v-1366z" />
    <glyph glyph-name="afii10031" unicode="&#x41d;" horiz-adv-x="1497" 
d="M1364 0h-293v573h-645v-573h-291v1366h291v-537h645v537h293v-1366z" />
    <glyph glyph-name="afii10032" unicode="&#x41e;" horiz-adv-x="1566" 
d="M782 233q186 0 301 127t115 322t-115 322q-115 126 -301 126t-300 -126t-114 -322q0 -195 114 -322t300 -127zM783 -25q-310 0 -512 200t-201 507q0 307 201 507q202 200 512 200t512 -199t202 -508t-202 -508t-512 -199z" />
    <glyph glyph-name="afii10033" unicode="&#x41f;" horiz-adv-x="1497" 
d="M1364 0h-293v1110h-645v-1110h-291v1366h1229v-1366z" />
    <glyph glyph-name="afii10034" unicode="&#x420;" horiz-adv-x="1277" 
d="M735 741q89 1 145 51t56 134t-56 134t-145 50h-309v-369h309zM426 0h-291v1366h639q215 0 337 -126t122 -313t-123 -315t-336 -127h-348v-485z" />
    <glyph glyph-name="afii10035" unicode="&#x421;" horiz-adv-x="1406" 
d="M797 -25q-311 0 -519 198t-208 509t208 509t519 198q383 0 571 -334l-250 -123q-45 86 -132 142t-189 56q-186 0 -308 -126q-121 -127 -121 -322t122 -322q120 -127 307 -127q102 -1 189 55t132 144l250 -121q-194 -336 -571 -336z" />
    <glyph glyph-name="afii10036" unicode="&#x422;" horiz-adv-x="1191" 
d="M743 0h-292v1110h-400v256h1090v-256h-398v-1110z" />
    <glyph glyph-name="afii10037" unicode="&#x423;" horiz-adv-x="1320" 
d="M319 -25q-92 0 -177 28t-132 71l111 233q90 -74 170 -74t122 32t83 110l-504 991h330l337 -725l340 725h330l-563 -1104q-70 -139 -174 -213t-273 -74z" />
    <glyph glyph-name="afii10038" unicode="&#x424;" horiz-adv-x="1751" 
d="M369 682q0 -116 92 -190t268 -95v570q-176 -20 -268 -94t-92 -191zM1382 682q0 116 -93 190t-269 95v-570q176 20 269 94t93 191zM1020 0h-291v137q-313 27 -486 168t-173 375t173 376t486 171v139h291v-139q313 -29 486 -169t173 -376t-173 -377t-486 -168v-137z" />
    <glyph glyph-name="afii10039" unicode="&#x425;" horiz-adv-x="1368" 
d="M1374 0h-348l-342 500l-344 -500h-346l495 700l-464 666h346l313 -467l309 467h350l-464 -664z" />
    <glyph glyph-name="afii10040" unicode="&#x426;" horiz-adv-x="1521" 
d="M1196 -252v252h-1061v1366h291v-1110h645v1110h293v-1110h123v-508h-291z" />
    <glyph glyph-name="afii10041" unicode="&#x427;" horiz-adv-x="1329" 
d="M393 1366v-383q0 -248 250 -248q147 0 260 45v586h291v-1366h-291v524q-150 -45 -295 -45q-254 0 -381 134t-127 370v383h293z" />
    <glyph glyph-name="afii10042" unicode="&#x428;" horiz-adv-x="2013" 
d="M1585 1366h293v-1366h-1743v1366h291v-1110h434v1110h293v-1110h432v1110z" />
    <glyph glyph-name="afii10043" unicode="&#x429;" horiz-adv-x="2035" 
d="M1585 1366h293v-1110h125v-508h-293v252h-1575v1366h291v-1110h434v1110h293v-1110h432v1110z" />
    <glyph glyph-name="afii10044" unicode="&#x42a;" horiz-adv-x="1593" 
d="M1051 625h-308v-369h308q88 0 144 50t56 134t-56 134t-144 51zM1090 0h-639v1110h-400v256h692v-485h347q212 0 336 -127q124 -126 124 -314t-122 -314t-338 -126z" />
    <glyph glyph-name="afii10045" unicode="&#x42b;" horiz-adv-x="1775" 
d="M1640 0h-292v1366h292v-1366zM735 625h-309v-369h309q88 0 145 50q56 50 56 134t-56 134t-145 51zM135 1366h291v-485h348q213 0 336 -127q123 -126 123 -314t-122 -314t-337 -126h-639v1366z" />
    <glyph glyph-name="afii10046" unicode="&#x42c;" horiz-adv-x="1277" 
d="M735 625h-309v-369h309q88 0 145 50q56 50 56 134t-56 134t-145 51zM135 1366h291v-485h348q213 0 336 -127q123 -126 123 -314t-122 -314t-337 -126h-639v1366z" />
    <glyph glyph-name="afii10047" unicode="&#x42d;" horiz-adv-x="1406" 
d="M608 -25q-379 0 -569 336l250 121q45 -88 132 -143t193 -56q156 -1 267 91t145 241h-655v256h649q-39 141 -148 225t-258 84q-104 0 -192 -56t-133 -142l-250 123q188 334 569 334q313 0 520 -198t207 -509t-207 -509t-520 -198z" />
    <glyph glyph-name="afii10048" unicode="&#x42e;" horiz-adv-x="2136" 
d="M1352 233q186 0 301 127t114 322q0 195 -114 322q-115 126 -302 126t-301 -126t-114 -322q0 -195 115 -322t301 -127zM1367 -25q-297 0 -491 166t-231 432h-219v-573h-291v1366h291v-537h225q47 250 239 405t462 155q311 0 512 -199q200 -199 200 -508t-200 -508
t-497 -199z" />
    <glyph glyph-name="afii10049" unicode="&#x42f;" horiz-adv-x="1316" 
d="M586 741h305v369h-305q-90 0 -148 -50t-57 -134q-1 -84 57 -134t148 -51zM84 939q0 183 124 305t335 122h639v-1366h-291v485h-211l-270 -485h-334l307 520q-125 29 -212 133t-87 286z" />
    <glyph glyph-name="afii10065" unicode="&#x430;" horiz-adv-x="1112" 
d="M514 152q145 0 209 86v122q-63 86 -209 86q-80 0 -133 -40t-53 -108q0 -70 53 -108t133 -38zM983 0h-260v102q-106 -127 -313 -127q-133 0 -239 87q-105 87 -105 244t103 237t241 80q211 0 313 -121v133q0 76 -59 121t-158 45q-162 0 -289 -117l-98 174q176 156 432 156
q190 0 311 -88t121 -287v-639z" />
    <glyph glyph-name="afii10066" unicode="&#x431;" horiz-adv-x="1181" 
d="M586 -25q-240 0 -380 159t-140 407q0 354 127 530t387 211q223 33 223 84h270q0 -215 -411 -266q-309 -41 -357 -248q123 162 334 162t341 -152t130 -368t-142 -367q-142 -152 -382 -152zM588 207q118 0 186 84t68 205q0 122 -69 204t-185 82t-185 -82q-67 -82 -67 -204
t68 -205q68 -84 184 -84z" />
    <glyph glyph-name="afii10067" unicode="&#x432;" horiz-adv-x="1200" 
d="M702 610q41 0 67 24t26 60t-25 59q-25 24 -68 23h-313v-166h313zM711 213q47 0 75 25q28 26 27 66q0 40 -28 67t-74 26h-322v-184h322zM774 0h-645v989h627q143 0 223 -74t80 -170t-47 -155t-121 -80q82 -18 135 -86t53 -170t-81 -178t-224 -76z" />
    <glyph glyph-name="afii10068" unicode="&#x433;" horiz-adv-x="929" 
d="M893 989v-227h-504v-762h-260v989h764z" />
    <glyph glyph-name="afii10069" unicode="&#x434;" horiz-adv-x="1202" 
d="M799 227v535h-314l-30 -268q-20 -178 -115 -267h459zM37 -252v469q45 8 71 30q62 52 87 263l63 479h801v-762h108v-479h-260v252h-608v-252h-262z" />
    <glyph glyph-name="afii10070" unicode="&#x435;" horiz-adv-x="1132" 
d="M581 807q-114 0 -175 -67t-72 -152h487q-6 84 -66 152t-174 67zM608 -25q-244 -1 -393 143t-149 370t144 376t366 150t360 -151q137 -151 137 -394v-57h-735q12 -98 88 -164t197 -66q67 0 143 27t121 72l114 -168q-149 -138 -393 -138z" />
    <glyph glyph-name="afii10072" unicode="&#x436;" horiz-adv-x="1536" 
d="M637 989h262v-358l303 358h320l-389 -448l401 -541h-324l-264 381l-47 -51v-330h-262v330l-47 51l-264 -381h-324l401 541l-389 448h320l303 -358v358z" />
    <glyph glyph-name="afii10073" unicode="&#x437;" horiz-adv-x="1032" 
d="M489 -25q-299 0 -460 158l118 162q133 -113 342 -113q98 0 152 29q53 29 53 78q0 111 -221 110h-203v201h203q203 0 203 107q0 45 -55 73t-144 27q-193 0 -307 -113l-127 154q165 164 407 165t369 -72t127 -200q0 -90 -76 -153t-182 -80q104 -6 192 -70t87 -166
q1 -133 -129 -215t-349 -82z" />
    <glyph glyph-name="afii10074" unicode="&#x438;" horiz-adv-x="1187" 
d="M129 0v989h260v-598l408 598h262v-989h-260v621l-420 -621h-250z" />
    <glyph glyph-name="afii10075" unicode="&#x439;" horiz-adv-x="1187" 
d="M592 1237q154 0 246 127l114 -96q-133 -180 -357 -180t-362 180l115 96q90 -127 244 -127zM129 0v989h260v-598l408 598h262v-989h-260v621l-420 -621h-250z" />
    <glyph glyph-name="afii10076" unicode="&#x43a;" horiz-adv-x="1095" 
d="M389 0h-260v989h260v-440l375 440h319l-391 -448l404 -541h-326l-262 381l-119 -127v-254z" />
    <glyph glyph-name="afii10077" unicode="&#x43b;" horiz-adv-x="1187" 
d="M37 -25v213q61 0 98 73t60 249l63 479h801v-989h-260v762h-314l-32 -283q-31 -260 -131 -382t-285 -122z" />
    <glyph glyph-name="afii10078" unicode="&#x43c;" horiz-adv-x="1427" 
d="M1298 0h-260v643l-264 -643h-119l-266 643v-643h-260v989h342l244 -590l239 590h344v-989z" />
    <glyph glyph-name="afii10079" unicode="&#x43d;" horiz-adv-x="1187" 
d="M389 0h-260v989h260v-366h410v366h260v-989h-260v395h-410v-395z" />
    <glyph glyph-name="afii10080" unicode="&#x43e;" horiz-adv-x="1175" 
d="M588 207q118 0 186 83t68 205q0 123 -69 205t-185 82t-185 -83q-67 -83 -67 -205t68 -204q68 -83 184 -83zM588 -25q-238 0 -380 151t-142 370q0 218 142 368t380 150t381 -150t143 -368t-143 -370q-143 -151 -381 -151z" />
    <glyph glyph-name="afii10081" unicode="&#x43f;" horiz-adv-x="1187" 
d="M1059 0h-260v762h-410v-762h-260v989h930v-989z" />
    <glyph glyph-name="afii10082" unicode="&#x440;" horiz-adv-x="1193" 
d="M612 207q113 0 182 80q68 80 68 208q0 127 -68 207t-182 80q-62 0 -126 -32t-97 -80v-351q33 -47 97 -79t126 -33zM1133 496q0 -242 -122 -382q-123 -140 -313 -139q-190 0 -309 152v-504h-260v1366h260v-125q117 150 309 150t313 -138q122 -138 122 -380z" />
    <glyph glyph-name="afii10083" unicode="&#x441;" horiz-adv-x="1021" 
d="M590 -25q-228 -1 -376 145t-148 374t147 374t393 146t375 -178l-170 -160q-72 106 -200 106q-129 0 -203 -79t-74 -207t75 -209q75 -80 201 -80t201 106l170 -157q-129 -181 -391 -181z" />
    <glyph glyph-name="afii10084" unicode="&#x442;" horiz-adv-x="884" 
d="M573 0h-262v762h-276v227h815v-227h-277v-762z" />
    <glyph glyph-name="afii10085" unicode="&#x443;" horiz-adv-x="1050" 
d="M215 -170q104 0 137 72l37 84l-401 1003h278l258 -688l258 688h281l-465 -1151q-90 -232 -341 -237q-106 -2 -163 12l39 233q37 -16 82 -16z" />
    <glyph glyph-name="afii10086" unicode="&#x444;" horiz-adv-x="1722" 
d="M1169 207q90 0 146 80q55 80 55 208q0 127 -55 207t-146 80q-49 0 -100 -32t-78 -80v-351q27 -47 78 -79t100 -33zM551 782q-88 0 -144 -80q-57 -80 -57 -208t56 -207q56 -80 145 -80q51 0 101 33t79 79v351q-27 48 -79 80t-101 32zM462 1014q163 0 269 -152v504h260
v-502q102 150 267 150q164 0 270 -138t106 -380t-105 -381t-271 -139t-267 151v-504h-260v504q-100 -152 -266 -152q-166 1 -271 139t-106 380q0 242 106 381t268 139z" />
    <glyph glyph-name="afii10087" unicode="&#x445;" horiz-adv-x="1032" 
d="M1032 0h-291l-225 334l-227 -334h-289l350 508l-330 481h291l205 -305l203 305h291l-332 -481z" />
    <glyph glyph-name="afii10088" unicode="&#x446;" horiz-adv-x="1202" 
d="M907 -252v252h-778v989h260v-762h410v762h260v-762h108v-479h-260z" />
    <glyph glyph-name="afii10089" unicode="&#x447;" horiz-adv-x="1155" 
d="M98 989h260v-268q0 -100 52 -142t164 -42q114 0 192 38v414h262v-989h-262v367q-114 -61 -302 -61q-366 -1 -366 325v358z" />
    <glyph glyph-name="afii10090" unicode="&#x448;" horiz-adv-x="1685" 
d="M1294 989h262v-989h-1427v989h260v-762h324v762h260v-762h321v762z" />
    <glyph glyph-name="afii10091" unicode="&#x449;" horiz-adv-x="1712" 
d="M1294 989h262v-762h123v-479h-262v252h-1288v989h260v-762h324v762h260v-762h321v762z" />
    <glyph glyph-name="afii10092" unicode="&#x44a;" horiz-adv-x="1316" 
d="M872 432h-299v-213h299q53 0 85 30t32 77q0 46 -32 76t-85 30zM911 0h-600v762h-276v227h538v-340h338q164 0 254 -92t90 -230q0 -139 -92 -233t-252 -94z" />
    <glyph glyph-name="afii10093" unicode="&#x44b;" horiz-adv-x="1589" 
d="M1462 0h-262v989h262v-989zM688 432h-299v-213h299q53 0 85 30t32 77q0 46 -32 76t-85 30zM129 989h260v-340h338q164 0 254 -92t90 -230q0 -139 -92 -233t-252 -94h-598v989z" />
    <glyph glyph-name="afii10094" unicode="&#x44c;" horiz-adv-x="1132" 
d="M688 432h-299v-213h299q53 0 85 30t32 77q0 46 -32 76t-85 30zM129 989h260v-340h338q164 0 254 -92t90 -230q0 -139 -92 -233t-252 -94h-598v989z" />
    <glyph glyph-name="afii10095" unicode="&#x44d;" horiz-adv-x="1021" 
d="M432 -25q-266 0 -391 181l160 143q82 -117 215 -117q98 0 168 56t92 159h-400v201h398q-23 100 -91 155q-69 54 -167 54q-133 0 -215 -115l-160 144q125 178 391 178q228 0 376 -146t148 -372q0 -227 -148 -374t-376 -147z" />
    <glyph glyph-name="afii10096" unicode="&#x44e;" horiz-adv-x="1656" 
d="M1068 207q118 0 186 83t67 205q0 123 -68 205q-67 82 -185 82t-186 -83t-67 -205q-1 -122 67 -204q68 -83 186 -83zM1082 -25q-222 0 -359 118t-170 302h-164v-395h-260v989h260v-366h170q39 171 174 281t334 110q238 0 381 -150t143 -368t-143 -370q-144 -151 -366 -151
z" />
    <glyph glyph-name="afii10097" unicode="&#x44f;" horiz-adv-x="1173" 
d="M489 557h299v213h-299q-53 0 -86 -29t-33 -77t32 -77q32 -30 87 -30zM449 989h600v-989h-261v340h-202l-195 -340h-295l230 358q-92 23 -156 103t-64 211t92 224t251 93z" />
    <glyph glyph-name="afii10071" unicode="&#x451;" horiz-adv-x="1132" 
d="M581 807q-114 0 -175 -67t-72 -152h487q-6 84 -66 152t-174 67zM608 -25q-244 -1 -393 143t-149 370t144 376t366 150t360 -151q137 -151 137 -394v-57h-735q12 -98 88 -164t197 -66q67 0 143 27t121 72l114 -168q-149 -138 -393 -138zM502 1251q0 -57 -40 -98t-97 -41
t-99 40q-41 40 -41 98t41 98q40 40 98 41q58 -1 98 -41t40 -97zM936 1251q0 -57 -41 -98t-98 -41t-99 41q-41 41 -41 98t41 97q40 40 98 41q58 -1 99 -41t41 -97z" />
    <glyph glyph-name="afii10099" unicode="&#x452;" horiz-adv-x="1196" 
d="M696 1081h-299v-221q53 62 145 108t203 46q160 0 241 -82t81 -230v-729q0 -174 -89 -274t-263 -100q-91 0 -141 15t-107 54l72 195q61 -51 127 -51t104 41q37 41 37 120v629q0 180 -184 180q-137 0 -226 -116v-666h-260v1081h-121v150h121v135h260v-135h299v-150z" />
    <glyph glyph-name="afii10100" unicode="&#x453;" horiz-adv-x="929" 
d="M893 989v-227h-504v-762h-260v989h764zM897 1434l-332 -295h-182l274 295h240z" />
    <glyph glyph-name="afii10101" unicode="&#x454;" horiz-adv-x="1021" 
d="M590 -25q-228 -1 -376 145t-148 374t147 374t393 146t375 -178l-160 -144q-82 115 -217 115q-98 0 -167 -55t-93 -154h399v-201h-399q22 -102 92 -158t168 -57q135 0 217 117l160 -143q-129 -181 -391 -181z" />
    <glyph glyph-name="afii10102" unicode="&#x455;" horiz-adv-x="976" 
d="M485 -25q-129 0 -247 41t-195 113l113 182q57 -53 155 -94q97 -41 183 -41t128 29t42 72t-44 67t-109 33q-65 11 -141 31t-142 49q-64 29 -108 91t-44 154q0 131 108 222q110 90 318 90t379 -135l-105 -179q-47 49 -126 82t-158 33q-80 0 -122 -28q-42 -27 -42 -65
q0 -67 149 -91q149 -23 285 -83q66 -30 108 -96t43 -159q1 -139 -113 -229t-315 -89z" />
    <glyph glyph-name="afii10103" unicode="&#x456;" horiz-adv-x="518" 
d="M389 0h-260v989h260v-989zM260 1096q-64 0 -112 46q-46 46 -46 109t46 109t111 45q65 0 110 -45q45 -44 45 -108t-45 -110t-109 -46z" />
    <glyph glyph-name="afii10104" unicode="&#x457;" horiz-adv-x="518" 
d="M389 0h-260v989h260v-989zM180 1251q0 -57 -40 -98t-98 -41t-98 40t-40 98t41 98t98 41q57 -1 97 -41t40 -97zM614 1251q0 -57 -41 -98t-98 -41t-98 41t-41 98t41 97t98 41q57 -1 98 -41t41 -97z" />
    <glyph glyph-name="afii10105" unicode="&#x458;" horiz-adv-x="518" 
d="M37 -401q-90 0 -140 15t-108 54l72 195q61 -51 127 -51t104 41q37 41 37 120v1016h260v-1016q0 -174 -89 -274t-263 -100zM260 1096q-64 0 -112 46q-46 46 -46 109t46 109t111 45q65 0 110 -45q45 -44 45 -108t-45 -110t-109 -46z" />
    <glyph glyph-name="afii10106" unicode="&#x459;" horiz-adv-x="1802" 
d="M1358 432h-299v-213h299q53 0 85 30t32 77q0 46 -32 76t-85 30zM37 -25v213q61 0 98 73t60 249l63 479h801v-340h338q164 0 254 -92t90 -230q0 -139 -92 -233t-252 -94h-598v762h-314l-32 -283q-31 -260 -131 -382t-285 -122z" />
    <glyph glyph-name="afii10107" unicode="&#x45a;" horiz-adv-x="1802" 
d="M1370 410h-311v-191h311q49 0 77 26q28 27 28 69t-28 69t-77 27zM389 0h-260v989h260v-360h410v360h260v-360h350q158 0 245 -90q87 -89 87 -223t-89 -225t-243 -91h-610v401h-410v-401z" />
    <glyph glyph-name="afii10108" unicode="&#x45b;" horiz-adv-x="1196" 
d="M694 1081h-297v-221q53 62 145 108t203 46q160 0 241 -82t81 -230v-702h-260v602q0 98 -47 139t-137 41q-137 0 -226 -116v-666h-260v1081h-121v148h121v137h260v-137h297v-148z" />
    <glyph glyph-name="afii10109" unicode="&#x45c;" horiz-adv-x="1095" 
d="M389 0h-260v989h260v-440l375 440h319l-391 -448l404 -541h-326l-262 381l-119 -127v-254zM938 1434l-332 -295h-182l274 295h240z" />
    <glyph glyph-name="afii10110" unicode="&#x45e;" horiz-adv-x="1050" 
d="M524 1237q154 0 246 127l115 -96q-133 -180 -357 -180t-362 180l115 96q89 -127 243 -127zM215 -170q104 0 137 72l37 84l-401 1003h278l258 -688l258 688h281l-465 -1151q-90 -232 -341 -237q-106 -2 -163 12l39 233q37 -16 82 -16z" />
    <glyph glyph-name="afii10193" unicode="&#x45f;" horiz-adv-x="1187" 
d="M463 -258v258h-334v989h260v-762h410v762h260v-989h-334v-258h-262z" />
    <glyph glyph-name="afii10050" unicode="&#x490;" horiz-adv-x="1169" 
d="M426 1110v-1110h-291v1366h674v252h293v-508h-676z" />
    <glyph glyph-name="afii10098" unicode="&#x491;" horiz-adv-x="929" 
d="M389 762v-762h-260v989h504v258h260v-485h-504z" />
    <glyph glyph-name="uni1E02" unicode="&#x1e02;" horiz-adv-x="1357" 
d="M679 1454q-56 0 -97 41t-41 98t41 99t97 41q56 0 97 -41q41 -40 41 -98t-41 -99t-97 -41zM801 252q82 0 129 42t47 113t-47 117t-129 45h-375v-317h375zM791 819q75 0 117 41t42 107q0 65 -44 107t-115 42h-365v-297h365zM877 0h-742v1366h719q186 0 290 -101t103 -237
q1 -136 -67 -219q-68 -84 -168 -104q110 -17 186 -113t76 -240t-104 -248t-293 -104z" />
    <glyph glyph-name="uni1E03" unicode="&#x1e03;" horiz-adv-x="1200" 
d="M475 1593q0 57 41 99t97 41q55 0 97 -41q42 -40 42 -98t-42 -99t-97 -41q-56 0 -97 41t-41 98zM389 0h-260v1366h260v-504q117 152 307 152t314 -142q123 -142 123 -380q0 -240 -123 -378q-124 -138 -312 -138t-309 151v-127zM612 207q113 0 183 79t69 208q0 128 -70 208
t-182 80q-62 0 -126 -32t-97 -82v-351q33 -47 96 -79t127 -31z" />
    <glyph glyph-name="uni1E0A" unicode="&#x1e0a;" horiz-adv-x="1470" 
d="M733 1454q-57 0 -97 41t-40 98t41 99t97 41q56 0 97 -41q41 -40 41 -98t-41 -99t-98 -41zM674 256q196 0 312 123t116 307t-113 304t-315 120h-248v-854h248zM674 0h-539v1366h539q322 0 524 -188t201 -496t-201 -494q-200 -188 -524 -188z" />
    <glyph glyph-name="uni1E0B" unicode="&#x1e0b;" horiz-adv-x="1200" 
d="M589 1454q-56 0 -97 41t-41 98t41 99t97 41q56 0 97 -41q41 -40 41 -98t-41 -99t-97 -41zM584 207q66 0 129 32t96 80v351q-33 49 -96 81t-129 31q-111 0 -181 -80q-69 -80 -69 -208t70 -207q70 -80 180 -80zM1071 0h-262v127q-121 -152 -309 -152q-188 1 -312 139
q-122 138 -122 378t122 380t314 142q190 0 307 -152v504h262v-1366z" />
    <glyph glyph-name="uni1E1E" unicode="&#x1e1e;" horiz-adv-x="1169" 
d="M426 0h-291v1366h967v-256h-676v-289h661v-256h-661v-565zM622 1454q-56 0 -98 41q-41 41 -41 98t41 99q42 42 98 41q56 0 97 -41q41 -40 41 -98t-41 -99t-97 -41z" />
    <glyph glyph-name="uni1E1F" unicode="&#x1e1f;" horiz-adv-x="669" 
d="M449 0h-263v762h-163v227h163v53q0 158 92 251t254 93q160 0 246 -92l-98 -153q-40 41 -102 41t-96 -36t-33 -104v-53h200v-227h-200v-762zM520 1454q-57 0 -97 41t-40 98t41 99t97 41q56 0 97 -41q41 -40 41 -98t-41 -99t-98 -41z" />
    <glyph glyph-name="uni1E22" unicode="&#x1e22;" horiz-adv-x="1497" 
d="M749 1454q-56 0 -98 41q-41 41 -41 98t41 99t97 41q56 0 98 -41q41 -40 41 -98t-41 -99t-97 -41zM1364 0h-293v573h-645v-573h-291v1366h291v-537h645v537h293v-1366z" />
    <glyph glyph-name="uni1E23" unicode="&#x1e23;" horiz-adv-x="1187" 
d="M594 1454q-57 0 -97 41t-40 98t41 99t97 41q56 0 97 -41q41 -40 41 -98t-41 -99t-98 -41zM1059 0h-260v602q0 98 -47 139t-138 41q-137 0 -225 -116v-666h-260v1366h260v-506q53 62 145 108t203 46q160 0 241 -82t81 -230v-702z" />
    <glyph glyph-name="uni1E56" unicode="&#x1e56;" horiz-adv-x="1277" 
d="M639 1454q-57 0 -97 41t-40 98t41 99t97 41q56 0 97 -41q41 -40 41 -98t-41 -99t-98 -41zM735 741q89 1 145 51t56 134t-56 134t-145 50h-309v-369h309zM426 0h-291v1366h639q215 0 337 -126t122 -313t-123 -315t-336 -127h-348v-485z" />
    <glyph glyph-name="uni1E57" unicode="&#x1e57;" horiz-adv-x="1193" 
d="M473 1250q0 58 41 100t97 41q55 0 97 -41q42 -40 42 -98t-42 -99t-98 -41q-57 0 -97 40t-40 98zM612 207q113 0 182 80q68 80 68 208q0 127 -68 207t-182 80q-62 0 -126 -32t-97 -80v-351q33 -47 97 -79t126 -33zM1133 496q0 -242 -122 -382q-123 -140 -313 -139
q-190 0 -309 152v-504h-260v1366h260v-125q117 150 309 150t313 -138q122 -138 122 -380z" />
    <glyph glyph-name="uni1E60" unicode="&#x1e60;" horiz-adv-x="1228" 
d="M477 1593q0 57 41 99t97 41q55 0 97 -41q42 -40 42 -98t-42 -99t-98 -41q-57 0 -97 41t-40 98zM621 -25q-365 0 -578 218l158 221q176 -184 434 -185q113 0 175 44q62 43 62 103t-58 97t-145 53t-189 47t-190 70q-87 39 -146 123q-58 84 -58 205q0 176 141 296t377 119
q326 0 533 -190l-162 -213q-162 150 -397 150q-92 0 -144 -37q-52 -38 -51 -94q0 -103 197 -139t384 -121q87 -40 145 -125t58 -203q0 -197 -140 -318t-406 -121z" />
    <glyph glyph-name="uni1E61" unicode="&#x1e61;" horiz-adv-x="976" 
d="M350 1250q0 58 41 100t97 41q56 0 98 -41q42 -40 41 -98q1 -58 -41 -99t-99 -41t-97 40t-40 98zM485 -25q-129 0 -247 41t-195 113l113 182q57 -53 155 -94q97 -41 183 -41t128 29t42 72t-44 67t-109 33q-65 11 -141 31t-142 49q-64 29 -108 91t-44 154q0 131 108 222
q110 90 318 90t379 -135l-105 -179q-47 49 -126 82t-158 33q-80 0 -122 -28q-42 -27 -42 -65q0 -67 149 -91q149 -23 285 -83q66 -30 108 -96t43 -159q1 -139 -113 -229t-315 -89z" />
    <glyph glyph-name="uni1E6A" unicode="&#x1e6a;" horiz-adv-x="1191" 
d="M597 1454q-56 0 -97 41t-41 98t41 99t97 41q56 0 97 -41q41 -40 41 -98t-41 -99t-97 -41zM743 0h-292v1110h-400v256h1090v-256h-398v-1110z" />
    <glyph glyph-name="uni1E6B" unicode="&#x1e6b;" horiz-adv-x="692" 
d="M320 1454q-57 0 -98 41q-40 41 -40 98t41 99t97 41q56 0 98 -41q41 -40 41 -98t-41 -99t-98 -41zM465 -25q-141 0 -213 70t-72 201v516h-164v227h164v271h262v-271h201v-227h-201v-447q0 -47 25 -77t75 -31q50 0 81 29l55 -197q-72 -64 -213 -64z" />
    <glyph glyph-name="Wgrave" unicode="&#x1e80;" horiz-adv-x="1880" 
d="M1071 1481h-182l-332 295h238zM1489 0h-309l-240 938l-238 -938h-309l-391 1366h326l239 -987l260 987h228l258 -987l237 987h328z" />
    <glyph glyph-name="wgrave" unicode="&#x1e81;" horiz-adv-x="1574" 
d="M918 1139h-183l-332 295h238zM1274 0h-277l-209 674l-208 -674h-279l-301 989h270l185 -665l217 665h231l217 -665l185 665h270z" />
    <glyph glyph-name="Wacute" unicode="&#x1e82;" horiz-adv-x="1880" 
d="M1489 0h-309l-240 938l-238 -938h-309l-391 1366h326l239 -987l260 987h228l258 -987l237 987h328zM1325 1776l-332 -295h-182l274 295h240z" />
    <glyph glyph-name="wacute" unicode="&#x1e83;" horiz-adv-x="1574" 
d="M1274 0h-277l-209 674l-208 -674h-279l-301 989h270l185 -665l217 665h231l217 -665l185 665h270zM1171 1434l-331 -295h-183l275 295h239z" />
    <glyph glyph-name="Wdieresis" unicode="&#x1e84;" horiz-adv-x="1880" 
d="M1489 0h-309l-240 938l-238 -938h-309l-391 1366h326l239 -987l260 987h228l258 -987l237 987h328zM860 1593q0 -57 -40 -98t-98 -41t-98 41t-40 98t41 97t98 41q57 -1 97 -41t40 -97zM1294 1593q0 -57 -41 -98t-98 -41t-98 41t-41 98t41 97t98 41q57 -1 98 -41t41 -97z
" />
    <glyph glyph-name="wdieresis" unicode="&#x1e85;" horiz-adv-x="1574" 
d="M1274 0h-277l-209 674l-208 -674h-279l-301 989h270l185 -665l217 665h231l217 -665l185 665h270zM709 1251q0 -57 -40 -98q-41 -41 -99 -41t-98 40t-40 98t41 98t98 41q57 0 98 -40q40 -41 40 -98zM1143 1251q0 -57 -41 -98t-98 -41t-99 41q-41 41 -41 98t41 97t99 41
q58 -1 98 -41q41 -40 41 -97z" />
    <glyph glyph-name="uni1EA0" unicode="&#x1ea0;" horiz-adv-x="1400" 
d="M840 -262q0 -57 -42 -98t-98 -41q-57 0 -97 41t-40 98t41 98t97 41q55 0 97 -41t42 -98zM913 487l-213 588l-213 -588h426zM1409 0h-332l-84 231h-585l-86 -231h-332l528 1366h365z" />
    <glyph glyph-name="uni1EA1" unicode="&#x1ea1;" horiz-adv-x="1112" 
d="M556 -401q-56 0 -97 41t-41 98t41 98t97 41t97 -41t41 -98t-41 -98t-97 -41zM514 152q145 0 209 86v122q-63 86 -209 86q-80 0 -133 -40t-53 -108q0 -70 53 -108t133 -38zM983 0h-260v102q-106 -127 -313 -127q-133 0 -239 87q-105 87 -105 244t103 237t241 80
q211 0 313 -121v133q0 76 -59 121t-158 45q-162 0 -289 -117l-98 174q176 156 432 156q190 0 311 -88t121 -287v-639z" />
    <glyph glyph-name="uni1EA2" unicode="&#x1ea2;" horiz-adv-x="1400" 
d="M862 1541q0 -64 -31 -114h-112q41 43 41 104t-60 60q-51 0 -71 -57l-92 29q37 117 163 116q70 0 116 -37t46 -101zM913 487l-213 588l-213 -588h426zM1409 0h-332l-84 231h-585l-86 -231h-332l528 1366h365z" />
    <glyph glyph-name="uni1EA3" unicode="&#x1ea3;" horiz-adv-x="1112" 
d="M555 1331q70 0 116 -37t46 -101t-31 -114h-113q41 43 41 104t-59 60q-52 0 -72 -57l-92 28q37 117 164 117zM514 152q145 0 209 86v122q-63 86 -209 86q-80 0 -133 -40t-53 -108q0 -70 53 -108t133 -38zM983 0h-260v102q-106 -127 -313 -127q-133 0 -239 87
q-105 87 -105 244t103 237t241 80q211 0 313 -121v133q0 76 -59 121t-158 45q-162 0 -289 -117l-98 174q176 156 432 156q190 0 311 -88t121 -287v-639z" />
    <glyph glyph-name="uni1EA4" unicode="&#x1ea4;" horiz-adv-x="1400" 
d="M1456 1729l-332 -222h-182l275 222h239zM913 487l-213 588l-213 -588h426zM1409 0h-332l-84 231h-585l-86 -231h-332l528 1366h365zM1010 1397h-160l-150 137l-145 -137h-160l189 221h233z" />
    <glyph glyph-name="uni1EA5" unicode="&#x1ea5;" horiz-adv-x="1112" 
d="M1296 1577l-331 -295h-183l275 295h239zM862 1139h-160l-149 182l-145 -182h-160l188 295h234zM514 152q145 0 209 86v122q-63 86 -209 86q-80 0 -133 -40t-53 -108q0 -70 53 -108t133 -38zM983 0h-260v102q-106 -127 -313 -127q-133 0 -239 87q-105 87 -105 244t103 237
t241 80q211 0 313 -121v133q0 76 -59 121t-158 45q-162 0 -289 -117l-98 174q176 156 432 156q190 0 311 -88t121 -287v-639z" />
    <glyph glyph-name="uni1EA6" unicode="&#x1ea6;" horiz-adv-x="1400" 
d="M467 1507h-182l-332 222h237zM913 487l-213 588l-213 -588h426zM1409 0h-332l-84 231h-585l-86 -231h-332l528 1366h365zM1010 1397h-160l-150 137l-145 -137h-160l189 221h233z" />
    <glyph glyph-name="uni1EA7" unicode="&#x1ea7;" horiz-adv-x="1112" 
d="M322 1282h-183l-332 295h238zM862 1139h-160l-149 182l-145 -182h-160l188 295h234zM514 152q145 0 209 86v122q-63 86 -209 86q-80 0 -133 -40t-53 -108q0 -70 53 -108t133 -38zM983 0h-260v102q-106 -127 -313 -127q-133 0 -239 87q-105 87 -105 244t103 237t241 80
q211 0 313 -121v133q0 76 -59 121t-158 45q-162 0 -289 -117l-98 174q176 156 432 156q190 0 311 -88t121 -287v-639z" />
    <glyph glyph-name="uni1EA8" unicode="&#x1ea8;" horiz-adv-x="1400" 
d="M1028 1712q70 0 116 -28t46 -76t-31 -84h-112q41 33 40 73q1 49 -55 49t-76 -42l-92 22q39 86 164 86zM913 487l-213 588l-213 -588h426zM1409 0h-332l-84 231h-585l-86 -231h-332l528 1366h365zM1010 1397h-160l-150 137l-145 -137h-160l189 221h233z" />
    <glyph glyph-name="uni1EA9" unicode="&#x1ea9;" horiz-adv-x="1112" 
d="M768 1618q70 0 116 -37t46 -101t-31 -114h-113q41 44 41 104t-59 60q-52 0 -72 -57l-92 28q37 117 164 117zM862 1139h-160l-149 182l-145 -182h-160l188 295h234zM514 152q145 0 209 86v122q-63 86 -209 86q-80 0 -133 -40t-53 -108q0 -70 53 -108t133 -38zM983 0h-260
v102q-106 -127 -313 -127q-133 0 -239 87q-105 87 -105 244t103 237t241 80q211 0 313 -121v133q0 76 -59 121t-158 45q-162 0 -289 -117l-98 174q176 156 432 156q190 0 311 -88t121 -287v-639z" />
    <glyph glyph-name="uni1EAA" unicode="&#x1eaa;" horiz-adv-x="1400" 
d="M815 1550q-77 0 -143 35t-97 35q-74 0 -73 -64h-137q0 66 57 102q58 36 148 36t156 -35t97 -35q74 0 74 64h137q0 -138 -219 -138zM913 487l-213 588l-213 -588h426zM1409 0h-332l-84 231h-585l-86 -231h-332l528 1366h365zM1010 1389h-160l-150 90l-145 -90h-160
l189 147h233z" />
    <glyph glyph-name="uni1EAB" unicode="&#x1eab;" horiz-adv-x="1112" 
d="M672 1397q-58 0 -102 35q-44 36 -76 70t-62 34q-74 0 -74 -127h-137q-1 131 57 203t164 71q56 -1 100 -35t76 -68t62 -34q74 0 74 125h137q0 -131 -56 -203q-57 -71 -163 -71zM862 1071h-160l-149 182l-145 -182h-160l188 295h234zM514 152q145 0 209 86v122
q-63 86 -209 86q-80 0 -133 -40t-53 -108q0 -70 53 -108t133 -38zM983 0h-260v102q-106 -127 -313 -127q-133 0 -239 87q-105 87 -105 244t103 237t241 80q211 0 313 -121v133q0 76 -59 121t-158 45q-162 0 -289 -117l-98 174q176 156 432 156q190 0 311 -88t121 -287v-639z
" />
    <glyph glyph-name="uni1EAC" unicode="&#x1eac;" horiz-adv-x="1400" 
d="M840 -262q0 -57 -42 -98t-98 -41q-57 0 -97 41t-40 98t41 98t97 41q55 0 97 -41t42 -98zM1008 1481h-160l-150 182l-145 -182h-160l189 295h233zM913 487l-213 588l-213 -588h426zM1409 0h-332l-84 231h-585l-86 -231h-332l528 1366h365z" />
    <glyph glyph-name="uni1EAD" unicode="&#x1ead;" horiz-adv-x="1112" 
d="M556 -401q-56 0 -97 41t-41 98t41 98t97 41t97 -41t41 -98t-41 -98t-97 -41zM862 1139h-160l-149 182l-145 -182h-160l188 295h234zM514 152q145 0 209 86v122q-63 86 -209 86q-80 0 -133 -40t-53 -108q0 -70 53 -108t133 -38zM983 0h-260v102q-106 -127 -313 -127
q-133 0 -239 87q-105 87 -105 244t103 237t241 80q211 0 313 -121v133q0 76 -59 121t-158 45q-162 0 -289 -117l-98 174q176 156 432 156q190 0 311 -88t121 -287v-639z" />
    <glyph glyph-name="uni1EAE" unicode="&#x1eae;" horiz-adv-x="1400" 
d="M700 1401q-226 0 -360 123l115 65q91 -86 245 -86t244 86l115 -65q-133 -123 -359 -123zM1087 1702l-331 -172h-183l275 172h239zM913 487l-213 588l-213 -588h426zM1409 0h-332l-84 231h-585l-86 -231h-332l528 1366h365z" />
    <glyph glyph-name="uni1EAF" unicode="&#x1eaf;" horiz-adv-x="1112" 
d="M554 1057q-224 0 -361 180l114 96q90 -127 244 -127t246 127l114 -96q-133 -180 -357 -180zM944 1593l-332 -295h-182l275 295h239zM514 152q145 0 209 86v122q-63 86 -209 86q-80 0 -133 -40t-53 -108q0 -70 53 -108t133 -38zM983 0h-260v102q-106 -127 -313 -127
q-133 0 -239 87q-105 87 -105 244t103 237t241 80q211 0 313 -121v133q0 76 -59 121t-158 45q-162 0 -289 -117l-98 174q176 156 432 156q190 0 311 -88t121 -287v-639z" />
    <glyph glyph-name="uni1EB0" unicode="&#x1eb0;" horiz-adv-x="1400" 
d="M700 1493q154 0 244 86l115 -66q-133 -123 -359 -123t-360 123l115 66q91 -86 245 -86zM831 1530h-182l-332 172h238zM913 487l-213 588l-213 -588h426zM1409 0h-332l-84 231h-585l-86 -231h-332l528 1366h365z" />
    <glyph glyph-name="uni1EB1" unicode="&#x1eb1;" horiz-adv-x="1112" 
d="M554 1061q-224 0 -361 180l114 96q90 -127 244 -127t246 127l114 -96q-133 -180 -357 -180zM676 1298h-182l-332 295h237zM514 152q145 0 209 86v122q-63 86 -209 86q-80 0 -133 -40t-53 -108q0 -70 53 -108t133 -38zM983 0h-260v102q-106 -127 -313 -127q-133 0 -239 87
q-105 87 -105 244t103 237t241 80q211 0 313 -121v133q0 76 -59 121t-158 45q-162 0 -289 -117l-98 174q176 156 432 156q190 0 311 -88t121 -287v-639z" />
    <glyph glyph-name="uni1EB2" unicode="&#x1eb2;" horiz-adv-x="1400" 
d="M700 1393q-226 0 -360 123l115 65q91 -86 245 -86t244 86l115 -65q-133 -123 -359 -123zM862 1595q0 -35 -31 -61h-112q41 27 41 57q0 39 -56 39t-75 -35l-92 19q39 68 163 67q162 0 162 -86zM913 487l-213 588l-213 -588h426zM1409 0h-332l-84 231h-585l-86 -231h-332
l528 1366h365z" />
    <glyph glyph-name="uni1EB3" unicode="&#x1eb3;" horiz-adv-x="1112" 
d="M554 1061q-224 0 -361 180l114 96q90 -127 244 -127t246 127l114 -96q-133 -180 -357 -180zM555 1561q70 0 116 -37q46 -38 46 -102t-31 -113h-113q41 43 41 103t-59 61q-52 -1 -72 -58l-92 29q37 117 164 117zM514 152q145 0 209 86v122q-63 86 -209 86q-80 0 -133 -40
t-53 -108q0 -70 53 -108t133 -38zM983 0h-260v102q-106 -127 -313 -127q-133 0 -239 87q-105 87 -105 244t103 237t241 80q211 0 313 -121v133q0 76 -59 121t-158 45q-162 0 -289 -117l-98 174q176 156 432 156q190 0 311 -88t121 -287v-639z" />
    <glyph glyph-name="uni1EB4" unicode="&#x1eb4;" horiz-adv-x="1400" 
d="M815 1550q-77 0 -143 35t-97 35q-74 0 -73 -64h-137q0 66 57 102q58 36 148 36t156 -35t97 -35q74 0 74 64h137q0 -138 -219 -138zM700 1470q154 0 246 70l115 -53q-133 -101 -357 -101t-362 101l115 53q89 -70 243 -70zM913 487l-213 588l-213 -588h426zM1409 0h-332
l-84 231h-585l-86 -231h-332l528 1366h365z" />
    <glyph glyph-name="uni1EB5" unicode="&#x1eb5;" horiz-adv-x="1112" 
d="M666 1350q-58 0 -102 34t-76 70q-32 35 -62 35q-74 0 -74 -127h-137q0 131 57 203t164 71q45 0 83 -22t58 -46q50 -69 97 -69q74 0 74 125h137q-1 -130 -57 -202t-162 -72zM554 1061q-224 0 -361 180l114 96q90 -127 244 -127t246 127l114 -96q-133 -180 -357 -180z
M514 152q145 0 209 86v122q-63 86 -209 86q-80 0 -133 -40t-53 -108q0 -70 53 -108t133 -38zM983 0h-260v102q-106 -127 -313 -127q-133 0 -239 87q-105 87 -105 244t103 237t241 80q211 0 313 -121v133q0 76 -59 121t-158 45q-162 0 -289 -117l-98 174q176 156 432 156
q190 0 311 -88t121 -287v-639z" />
    <glyph glyph-name="uni1EB6" unicode="&#x1eb6;" horiz-adv-x="1400" 
d="M702 1430q-224 0 -362 180l115 96q89 -127 243 -127t246 127l115 -96q-133 -180 -357 -180zM840 -262q0 -57 -42 -98t-98 -41q-57 0 -97 41t-40 98t41 98t97 41q55 0 97 -41t42 -98zM913 487l-213 588l-213 -588h426zM1409 0h-332l-84 231h-585l-86 -231h-332l528 1366
h365z" />
    <glyph glyph-name="uni1EB7" unicode="&#x1eb7;" horiz-adv-x="1112" 
d="M549 1237q154 0 246 127l114 -96q-133 -180 -357 -180t-362 180l115 96q90 -127 244 -127zM556 -401q-56 0 -97 41t-41 98t41 98t97 41t97 -41t41 -98t-41 -98t-97 -41zM514 152q145 0 209 86v122q-63 86 -209 86q-80 0 -133 -40t-53 -108q0 -70 53 -108t133 -38zM983 0
h-260v102q-106 -127 -313 -127q-133 0 -239 87q-105 87 -105 244t103 237t241 80q211 0 313 -121v133q0 76 -59 121t-158 45q-162 0 -289 -117l-98 174q176 156 432 156q190 0 311 -88t121 -287v-639z" />
    <glyph glyph-name="uni1EB8" unicode="&#x1eb8;" horiz-adv-x="1193" 
d="M619 -401q-57 0 -98 41q-40 41 -40 98t41 98q42 41 98 41t97 -41t41 -98t-41 -98t-98 -41zM1102 0h-967v1366h967v-256h-676v-289h661v-256h-661v-309h676v-256z" />
    <glyph glyph-name="uni1EB9" unicode="&#x1eb9;" horiz-adv-x="1132" 
d="M582 -401q-57 0 -98 41q-40 41 -40 98t41 98t97 41t98 -41q41 -41 41 -98t-41 -98t-98 -41zM581 807q-114 0 -175 -67t-72 -152h487q-6 84 -66 152t-174 67zM608 -25q-244 -1 -393 143t-149 370t144 376t366 150t360 -151q137 -151 137 -394v-57h-735q12 -98 88 -164
t197 -66q67 0 143 27t121 72l114 -168q-149 -138 -393 -138z" />
    <glyph glyph-name="uni1EBA" unicode="&#x1eba;" horiz-adv-x="1193" 
d="M774 1541q0 -64 -31 -114h-112q41 43 41 104t-60 60q-51 0 -71 -57l-92 29q37 117 163 116q70 0 116 -37t46 -101zM1102 0h-967v1366h967v-256h-676v-289h661v-256h-661v-309h676v-256z" />
    <glyph glyph-name="uni1EBB" unicode="&#x1ebb;" horiz-adv-x="1132" 
d="M573 1331q70 0 116 -37t46 -101t-30 -114h-113q41 43 41 104t-60 60q-51 0 -71 -57l-92 28q37 117 163 117zM581 807q-114 0 -175 -67t-72 -152h487q-6 84 -66 152t-174 67zM608 -25q-244 -1 -393 143t-149 370t144 376t366 150t360 -151q137 -151 137 -394v-57h-735
q12 -98 88 -164t197 -66q67 0 143 27t121 72l114 -168q-149 -138 -393 -138z" />
    <glyph glyph-name="uni1EBC" unicode="&#x1ebc;" horiz-adv-x="1193" 
d="M743 1477q-59 1 -102 35t-75 69t-62 35q-74 0 -74 -127h-137q0 131 57 203t164 71q45 1 83 -21t57 -48q51 -69 98 -68q74 0 73 125h138q0 -131 -57 -203t-163 -71zM1102 0h-967v1366h967v-256h-676v-289h661v-256h-661v-309h676v-256z" />
    <glyph glyph-name="uni1EBD" unicode="&#x1ebd;" horiz-adv-x="1132" 
d="M688 1135q-59 1 -102 35t-75 69t-62 35q-74 0 -74 -127h-137q0 131 57 203t164 71q57 0 100 -35q43 -34 75 -68t62 -34q74 0 74 125h137q0 -131 -56 -203q-57 -71 -163 -71zM581 807q-114 0 -175 -67t-72 -152h487q-6 84 -66 152t-174 67zM608 -25q-244 -1 -393 143
t-149 370t144 376t366 150t360 -151q137 -151 137 -394v-57h-735q12 -98 88 -164t197 -66q67 0 143 27t121 72l114 -168q-149 -138 -393 -138z" />
    <glyph glyph-name="uni1EBE" unicode="&#x1ebe;" horiz-adv-x="1193" 
d="M1102 0h-967v1366h967v-256h-676v-289h661v-256h-661v-309h676v-256zM1382 1729l-331 -222h-183l275 222h239zM936 1397h-160l-149 137l-146 -137h-159l188 221h233z" />
    <glyph glyph-name="uni1EBF" unicode="&#x1ebf;" horiz-adv-x="1132" 
d="M581 807q-114 0 -175 -67t-72 -152h487q-6 84 -66 152t-174 67zM608 -25q-244 -1 -393 143t-149 370t144 376t366 150t360 -151q137 -151 137 -394v-57h-735q12 -98 88 -164t197 -66q67 0 143 27t121 72l114 -168q-149 -138 -393 -138zM1315 1577l-332 -295h-182l274 295
h240zM885 1139h-160l-150 182l-145 -182h-160l189 295h233z" />
    <glyph glyph-name="uni1EC0" unicode="&#x1ec0;" horiz-adv-x="1193" 
d="M395 1507h-182l-332 222h238zM1102 0h-967v1366h967v-256h-676v-289h661v-256h-661v-309h676v-256zM938 1397h-160l-149 137l-146 -137h-159l188 221h233z" />
    <glyph glyph-name="uni1EC1" unicode="&#x1ec1;" horiz-adv-x="1132" 
d="M344 1282h-182l-332 295h238zM581 807q-114 0 -175 -67t-72 -152h487q-6 84 -66 152t-174 67zM608 -25q-244 -1 -393 143t-149 370t144 376t366 150t360 -151q137 -151 137 -394v-57h-735q12 -98 88 -164t197 -66q67 0 143 27t121 72l114 -168q-149 -138 -393 -138z
M885 1139h-160l-150 182l-145 -182h-160l189 295h233z" />
    <glyph glyph-name="uni1EC2" unicode="&#x1ec2;" horiz-adv-x="1193" 
d="M952 1712q70 0 116 -28t46 -76t-31 -84h-112q41 33 41 73q0 49 -56 49t-75 -42l-93 22q39 86 164 86zM1102 0h-967v1366h967v-256h-676v-289h661v-256h-661v-309h676v-256zM936 1397h-160l-149 137l-146 -137h-159l188 221h233z" />
    <glyph glyph-name="uni1EC3" unicode="&#x1ec3;" horiz-adv-x="1132" 
d="M791 1618q69 0 115 -37t46 -101t-30 -114h-113q41 44 41 104t-59 60q-52 0 -72 -57l-92 28q37 117 164 117zM581 807q-114 0 -175 -67t-72 -152h487q-6 84 -66 152t-174 67zM608 -25q-244 -1 -393 143t-149 370t144 376t366 150t360 -151q137 -151 137 -394v-57h-735
q12 -98 88 -164t197 -66q67 0 143 27t121 72l114 -168q-149 -138 -393 -138zM885 1139h-160l-150 182l-145 -182h-160l189 295h233z" />
    <glyph glyph-name="uni1EC4" unicode="&#x1ec4;" horiz-adv-x="1193" 
d="M739 1550q-77 0 -143 35t-96 35q-74 0 -74 -64h-137q0 66 57 102q56 36 148 36t158 -35t96 -35q74 0 73 64h137q0 -138 -219 -138zM1102 0h-967v1366h967v-256h-676v-289h661v-256h-661v-309h676v-256zM936 1389h-160l-149 90l-146 -90h-159l188 147h233z" />
    <glyph glyph-name="uni1EC5" unicode="&#x1ec5;" horiz-adv-x="1132" 
d="M694 1397q-59 0 -102 35q-43 36 -75 70t-62 34q-74 0 -74 -127h-137q0 131 57 203t164 71q57 -1 100 -35t75 -68t62 -34q74 0 74 125h137q0 -131 -56 -203q-57 -71 -163 -71zM581 807q-114 0 -175 -67t-72 -152h487q-6 84 -66 152t-174 67zM608 -25q-244 -1 -393 143
t-149 370t144 376t366 150t360 -151q137 -151 137 -394v-57h-735q12 -98 88 -164t197 -66q67 0 143 27t121 72l114 -168q-149 -138 -393 -138zM885 1071h-160l-150 182l-145 -182h-160l189 295h233z" />
    <glyph glyph-name="uni1EC6" unicode="&#x1ec6;" horiz-adv-x="1193" 
d="M619 -401q-57 0 -98 41q-40 41 -40 98t41 98q42 41 98 41t97 -41t41 -98t-41 -98t-98 -41zM1102 0h-967v1366h967v-256h-676v-289h661v-256h-661v-309h676v-256zM926 1481h-160l-150 182l-145 -182h-160l189 295h233z" />
    <glyph glyph-name="uni1EC7" unicode="&#x1ec7;" horiz-adv-x="1132" 
d="M582 -401q-57 0 -98 41q-40 41 -40 98t41 98t97 41t98 -41q41 -41 41 -98t-41 -98t-98 -41zM581 807q-114 0 -175 -67t-72 -152h487q-6 84 -66 152t-174 67zM608 -25q-244 -1 -393 143t-149 370t144 376t366 150t360 -151q137 -151 137 -394v-57h-735q12 -98 88 -164
t197 -66q67 0 143 27t121 72l114 -168q-149 -138 -393 -138zM889 1139h-160l-149 182l-146 -182h-160l189 295h233z" />
    <glyph glyph-name="uni1EC8" unicode="&#x1ec8;" horiz-adv-x="561" 
d="M444 1541q0 -64 -30 -114h-113q41 43 41 104t-59 60q-52 0 -72 -57l-92 29q37 117 164 116q69 0 115 -37t46 -101zM426 0h-291v1366h291v-1366z" />
    <glyph glyph-name="uni1EC9" unicode="&#x1ec9;" horiz-adv-x="518" 
d="M260 1331q70 0 116 -37t46 -101t-31 -114h-112q41 43 41 104t-60 60q-52 0 -72 -57l-92 28q37 117 164 117zM389 0h-260v989h260v-989z" />
    <glyph glyph-name="uni1ECA" unicode="&#x1eca;" horiz-adv-x="561" 
d="M286 -401q-56 0 -98 41q-41 41 -41 98t41 98q42 41 98 41t97 -41t41 -98t-41 -98t-97 -41zM426 0h-291v1366h291v-1366z" />
    <glyph glyph-name="uni1ECB" unicode="&#x1ecb;" horiz-adv-x="518" 
d="M261 -401q-56 0 -97 41t-41 98t41 98t97 41t97 -41t41 -98t-41 -98t-97 -41zM389 0h-260v989h260v-989zM260 1096q-64 0 -112 46q-46 46 -46 109t46 109t111 45q65 0 110 -45q45 -44 45 -108t-45 -110t-109 -46z" />
    <glyph glyph-name="uni1ECC" unicode="&#x1ecc;" horiz-adv-x="1566" 
d="M790 -401q-56 0 -98 41q-41 41 -41 98t41 98q42 41 98 41t97 -41t41 -98t-41 -98t-97 -41zM782 233q186 0 301 127t115 322t-115 322q-115 126 -301 126t-300 -126t-114 -322q0 -195 114 -322t300 -127zM783 -25q-310 0 -512 200t-201 507q0 307 201 507q202 200 512 200
t512 -199t202 -508t-202 -508t-512 -199z" />
    <glyph glyph-name="uni1ECD" unicode="&#x1ecd;" horiz-adv-x="1175" 
d="M589 -401q-56 0 -97 41t-41 98t41 98t97 41t97 -41t41 -98t-41 -98t-97 -41zM588 207q118 0 186 83t68 205q0 123 -69 205t-185 82t-185 -83q-67 -83 -67 -205t68 -204q68 -83 184 -83zM588 -25q-238 0 -380 151t-142 370q0 218 142 368t380 150t381 -150t143 -368
t-143 -370q-143 -151 -381 -151z" />
    <glyph glyph-name="uni1ECE" unicode="&#x1ece;" horiz-adv-x="1566" 
d="M942 1541q0 -64 -31 -114h-112q41 43 41 104t-60 60q-51 0 -71 -57l-93 29q37 117 164 116q70 0 116 -37t46 -101zM782 233q186 0 301 127t115 322t-115 322q-115 126 -301 126t-300 -126t-114 -322q0 -195 114 -322t300 -127zM783 -25q-310 0 -512 200t-201 507
q0 307 201 507q202 200 512 200t512 -199t202 -508t-202 -508t-512 -199z" />
    <glyph glyph-name="uni1ECF" unicode="&#x1ecf;" horiz-adv-x="1175" 
d="M590 1331q70 0 116 -37t46 -101t-31 -114h-113q41 43 41 104t-59 60q-52 0 -72 -57l-92 28q37 117 164 117zM588 207q118 0 186 83t68 205q0 123 -69 205t-185 82t-185 -83q-67 -83 -67 -205t68 -204q68 -83 184 -83zM588 -25q-238 0 -380 151t-142 370q0 218 142 368
t380 150t381 -150t143 -368t-143 -370q-143 -151 -381 -151z" />
    <glyph glyph-name="uni1ED0" unicode="&#x1ed0;" horiz-adv-x="1566" 
d="M782 233q186 0 301 127t115 322t-115 322q-115 126 -301 126t-300 -126t-114 -322q0 -195 114 -322t300 -127zM783 -25q-310 0 -512 200t-201 507q0 307 201 507q202 200 512 200t512 -199t202 -508t-202 -508t-512 -199zM1528 1729l-332 -222h-182l274 222h240z
M1083 1397h-159l-150 137l-145 -137h-160l188 221h234z" />
    <glyph glyph-name="uni1ED1" unicode="&#x1ed1;" horiz-adv-x="1175" 
d="M588 207q118 0 186 83t68 205q0 123 -69 205t-185 82t-185 -83q-67 -83 -67 -205t68 -204q68 -83 184 -83zM588 -25q-238 0 -380 151t-142 370q0 218 142 368t380 150t381 -150t143 -368t-143 -370q-143 -151 -381 -151zM1327 1577l-332 -295h-182l274 295h240zM895 1139
h-160l-149 182l-146 -182h-159l188 295h233z" />
    <glyph glyph-name="uni1ED2" unicode="&#x1ed2;" horiz-adv-x="1566" 
d="M537 1507h-183l-331 222h237zM782 233q186 0 301 127t115 322t-115 322q-115 126 -301 126t-300 -126t-114 -322q0 -195 114 -322t300 -127zM783 -25q-310 0 -512 200t-201 507q0 307 201 507q202 200 512 200t512 -199t202 -508t-202 -508t-512 -199zM1081 1397h-159
l-150 137l-145 -137h-160l188 221h234z" />
    <glyph glyph-name="uni1ED3" unicode="&#x1ed3;" horiz-adv-x="1175" 
d="M356 1282h-182l-332 295h238zM588 207q118 0 186 83t68 205q0 123 -69 205t-185 82t-185 -83q-67 -83 -67 -205t68 -204q68 -83 184 -83zM588 -25q-238 0 -380 151t-142 370q0 218 142 368t380 150t381 -150t143 -368t-143 -370q-143 -151 -381 -151zM895 1139h-160
l-149 182l-146 -182h-159l188 295h233z" />
    <glyph glyph-name="uni1ED4" unicode="&#x1ed4;" horiz-adv-x="1566" 
d="M1100 1712q70 0 116 -28t46 -76t-31 -84h-113q41 33 41 73q1 49 -55 49t-76 -42l-92 22q39 86 164 86zM782 233q186 0 301 127t115 322t-115 322q-115 126 -301 126t-300 -126t-114 -322q0 -195 114 -322t300 -127zM783 -25q-310 0 -512 200t-201 507q0 307 201 507
q202 200 512 200t512 -199t202 -508t-202 -508t-512 -199zM1081 1397h-159l-150 137l-145 -137h-160l188 221h234z" />
    <glyph glyph-name="uni1ED5" unicode="&#x1ed5;" horiz-adv-x="1175" 
d="M801 1618q69 0 115 -37t46 -101t-30 -114h-113q41 44 41 104t-59 60q-52 0 -72 -57l-92 28q37 117 164 117zM588 207q118 0 186 83t68 205q0 123 -69 205t-185 82t-185 -83q-67 -83 -67 -205t68 -204q68 -83 184 -83zM588 -25q-238 0 -380 151t-142 370q0 218 142 368
t380 150t381 -150t143 -368t-143 -370q-143 -151 -381 -151zM895 1139h-160l-149 182l-146 -182h-159l188 295h233z" />
    <glyph glyph-name="uni1ED6" unicode="&#x1ed6;" horiz-adv-x="1566" 
d="M893 1550q-77 0 -143 35t-97 35q-74 0 -73 -64h-138q0 66 58 102t148 36t156 -35t97 -35q74 0 74 64h137q0 -138 -219 -138zM782 233q186 0 301 127t115 322t-115 322q-115 126 -301 126t-300 -126t-114 -322q0 -195 114 -322t300 -127zM783 -25q-310 0 -512 200
t-201 507q0 307 201 507q202 200 512 200t512 -199t202 -508t-202 -508t-512 -199zM1087 1389h-159l-150 90l-145 -90h-160l189 147h233z" />
    <glyph glyph-name="uni1ED7" unicode="&#x1ed7;" horiz-adv-x="1175" 
d="M705 1397q-59 0 -103 35q-44 36 -75 70q-32 34 -62 34q-74 0 -74 -127h-137q0 131 57 203t164 71q57 -1 100 -35t75 -68t63 -34q74 0 73 125h138q0 -131 -56 -203t-163 -71zM588 207q118 0 186 83t68 205q0 123 -69 205t-185 82t-185 -83q-67 -83 -67 -205t68 -204
q68 -83 184 -83zM588 -25q-238 0 -380 151t-142 370q0 218 142 368t380 150t381 -150t143 -368t-143 -370q-143 -151 -381 -151zM895 1071h-160l-149 182l-146 -182h-159l188 295h233z" />
    <glyph glyph-name="uni1ED8" unicode="&#x1ed8;" horiz-adv-x="1566" 
d="M790 -401q-56 0 -98 41q-41 41 -41 98t41 98q42 41 98 41t97 -41t41 -98t-41 -98t-97 -41zM782 233q186 0 301 127t115 322t-115 322q-115 126 -301 126t-300 -126t-114 -322q0 -195 114 -322t300 -127zM783 -25q-310 0 -512 200t-201 507q0 307 201 507q202 200 512 200
t512 -199t202 -508t-202 -508t-512 -199zM1096 1481h-160l-150 182l-145 -182h-160l189 295h233z" />
    <glyph glyph-name="uni1ED9" unicode="&#x1ed9;" horiz-adv-x="1175" 
d="M589 -401q-56 0 -97 41t-41 98t41 98t97 41t97 -41t41 -98t-41 -98t-97 -41zM588 207q118 0 186 83t68 205q0 123 -69 205t-185 82t-185 -83q-67 -83 -67 -205t68 -204q68 -83 184 -83zM588 -25q-238 0 -380 151t-142 370q0 218 142 368t380 150t381 -150t143 -368
t-143 -370q-143 -151 -381 -151zM895 1139h-160l-149 182l-146 -182h-159l188 295h233z" />
    <glyph glyph-name="uni1EDA" unicode="&#x1eda;" horiz-adv-x="1566" 
d="M782 233q186 0 301 127t115 322t-115 322q-115 126 -301 126t-300 -126t-114 -322q0 -195 114 -322t300 -127zM783 -25q-310 0 -512 200t-201 507q0 307 201 507q203 200 521 200t523 -222q74 63 90 131q-8 -4 -39 -4q-32 0 -60 30t-28 76t33 80t83 34t88 -40t38 -110
q0 -164 -144 -272q121 -174 121 -410q0 -309 -202 -508t-512 -199zM1167 1776l-331 -295h-183l275 295h239z" />
    <glyph glyph-name="uni1EDB" unicode="&#x1edb;" horiz-adv-x="1175" 
d="M588 207q118 0 186 83t68 205q0 123 -69 205t-185 82t-185 -83q-67 -83 -67 -205t68 -204q68 -83 184 -83zM1130 1090q0 -154 -131 -263q113 -137 113 -343t-143 -358q-143 -151 -381 -151t-380 151t-142 370q0 218 142 368t380 150q201 0 342 -115q72 59 86 127
q-8 -4 -40 -4t-60 29t-28 75t34 81q32 34 82 34q50 -1 88 -41t38 -110zM973 1434l-332 -295h-182l274 295h240z" />
    <glyph glyph-name="uni1EDC" unicode="&#x1edc;" horiz-adv-x="1566" 
d="M915 1481h-182l-332 295h238zM782 233q186 0 301 127t115 322t-115 322q-115 126 -301 126t-300 -126t-114 -322q0 -195 114 -322t300 -127zM783 -25q-310 0 -512 200t-201 507q0 307 201 507q203 200 521 200t523 -222q74 63 90 131q-8 -4 -39 -4q-32 0 -60 30t-28 76
t33 80t83 34t88 -40t38 -110q0 -164 -144 -272q121 -174 121 -410q0 -309 -202 -508t-512 -199z" />
    <glyph glyph-name="uni1EDD" unicode="&#x1edd;" horiz-adv-x="1175" 
d="M719 1139h-182l-332 295h237zM588 207q118 0 186 83t68 205q0 123 -69 205t-185 82t-185 -83q-67 -83 -67 -205t68 -204q68 -83 184 -83zM1130 1090q0 -154 -131 -263q113 -137 113 -343t-143 -358q-143 -151 -381 -151t-380 151t-142 370q0 218 142 368t380 150
q201 0 342 -115q72 59 86 127q-8 -4 -40 -4t-60 29t-28 75t34 81q32 34 82 34q50 -1 88 -41t38 -110z" />
    <glyph glyph-name="uni1EDE" unicode="&#x1ede;" horiz-adv-x="1566" 
d="M944 1541q0 -64 -31 -114h-112q41 43 41 104t-60 60q-51 0 -71 -57l-93 29q37 117 164 116q70 0 116 -37t46 -101zM782 233q186 0 301 127t115 322t-115 322q-115 126 -301 126t-300 -126t-114 -322q0 -195 114 -322t300 -127zM783 -25q-310 0 -512 200t-201 507
q0 307 201 507q203 200 521 200t523 -222q74 63 90 131q-8 -4 -39 -4q-32 0 -60 30t-28 76t33 80t83 34t88 -40t38 -110q0 -164 -144 -272q121 -174 121 -410q0 -309 -202 -508t-512 -199z" />
    <glyph glyph-name="uni1EDF" unicode="&#x1edf;" horiz-adv-x="1175" 
d="M588 1331q70 0 116 -37t46 -101t-31 -114h-113q41 43 41 104t-59 60q-52 0 -72 -57l-92 28q37 117 164 117zM588 207q118 0 186 83t68 205q0 123 -69 205t-185 82t-185 -83q-67 -83 -67 -205t68 -204q68 -83 184 -83zM1130 1090q0 -154 -131 -263q113 -137 113 -343
t-143 -358q-143 -151 -381 -151t-380 151t-142 370q0 218 142 368t380 150q201 0 342 -115q72 59 86 127q-8 -4 -40 -4t-60 29t-28 75t34 81q32 34 82 34q50 -1 88 -41t38 -110z" />
    <glyph glyph-name="uni1EE0" unicode="&#x1ee0;" horiz-adv-x="1566" 
d="M899 1477q-59 1 -102 35t-75 69t-63 35q-74 0 -73 -127h-137q0 131 57 203t164 71q45 1 83 -21t57 -48q51 -69 97 -68q74 0 74 125h137q0 -131 -56 -203q-57 -71 -163 -71zM782 233q186 0 301 127t115 322t-115 322q-115 126 -301 126t-300 -126t-114 -322
q0 -195 114 -322t300 -127zM783 -25q-310 0 -512 200t-201 507q0 307 201 507q203 200 521 200t523 -222q74 63 90 131q-8 -4 -39 -4q-32 0 -60 30t-28 76t33 80t83 34t88 -40t38 -110q0 -164 -144 -272q121 -174 121 -410q0 -309 -202 -508t-512 -199z" />
    <glyph glyph-name="uni1EE1" unicode="&#x1ee1;" horiz-adv-x="1175" 
d="M692 1135q-59 1 -102 35t-75 69t-62 35q-74 0 -74 -127h-137q0 131 57 203t164 71q57 0 100 -35q43 -34 75 -68t62 -34q74 0 74 125h137q0 -131 -56 -203q-57 -71 -163 -71zM588 207q118 0 186 83t68 205q0 123 -69 205t-185 82t-185 -83q-67 -83 -67 -205t68 -204
q68 -83 184 -83zM1130 1090q0 -154 -131 -263q113 -137 113 -343t-143 -358q-143 -151 -381 -151t-380 151t-142 370q0 218 142 368t380 150q201 0 342 -115q72 59 86 127q-8 -4 -40 -4t-60 29t-28 75t34 81q32 34 82 34q50 -1 88 -41t38 -110z" />
    <glyph glyph-name="uni1EE2" unicode="&#x1ee2;" horiz-adv-x="1566" 
d="M790 -401q-56 0 -98 41q-41 41 -41 98t41 98q42 41 98 41t97 -41t41 -98t-41 -98t-97 -41zM782 233q186 0 301 127t115 322t-115 322q-115 126 -301 126t-300 -126t-114 -322q0 -195 114 -322t300 -127zM783 -25q-310 0 -512 200t-201 507q0 307 201 507q203 200 521 200
t523 -222q74 63 90 131q-8 -4 -39 -4q-32 0 -60 30t-28 76t33 80t83 34t88 -40t38 -110q0 -164 -144 -272q121 -174 121 -410q0 -309 -202 -508t-512 -199z" />
    <glyph glyph-name="uni1EE3" unicode="&#x1ee3;" horiz-adv-x="1175" 
d="M589 -401q-56 0 -97 41t-41 98t41 98t97 41t97 -41t41 -98t-41 -98t-97 -41zM588 207q118 0 186 83t68 205q0 123 -69 205t-185 82t-185 -83q-67 -83 -67 -205t68 -204q68 -83 184 -83zM1130 1090q0 -154 -131 -263q113 -137 113 -343t-143 -358q-143 -151 -381 -151
t-380 151t-142 370q0 218 142 368t380 150q201 0 342 -115q72 59 86 127q-8 -4 -40 -4t-60 29t-28 75t34 81q32 34 82 34q50 -1 88 -41t38 -110z" />
    <glyph glyph-name="uni1EE4" unicode="&#x1ee4;" horiz-adv-x="1501" 
d="M757 -401q-56 0 -98 41q-41 41 -41 98t41 98t97 41t98 -41q41 -41 41 -98t-41 -98t-97 -41zM752 -25q-303 0 -460 155t-157 415v821h295v-811q0 -147 84 -234t238 -87t236 86q82 88 83 235v811h297v-819q0 -264 -156 -418t-460 -154z" />
    <glyph glyph-name="uni1EE5" unicode="&#x1ee5;" 
d="M597 -401q-56 0 -97 41t-41 98t41 98t97 41t97 -41t41 -98t-41 -98t-97 -41zM1057 0h-260v125q-133 -150 -348 -150q-160 0 -240 82t-80 230v702h260v-600q0 -182 182 -182q137 0 226 112v670h260v-989z" />
    <glyph glyph-name="uni1EE6" unicode="&#x1ee6;" horiz-adv-x="1501" 
d="M915 1541q0 -64 -30 -114h-113q41 43 41 104t-59 60q-52 0 -72 -57l-92 29q37 117 164 116q70 0 116 -37t45 -101zM752 -25q-303 0 -460 155t-157 415v821h295v-811q0 -147 84 -234t238 -87t236 86q82 88 83 235v811h297v-819q0 -264 -156 -418t-460 -154z" />
    <glyph glyph-name="uni1EE7" unicode="&#x1ee7;" 
d="M594 1331q70 0 116 -37t46 -101t-31 -114h-113q41 43 41 104t-59 60q-52 0 -72 -57l-92 28q37 117 164 117zM1057 0h-260v125q-133 -150 -348 -150q-160 0 -240 82t-80 230v702h260v-600q0 -182 182 -182q137 0 226 112v670h260v-989z" />
    <glyph glyph-name="uni1EE8" unicode="&#x1ee8;" horiz-adv-x="1501" 
d="M1591 1475q0 -82 -58 -169t-165 -137v-622q0 -264 -157 -418t-459 -154t-460 155q-157 155 -157 415v821h295v-811q0 -147 84 -234t238 -87t236 86q82 88 83 235v811h297v-88q92 63 109 147q-6 -6 -39 -6t-61 30t-27 77q0 47 33 80q34 32 83 32t87 -40t38 -123z
M1137 1776l-332 -295h-182l274 295h240z" />
    <glyph glyph-name="uni1EE9" unicode="&#x1ee9;" 
d="M1057 0h-260v125q-133 -150 -348 -150q-160 0 -240 82t-80 230v702h260v-600q0 -182 182 -182q137 0 226 112v670h260v-35q45 51 53 99q-8 -4 -40 -4q-32 1 -60 29t-27 75q0 47 33 81t84 34t88 -41t37 -111q0 -176 -168 -289v-827zM975 1434l-332 -295h-182l274 295h240z
" />
    <glyph glyph-name="uni1EEA" unicode="&#x1eea;" horiz-adv-x="1501" 
d="M1591 1475q0 -82 -58 -169t-165 -137v-622q0 -264 -157 -418t-459 -154t-460 155q-157 155 -157 415v821h295v-811q0 -147 84 -234t238 -87t236 86q82 88 83 235v811h297v-88q92 63 109 147q-6 -6 -39 -6t-61 30t-27 77q0 47 33 80q34 32 83 32t87 -40t38 -123zM883 1481
h-183l-331 295h237z" />
    <glyph glyph-name="uni1EEB" unicode="&#x1eeb;" 
d="M1057 0h-260v125q-133 -150 -348 -150q-160 0 -240 82t-80 230v702h260v-600q0 -182 182 -182q137 0 226 112v670h260v-35q45 51 53 99q-8 -4 -40 -4q-32 1 -60 29t-27 75q0 47 33 81t84 34t88 -41t37 -111q0 -176 -168 -289v-827zM723 1139h-182l-332 295h237z" />
    <glyph glyph-name="uni1EEC" unicode="&#x1eec;" horiz-adv-x="1501" 
d="M1591 1475q0 -82 -58 -169t-165 -137v-622q0 -264 -157 -418t-459 -154t-460 155q-157 155 -157 415v821h295v-811q0 -147 84 -234t238 -87t236 86q82 88 83 235v811h297v-88q92 63 109 147q-6 -6 -39 -6t-61 30t-27 77q0 47 33 80q34 32 83 32t87 -40t38 -123zM915 1541
q0 -64 -30 -114h-113q41 43 41 104t-59 60q-52 0 -72 -57l-92 29q37 117 164 116q70 0 116 -37t45 -101z" />
    <glyph glyph-name="uni1EED" unicode="&#x1eed;" 
d="M1057 0h-260v125q-133 -150 -348 -150q-160 0 -240 82t-80 230v702h260v-600q0 -182 182 -182q137 0 226 112v670h260v-35q45 51 53 99q-8 -4 -40 -4q-32 1 -60 29t-27 75q0 47 33 81t84 34t88 -41t37 -111q0 -176 -168 -289v-827zM594 1331q70 0 116 -37t46 -101
t-31 -114h-113q41 43 41 104t-59 60q-52 0 -72 -57l-92 28q37 117 164 117z" />
    <glyph glyph-name="uni1EEE" unicode="&#x1eee;" horiz-adv-x="1501" 
d="M868 1477q-59 1 -102 35t-75 69t-62 35q-74 0 -74 -127h-137q0 131 57 203t164 71q45 1 83 -21t57 -48q51 -68 98 -68q74 0 73 125h137q0 -131 -56 -203q-57 -71 -163 -71zM1591 1475q0 -82 -58 -169t-165 -137v-622q0 -264 -157 -418t-459 -154t-460 155
q-157 155 -157 415v821h295v-811q0 -147 84 -234t238 -87t236 86q82 88 83 235v811h297v-88q92 63 109 147q-6 -6 -39 -6t-61 30t-27 77q0 47 33 80q34 32 83 32t87 -40t38 -123z" />
    <glyph glyph-name="uni1EEF" unicode="&#x1eef;" 
d="M709 1135q-59 1 -103 35t-75 69q-32 35 -62 35q-74 0 -74 -127h-137q0 131 57 203t164 71q57 0 101 -35q44 -34 74 -68q32 -34 63 -34q74 0 74 125h137q0 -131 -56 -203t-163 -71zM1057 0h-260v125q-133 -150 -348 -150q-160 0 -240 82t-80 230v702h260v-600
q0 -182 182 -182q137 0 226 112v670h260v-35q45 51 53 99q-8 -4 -40 -4q-32 1 -60 29t-27 75q0 47 33 81t84 34t88 -41t37 -111q0 -176 -168 -289v-827z" />
    <glyph glyph-name="uni1EF0" unicode="&#x1ef0;" horiz-adv-x="1501" 
d="M1591 1475q0 -82 -58 -169t-165 -137v-622q0 -264 -157 -418t-459 -154t-460 155q-157 155 -157 415v821h295v-811q0 -147 84 -234t238 -87t236 86q82 88 83 235v811h297v-88q92 63 109 147q-6 -6 -39 -6t-61 30t-27 77q0 47 33 80q34 32 83 32t87 -40t38 -123zM757 -401
q-56 0 -98 41q-41 41 -41 98t41 98t97 41t98 -41q41 -41 41 -98t-41 -98t-97 -41z" />
    <glyph glyph-name="uni1EF1" unicode="&#x1ef1;" 
d="M1057 0h-260v125q-133 -150 -348 -150q-160 0 -240 82t-80 230v702h260v-600q0 -182 182 -182q137 0 226 112v670h260v-35q45 51 53 99q-8 -4 -40 -4q-32 1 -60 29t-27 75q0 47 33 81t84 34t88 -41t37 -111q0 -176 -168 -289v-827zM597 -401q-56 0 -97 41t-41 98t41 98
t97 41t97 -41t41 -98t-41 -98t-97 -41z" />
    <glyph glyph-name="Ygrave" unicode="&#x1ef2;" horiz-adv-x="1320" 
d="M793 1481h-183l-331 295h237zM807 0h-291v559l-526 807h332l340 -549l335 549h332l-522 -807v-559z" />
    <glyph glyph-name="ygrave" unicode="&#x1ef3;" horiz-adv-x="1050" 
d="M653 1139h-182l-332 295h238zM215 -170q104 0 137 72l37 84l-401 1003h278l258 -688l258 688h281l-465 -1151q-90 -232 -341 -237q-106 -2 -163 12l39 233q37 -16 82 -16z" />
    <glyph glyph-name="thinspace" unicode="&#x2009;" horiz-adv-x="104" 
 />
    <glyph glyph-name="endash" unicode="&#x2013;" horiz-adv-x="1214" 
d="M1153 385h-1092v221h1092v-221z" />
    <glyph glyph-name="emdash" unicode="&#x2014;" horiz-adv-x="1705" 
d="M1645 385h-1584v221h1584v-221z" />
    <glyph glyph-name="afii00208" unicode="&#x2015;" horiz-adv-x="1214" 
d="M1153 385h-1092v221h1092v-221z" />
    <glyph glyph-name="quoteleft" unicode="&#x2018;" horiz-adv-x="522" 
d="M257 799q-71 1 -125 57t-54 160t57 204q57 99 156 166l112 -90q-51 -27 -98 -84t-61 -110q8 6 54 6t86 -41t40 -107t-48 -113q-48 -48 -119 -48z" />
    <glyph glyph-name="quoteright" unicode="&#x2019;" horiz-adv-x="522" 
d="M440 1170q0 -104 -57 -204q-57 -99 -154 -169l-112 92q51 27 98 84t59 110q-12 -8 -38 -8q-59 0 -100 42q-40 42 -40 108q0 65 47 113t118 48t125 -56t54 -160z" />
    <glyph glyph-name="quotesinglbase" unicode="&#x201a;" horiz-adv-x="524" 
d="M261 309q71 -1 125 -57t54 -160t-57 -204q-57 -99 -154 -169l-112 93q51 27 98 83t59 109q-18 -6 -38 -6q-59 0 -100 41q-40 41 -40 107t47 115q47 48 118 48z" />
    <glyph glyph-name="quotereversed" unicode="&#x201b;" horiz-adv-x="522" 
d="M82 1170q0 104 54 160t125 56t119 -48t48 -113t-41 -107t-100 -43q-27 0 -39 8q14 -53 60 -110t98 -84l-111 -92q-98 70 -156 169q-57 100 -57 204z" />
    <glyph glyph-name="quotedblleft" unicode="&#x201c;" horiz-adv-x="940" 
d="M676 799q-72 1 -124 57t-52 160t56 204q56 99 153 166l114 -90q-51 -27 -99 -84t-60 -110q8 6 53 6t85 -41t40 -107t-47 -113q-47 -48 -119 -48zM259 799q-71 1 -124 57t-53 160t56 204q56 99 155 166l113 -90q-50 -27 -98 -84t-62 -110q8 6 54 6t86 -41t40 -107
t-48 -113q-48 -48 -119 -48z" />
    <glyph glyph-name="quotedblright" unicode="&#x201d;" horiz-adv-x="940" 
d="M440 1170q0 -104 -57 -204q-57 -99 -154 -169l-112 92q51 27 98 84t59 110q-12 -8 -38 -8q-59 0 -100 42q-40 42 -40 108q0 65 47 113t118 48t125 -56t54 -160zM856 1170q0 -104 -56 -204q-56 -99 -155 -169l-113 92q51 27 99 84q47 57 61 110q-16 -8 -41 -8
q-59 0 -99 42t-40 108q0 65 48 113t119 48t124 -56t53 -160z" />
    <glyph glyph-name="quotedblbase" unicode="&#x201e;" horiz-adv-x="940" 
d="M679 309q71 -1 124 -57t53 -160t-56 -204q-56 -99 -155 -169l-113 93q51 27 99 83q47 56 61 109q-25 -6 -41 -6q-59 0 -99 41t-40 107t48 115q48 48 119 48zM261 309q71 -1 125 -57t54 -160t-57 -204q-57 -99 -154 -169l-112 93q51 27 98 83t59 109q-18 -6 -38 -6
q-59 0 -100 41q-40 41 -40 107t47 115q47 48 118 48z" />
    <glyph glyph-name="dagger" unicode="&#x2020;" horiz-adv-x="567" 
d="M526 1069l-182 8l8 -407h-139l10 407l-182 -8v127l182 -6l-10 196h139l-8 -196l182 6v-127z" />
    <glyph glyph-name="daggerdbl" unicode="&#x2021;" horiz-adv-x="567" 
d="M526 1196v-127l-182 8v-397l182 8v-127l-182 6l8 -198h-139l8 198l-180 -6v127l180 -8v397l-180 -8v127l180 -6l-8 196h139l-8 -196z" />
    <glyph glyph-name="bullet" unicode="&#x2022;" horiz-adv-x="733" 
d="M612 497q0 -101 -72 -172t-171 -71q-100 0 -172 71t-72 172t71 172t173 71t173 -71q70 -71 70 -172z" />
    <glyph glyph-name="ellipsis" unicode="&#x2026;" horiz-adv-x="1572" 
d="M1309 309q68 0 117 -49t49 -116q1 -68 -49 -116t-118 -48t-115 49q-48 49 -48 115t48 116q48 49 116 49zM950 144q0 -68 -49 -116t-117 -48t-116 49t-47 115q0 66 48 116q47 49 115 49t117 -49t49 -116zM426 144q0 -68 -49 -116t-117 -48t-116 49t-48 115t48 116
q48 49 116 49t117 -49t49 -116z" />
    <glyph glyph-name="perthousand" unicode="&#x2030;" horiz-adv-x="2297" 
d="M2060 315q0 89 -46 143t-118 54t-116 -53t-45 -145q0 -92 45 -143q44 -52 116 -52t118 53t46 143zM2245 314q1 -146 -97 -242t-252 -96t-250 96t-96 242t96 244t250 99q154 -1 252 -99t97 -244zM1315 315q0 89 -46 143t-118 54t-117 -53t-45 -145t45 -143q45 -52 117 -52
t118 53t46 143zM561 1044q0 90 -45 144t-117 53q-73 0 -117 -53q-44 -54 -44 -144t45 -142t117 -52t116 52q45 52 45 142zM1151 657q154 -1 251 -99t97 -244t-97 -242t-251 -96t-250 96t-96 242t96 244t250 99zM1294 1366l-874 -1366h-154l873 1366h155zM748 1043
q0 -146 -96 -241t-252 -95q-154 0 -250 95t-96 241q0 147 96 245t250 98t252 -98q96 -98 96 -245z" />
    <glyph glyph-name="guilsinglleft" unicode="&#x2039;" horiz-adv-x="690" 
d="M629 129h-240l-328 369l328 362h240l-328 -362z" />
    <glyph glyph-name="guilsinglright" unicode="&#x203a;" horiz-adv-x="690" 
d="M629 498l-328 -369h-240l328 369l-328 362h240z" />
    <glyph glyph-name="uni203E" unicode="&#x203e;" horiz-adv-x="743" 
d="M743 1151h-743v147h743v-147z" />
    <glyph glyph-name="fraction" unicode="&#x2044;" horiz-adv-x="325" 
d="M678 1366l-875 -1366h-155l872 1366h158z" />
    <glyph glyph-name="zerosuperior" unicode="&#x2070;" horiz-adv-x="813" 
d="M561 1271q-1 265 -155 265t-154 -265t154 -265t155 265zM760 1272q0 -174 -91 -299t-262 -125t-263 124q-91 124 -91 299t90 299q91 124 263 124t263 -124t91 -298z" />
    <glyph glyph-name="foursuperior" unicode="&#x2074;" horiz-adv-x="813" 
d="M461 1192v324l-207 -324h207zM764 1038h-109v-176h-194v176h-402v133l324 510h272v-489h109v-154z" />
    <glyph glyph-name="fivesuperior" unicode="&#x2075;" horiz-adv-x="813" 
d="M476 1393q114 1 190 -67t77 -194q0 -126 -93 -205t-251 -79q-217 0 -329 125l106 129q84 -96 223 -96q70 0 110 34t40 88q0 53 -38 87t-105 34q-102 0 -175 -71l-137 45v458h594v-157h-397v-199q71 68 185 68z" />
    <glyph glyph-name="sixsuperior" unicode="&#x2076;" horiz-adv-x="813" 
d="M412 1006q70 0 108 36q39 36 39 91t-44 87t-105 31q-92 0 -154 -71q6 -74 46 -124t110 -50zM756 1133q0 -125 -91 -205t-235 -80q-186 0 -279 118t-93 308t108 306q109 114 297 114q147 0 250 -80l-84 -139q-70 61 -165 61q-94 0 -152 -62t-58 -153v-18q84 102 208 102
q124 1 209 -73t85 -199z" />
    <glyph glyph-name="sevensuperior" unicode="&#x2077;" horiz-adv-x="759" 
d="M53 1524v157h645v-135l-303 -684h-217l307 662h-432z" />
    <glyph glyph-name="eightsuperior" unicode="&#x2078;" horiz-adv-x="813" 
d="M406 997q68 0 110 26t43 76q0 50 -54 81t-99 34q-45 -6 -99 -35q-53 -30 -53 -80t42 -76t110 -26zM545 1448q0 45 -38 70q-38 24 -100 24t-101 -24q-38 -25 -38 -70q0 -76 138 -102q139 24 139 102zM754 1075q0 -117 -100 -172t-247 -55q-146 0 -247 55q-100 55 -101 172
q-1 72 55 130t140 79q-80 18 -130 68t-50 123q0 111 98 165t234 54t235 -54q98 -54 98 -165q0 -70 -50 -121t-128 -70q81 -20 137 -78t56 -131z" />
    <glyph glyph-name="ninesuperior" unicode="&#x2079;" horiz-adv-x="813" 
d="M256 1409q0 -55 44 -88t103 -33q98 0 154 76q-4 72 -43 122q-40 50 -110 50t-109 -36t-39 -91zM354 1137q-125 1 -211 73t-86 197t91 206t237 81q187 0 279 -118t92 -308t-108 -306q-108 -114 -277 -114t-269 80l86 139q64 -61 160 -61t154 61q57 61 57 154v18
q-80 -102 -205 -102z" />
    <glyph glyph-name="parenleftsuperior" unicode="&#x207d;" horiz-adv-x="393" 
d="M47 1272q0 150 57 300t152 243l117 -48q-125 -236 -125 -498t125 -493l-117 -47q-94 92 -152 243q-57 150 -57 300z" />
    <glyph glyph-name="parenrightsuperior" unicode="&#x207e;" horiz-adv-x="393" 
d="M358 1272q0 -150 -57 -300t-151 -243l-117 47q125 232 125 496t-125 495l117 48q94 -93 151 -243t57 -300z" />
    <glyph glyph-name="nsuperior" unicode="&#x207f;" horiz-adv-x="843" 
d="M739 668h-188v381q0 119 -117 118q-86 0 -141 -67v-432h-191v643h191v-82q86 98 214 98q232 0 232 -213v-446z" />
    <glyph glyph-name="zeroinferior" unicode="&#x2080;" horiz-adv-x="813" 
d="M561 110q-1 265 -155 265t-154 -265t156 -266q153 1 153 266zM760 111q0 -174 -91 -299t-262 -125t-263 124q-91 124 -91 299t90 299q91 123 263 123t263 -124t91 -297z" />
    <glyph glyph-name="oneinferior" unicode="&#x2081;" horiz-adv-x="585" 
d="M463 -299h-199v567l-139 -141l-111 119l279 274h170v-819z" />
    <glyph glyph-name="twoinferior" unicode="&#x2082;" horiz-adv-x="813" 
d="M537 256q0 119 -143 119q-65 0 -126 -31t-94 -72l-102 125q121 135 329 135q145 0 238 -67q92 -69 92 -177t-83 -203t-269 -226h358v-158h-643v143q268 188 356 270t87 142z" />
    <glyph glyph-name="threeinferior" unicode="&#x2083;" horiz-adv-x="813" 
d="M743 -84q0 -96 -93 -164q-93 -66 -247 -65q-227 0 -337 129l96 129q94 -100 235 -101q72 0 111 27t39 70q0 100 -180 100q-80 0 -93 -2v156q18 -2 91 -2q168 0 167 92q0 90 -137 90t-227 -90l-92 116q121 131 327 131q154 0 240 -60t86 -163q0 -72 -53 -123t-129 -63
q72 -7 134 -59t62 -148z" />
    <glyph glyph-name="fourinferior" unicode="&#x2084;" horiz-adv-x="813" 
d="M461 31v323l-207 -323h207zM764 -123h-109v-176h-194v176h-402v133l324 510h272v-489h109v-154z" />
    <glyph glyph-name="fiveinferior" unicode="&#x2085;" horiz-adv-x="813" 
d="M743 -30q0 -126 -93 -204t-251 -79q-217 0 -329 125l106 129q84 -96 223 -97q70 0 110 35t40 88t-38 87t-105 34q-102 0 -175 -72l-137 45v459h594v-158h-397v-198q71 68 185 68t191 -68q76 -68 76 -194z" />
    <glyph glyph-name="sixinferior" unicode="&#x2086;" horiz-adv-x="813" 
d="M559 -28q0 54 -44 86t-105 32q-92 0 -154 -72q6 -74 46 -124t110 -50t108 37q39 37 39 91zM756 -29q0 -125 -91 -205t-235 -79q-186 -1 -279 117t-93 309t108 305q109 114 297 114q147 0 250 -79l-84 -140q-70 61 -165 61q-94 0 -152 -62t-58 -152v-19q84 103 208 103
t209 -74t85 -199z" />
    <glyph glyph-name="seveninferior" unicode="&#x2087;" horiz-adv-x="759" 
d="M53 362v158h645v-135l-303 -684h-217l307 661h-432z" />
    <glyph glyph-name="eightinferior" unicode="&#x2088;" horiz-adv-x="813" 
d="M406 -164q68 0 110 26t43 75q0 50 -54 81t-99 35q-44 -6 -98 -36t-54 -80q0 -49 42 -75t110 -26zM545 287q0 45 -38 69t-100 25q-63 0 -101 -25t-38 -69q0 -76 138 -103q139 25 139 103zM754 -86q0 -117 -100 -172t-247 -55q-146 0 -247 55q-100 55 -101 172
q-1 72 55 130t140 79q-80 18 -130 68t-50 122q0 111 98 165t234 54t235 -54q98 -54 98 -165q0 -73 -50 -121t-128 -69q81 -21 137 -79t56 -130z" />
    <glyph glyph-name="nineinferior" unicode="&#x2089;" horiz-adv-x="813" 
d="M256 248q0 -55 44 -88t103 -33q98 0 154 76q-4 72 -43 122q-40 50 -110 50t-109 -36t-39 -91zM57 246q0 125 91 206t237 80q186 0 279 -117q92 -119 92 -309t-108 -305t-294 -114q-152 0 -252 80l86 139q64 -62 160 -62t154 62t57 153v19q-80 -102 -205 -102t-211 72
q-86 73 -86 198z" />
    <glyph glyph-name="parenleftinferior" unicode="&#x208d;" horiz-adv-x="393" 
d="M47 112q0 150 57 298q57 150 152 243l117 -47q-125 -236 -125 -498t125 -493l-117 -47q-94 92 -152 243q-57 151 -57 301z" />
    <glyph glyph-name="parenrightinferior" unicode="&#x208e;" horiz-adv-x="393" 
d="M358 111q0 -151 -57 -301t-151 -242l-117 47q125 231 125 495t-125 496l117 47q94 -94 151 -243t57 -299z" />
    <glyph glyph-name="colonmonetary" unicode="&#x20a1;" horiz-adv-x="1425" 
d="M608 283q59 -31 127 -43l275 829q-57 37 -125 53zM385 680q0 -176 104 -303l248 747q-158 -24 -255 -146t-97 -298zM86 682q0 311 208 509t519 198h12l62 184h147l-67 -201q70 -16 129 -43l80 244h147l-106 -320q100 -80 167 -198l-249 -123q-4 8 -17 24l-235 -716
q83 16 149 68t103 124l249 -121q-194 -336 -571 -336l-18 2l-62 -182h-147l65 197q-61 10 -129 35l-78 -232h-147l98 297q-145 94 -227 247t-82 343z" />
    <glyph glyph-name="frenchfranc" unicode="&#x20a3;" horiz-adv-x="1187" 
d="M442 0h-290v223h-136v148h136v995h966v-256h-676v-289h662v-256h-662v-194h318v-148h-318v-223z" />
    <glyph glyph-name="lira" unicode="&#x20a4;" horiz-adv-x="1126" 
d="M47 682v135h78q-33 70 -33 146q0 186 152 305t346 118q346 0 475 -247l-231 -135q-27 66 -83 106t-137 39q-80 0 -142 -53q-62 -54 -62 -132t36 -147h359v-135h-275q29 -59 39 -107h236v-133h-240q-31 -100 -121 -157q42 14 102 14t138 -34t127 -34q121 0 176 76
l115 -231q-98 -102 -301 -103q-96 0 -206 45t-165 45q-96 0 -237 -77l-99 198q223 109 223 256v2h-270v133h234q-23 45 -70 107h-164z" />
    <glyph glyph-name="uni20A6" unicode="&#x20a6;" horiz-adv-x="1529" 
d="M1083 618v138h-182l100 -138h82zM442 756v-138h199l-100 138h-99zM1374 0h-280l-346 471h-306v-471h-290v471h-136v147h136v138h-136v147h136v463h299l342 -463h290v463h291v-463h135v-147h-135v-138h135v-147h-135v-471z" />
    <glyph glyph-name="peseta" unicode="&#x20a7;" horiz-adv-x="1386" 
d="M444 1110v-125h494q-43 125 -186 125h-308zM752 705q143 0 188 126h-496v-126h308zM1378 831h-133q-25 -167 -145 -275t-309 -107h-347v-449h-292v831h-136v154h136v381h639q190 0 310 -106t144 -275h133v-154z" />
    <glyph glyph-name="rupee" unicode="&#x20a8;" horiz-adv-x="2195" 
d="M731 741q89 1 147 51t58 134t-57 134t-148 50h-305v-369h305zM426 485v-485h-291v1366h639q211 0 335 -123t124 -304t-87 -285t-212 -134l307 -520h-334l-268 485h-213zM1702 -25q-129 0 -247 41t-195 113l112 182q58 -53 156 -94t183 -41t127 29t42 72q0 76 -156 101
q-156 24 -279 79q-65 29 -109 91t-44 154q0 132 109 222t317 90t379 -135l-104 -179q-47 49 -126 82t-158 33t-122 -28q-43 -27 -43 -65q0 -67 149 -90t285 -84q66 -30 109 -96t43 -159q0 -139 -114 -229t-314 -89z" />
    <glyph glyph-name="uni20A9" unicode="&#x20a9;" horiz-adv-x="1880" 
d="M940 938l-10 -35h18zM545 473l22 -94l25 94h-47zM1288 473l25 -94l22 94h-47zM893 756l-35 -135h164l-35 135h-94zM1214 756l35 -135h121l33 135h-189zM475 756l33 -135h123l35 135h-191zM27 473v148h188l-39 135h-149v147h108l-133 463h326l112 -463h265l122 463h228
l121 -463h264l110 463h328l-131 -463h108v-147h-151l-39 -135h190v-148h-231l-135 -473h-309l-121 473h-238l-119 -473h-309l-135 473h-231z" />
    <glyph glyph-name="afii57636" unicode="&#x20aa;" horiz-adv-x="1730" 
d="M715 1126q259 0 369 -114t110 -334v-318h-246v295q0 127 -53 187t-180 59h-340v-901h-246v1126h586zM1122 0h-587v764h247v-539h340q126 -1 180 59t54 185v657h246v-677q0 -221 -110 -335t-370 -114z" />
    <glyph glyph-name="dong" unicode="&#x20ab;" horiz-adv-x="1208" 
d="M584 207q66 0 129 32t96 80v351q-33 49 -96 81t-129 31q-111 0 -181 -80q-69 -80 -69 -208t70 -207q70 -80 180 -80zM1071 0h-262v127q-121 -152 -309 -152q-188 1 -312 139q-122 138 -122 378t122 380t314 142q190 0 307 -152v219h-297v148h297v137h262v-137h119v-148
h-119v-1081zM995 -350h-743v147h743v-147z" />
    <glyph glyph-name="Euro" unicode="&#x20ac;" horiz-adv-x="1452" 
d="M844 -25q-250 1 -440 133t-257 355h-104v155h76q-2 20 -2 66t2 68h-76v153h107q68 221 256 352t438 132q383 0 571 -334l-250 -123q-45 86 -132 142t-201 56t-211 -60q-98 -60 -154 -165h502v-153h-549q-4 -23 -4 -58t4 -76h549v-155h-504q53 -105 153 -167t214 -62
t201 54q87 56 132 144l250 -121q-194 -336 -571 -336z" />
    <glyph glyph-name="afii61289" unicode="&#x2113;" horiz-adv-x="1077" 
d="M778 1082q0 52 -55 87t-138 35t-139 -55t-57 -152v-256l238 158q83 55 117 93t34 90zM389 293q0 -49 25 -80q26 -31 72 -31t83 31l56 -174q-66 -63 -206 -63q-290 -1 -290 270v751q0 168 131 279q130 110 322 110t318 -84t126 -212q0 -104 -82 -190t-229 -185l-326 -215
v-207z" />
    <glyph glyph-name="afii61352" unicode="&#x2116;" horiz-adv-x="2322" 
d="M1358 0h-281l-651 891v-891h-291v1366h299l633 -858v858h291v-1366zM1907 868q75 0 117 50t42 136q0 85 -42 134t-116 49t-117 -48q-42 -48 -42 -134q0 -87 42 -137t116 -50zM2261 1055q0 -141 -97 -239t-256 -99q-159 0 -256 98q-98 97 -98 239t98 240t256 98
q159 0 256 -98t97 -239z" />
    <glyph glyph-name="published" unicode="&#x2117;" horiz-adv-x="1593" 
d="M1038 852q0 70 -47 115t-114 45h-230v-318h230q69 0 115 44t46 114zM877 1098q106 0 182 -68t76 -176t-76 -176t-182 -68h-230v-342h-94v830h324zM1430 684q0 260 -186 446t-447 186t-447 -186t-186 -446t186 -446t446 -186t448 186q186 186 186 446zM1503 684
q0 -291 -207 -499q-208 -208 -500 -208t-499 208t-207 499t207 499t500 208t499 -208t207 -499z" />
    <glyph glyph-name="servicemark" unicode="&#x2120;" horiz-adv-x="974" 
d="M385 1034q0 -61 -46 -98q-45 -37 -145 -37t-163 74l37 43q57 -66 139 -66q111 0 110 80q0 39 -44 62q-44 22 -95 30t-95 40t-44 88t46 92t118 36q113 0 168 -65l-37 -39q-45 55 -129 55q-43 0 -71 -20q-28 -21 -28 -55q0 -58 140 -84q53 -9 96 -42t43 -94zM899 915h-57
v373l-154 -373h-16l-154 373v-373h-57v451h88l131 -328l131 328h88v-451z" />
    <glyph glyph-name="trademark" unicode="&#x2122;" horiz-adv-x="929" 
d="M346 1313h-127v-398h-57v398h-127v53h311v-53zM858 915h-57v373l-154 -373h-16l-154 373v-373h-57v451h88l131 -328l131 328h88v-451z" />
    <glyph glyph-name="Omega" unicode="&#x2126;" horiz-adv-x="1566" 
d="M106 256h244q-280 190 -280 486t200 472q200 174 513 174q312 0 513 -174q201 -176 201 -472t-278 -486h243v-256h-553v256q129 35 209 153q80 119 80 287t-106 300t-310 132t-308 -132q-105 -132 -105 -301t80 -287t208 -152v-256h-551v256z" />
    <glyph glyph-name="estimated" unicode="&#x212e;" horiz-adv-x="1724" 
d="M1368 715v391q0 29 -20 49q-199 203 -484 203t-487 -209q-20 -20 -21 -49v-385q0 -12 11 -13h993q8 1 8 13zM1661 664h-1294q-10 0 -11 -11v-389q0 -29 19 -47q201 -211 501 -211t502 236h117q-111 -129 -277 -204t-356 -75q-330 0 -564 211t-235 508q1 297 235 508
t564 211t564 -211t235 -508v-18z" />
    <glyph glyph-name="onethird" unicode="&#x2153;" horiz-adv-x="1775" 
d="M1704 214q0 -96 -93 -162t-247 -66q-227 0 -338 129l96 129q94 -100 236 -101q72 0 110 27t39 70q0 100 -180 100q-80 0 -92 -2v156q18 -2 90 -2q168 0 168 91q1 91 -137 91t-228 -90l-92 116q121 131 328 131q154 0 240 -60t86 -163q0 -72 -54 -123t-129 -63
q73 -6 135 -58q62 -54 62 -150zM1313 1366l-875 -1366h-155l872 1366h158zM463 547h-199v567l-139 -141l-111 119l279 274h170v-819z" />
    <glyph glyph-name="twothirds" unicode="&#x2154;" horiz-adv-x="1953" 
d="M1884 214q0 -96 -93 -162t-247 -66q-227 0 -338 129l97 129q94 -100 235 -101q72 0 111 27t39 70q0 100 -181 100q-80 0 -92 -2v156q18 -2 90 -2q168 0 168 91t-137 91t-227 -90l-92 116q121 131 327 131q154 0 240 -60t86 -163q0 -72 -53 -123t-129 -63q72 -6 134 -58
q62 -54 62 -150zM1491 1366l-875 -1366h-155l872 1366h158zM537 1102q0 120 -143 119q-65 0 -126 -31t-94 -72l-102 125q121 135 329 135q145 0 238 -67q92 -69 92 -177t-83 -203t-269 -226h358v-158h-643v143q268 188 356 269q87 81 87 143z" />
    <glyph glyph-name="oneeighth" unicode="&#x215b;" horiz-adv-x="1775" 
d="M1313 1366l-875 -1366h-155l872 1366h158zM1366 135q68 -1 111 25t43 76t-54 81t-100 35q-45 -6 -98 -36q-54 -30 -54 -80t42 -76t110 -25zM1505 586q0 46 -38 70t-100 24t-100 -25t-38 -69q0 -76 137 -103q139 25 139 103zM1714 213q0 -117 -100 -172t-246 -55t-248 55
q-100 55 -100 172q0 72 55 130t139 79q-80 18 -130 68t-50 122q0 111 98 165t235 54t235 -54t98 -165q0 -72 -50 -120t-128 -70q82 -20 137 -78t55 -131zM463 547h-199v567l-139 -141l-111 119l279 274h170v-819z" />
    <glyph glyph-name="threeeighths" unicode="&#x215c;" horiz-adv-x="1953" 
d="M743 762q0 -96 -93 -164q-93 -66 -247 -66q-227 0 -337 130l96 129q94 -100 235 -101q72 0 111 27t39 69q0 100 -180 101q-80 0 -93 -2v155q18 -2 91 -2q168 0 167 92q0 90 -137 90t-227 -90l-92 117q121 131 327 131q154 0 240 -60t86 -163q0 -72 -53 -123t-129 -63
q72 -7 134 -59t62 -148zM1491 1366l-875 -1366h-155l872 1366h158zM1395 236q0 -50 42 -76q41 -26 109 -25q68 -1 111 25t43 76t-54 81t-100 35q-45 -6 -98 -36t-53 -80zM1686 586q0 46 -38 70t-100 24t-101 -25q-38 -25 -38 -69q0 -76 137 -103q140 25 140 103zM1894 213
q0 -117 -100 -172t-246 -55t-248 55q-100 55 -100 172q0 72 55 130t140 79q-80 18 -130 68t-51 122q0 111 98 165t235 54t235 -54t98 -165q0 -72 -50 -120t-128 -70q82 -20 137 -78t55 -131z" />
    <glyph glyph-name="fiveeighths" unicode="&#x215d;" horiz-adv-x="1941" 
d="M1479 1366l-875 -1366h-155l872 1366h158zM743 816q0 -126 -93 -205t-251 -79q-217 0 -329 125l106 129q84 -96 223 -96q70 0 110 35t40 88t-38 87t-105 34q-102 0 -175 -72l-137 45v459h594v-158h-397v-198q71 68 185 68t191 -68q76 -68 76 -194zM1532 135q68 -1 111 25
t43 76t-54 81t-100 35q-45 -6 -98 -36q-54 -30 -54 -80t42 -76t110 -25zM1671 586q0 46 -38 70t-100 24t-100 -25t-38 -69q0 -76 137 -103q139 25 139 103zM1880 213q0 -117 -100 -172t-246 -55t-248 55q-100 55 -100 172q0 72 55 130t139 79q-80 18 -130 68t-50 122
q0 111 98 165t234 54t235 -54q98 -54 99 -165q0 -72 -50 -120t-128 -70q82 -20 137 -78t55 -131z" />
    <glyph glyph-name="seveneighths" unicode="&#x215e;" horiz-adv-x="1787" 
d="M1325 1366l-874 -1366h-156l872 1366h158zM53 1208v158h645v-135l-303 -684h-217l307 661h-432zM1227 236q0 -50 42 -76q41 -26 109 -25q68 -1 111 25t43 76t-54 81t-100 35q-45 -6 -98 -36t-53 -80zM1518 586q0 46 -38 70t-100 24t-101 -25q-38 -25 -38 -69
q0 -76 137 -103q140 25 140 103zM1726 213q0 -117 -100 -172t-246 -55t-247 55q-100 55 -101 172q0 72 55 130t140 79q-80 18 -130 68t-50 122q0 111 98 165t234 54q137 0 235 -54t98 -165q0 -72 -50 -120t-128 -70q82 -20 137 -78t55 -131z" />
    <glyph glyph-name="arrowleft" unicode="&#x2190;" horiz-adv-x="1191" 
d="M1102 432h-551l24 -266l-575 420l575 418l-24 -265h551v-307z" />
    <glyph glyph-name="arrowup" unicode="&#x2191;" horiz-adv-x="1191" 
d="M442 35v551l-266 -25l420 576l418 -576l-264 25v-551h-308z" />
    <glyph glyph-name="arrowright" unicode="&#x2192;" horiz-adv-x="1191" 
d="M96 432v307h549l-24 265l575 -418l-575 -420l24 266h-549z" />
    <glyph glyph-name="arrowdown" unicode="&#x2193;" horiz-adv-x="1191" 
d="M750 1137v-551l266 24l-420 -575l-418 575l264 -24v551h308z" />
    <glyph glyph-name="partialdiff" unicode="&#x2202;" horiz-adv-x="1175" 
d="M588 207q118 0 186 72q68 73 68 181t-68 180t-186 71q-118 0 -186 -71q-66 -72 -66 -182t66 -180t186 -71zM1112 537q0 -261 -140 -411t-381 -151q-241 1 -383 141t-142 342t125 343q126 141 326 141t302 -162q-123 305 -450 475l209 146q218 -129 376 -366t158 -498z
" />
    <glyph glyph-name="Delta" unicode="&#x2206;" horiz-adv-x="1400" 
d="M999 256l-299 819l-299 -819h598zM1409 0h-1419l528 1366h365z" />
    <glyph glyph-name="product" unicode="&#x220f;" horiz-adv-x="1613" 
d="M1350 -184h-293v1294h-500v-1294h-293v1294h-213v256h1512v-256h-213v-1294z" />
    <glyph glyph-name="summation" unicode="&#x2211;" horiz-adv-x="1200" 
d="M1106 72v-256h-1014v256l416 532l-414 506v256h1012v-256h-647l407 -504l-422 -534h662z" />
    <glyph glyph-name="minus" unicode="&#x2212;" horiz-adv-x="1032" 
d="M973 608h-914v162h914v-162z" />
    <glyph glyph-name="uni2215" unicode="&#x2215;" horiz-adv-x="325" 
d="M678 1366l-875 -1366h-155l872 1366h158z" />
    <glyph glyph-name="uni2219" unicode="&#x2219;" horiz-adv-x="524" 
d="M96 501q0 67 49 115t117 50q68 0 117 -49t49 -116t-49 -116t-117 -49t-117 49t-49 116z" />
    <glyph glyph-name="radical" unicode="&#x221a;" horiz-adv-x="1396" 
d="M827 0h-172l-229 618l-268 -96l-52 154l433 149l206 -565l406 1106h195z" />
    <glyph glyph-name="infinity" unicode="&#x221e;" horiz-adv-x="1413" 
d="M418 483q78 -1 131 57t84 146q-31 88 -84 145t-132 57t-132 -54t-53 -146t54 -148t132 -57zM997 485q78 1 130 55t53 146q0 92 -52 148t-131 55q-78 1 -132 -57t-85 -146q31 -88 85 -144t132 -57zM399 324q-168 0 -254 108t-86 255q0 146 86 254t254 108q99 1 181 -57
t127 -148q45 90 126 147t179 58q170 0 256 -108t86 -255t-86 -255t-256 -107q-98 0 -179 57t-126 147q-45 -90 -127 -147t-181 -57z" />
    <glyph glyph-name="integral" unicode="&#x222b;" horiz-adv-x="763" 
d="M160 -205h-125v174h125q53 0 91 43t38 111v1122q0 147 93 237t222 91h125v-174h-125q-53 0 -90 -42t-37 -110v-1126q0 -145 -94 -235t-223 -91z" />
    <glyph glyph-name="approxequal" unicode="&#x2248;" horiz-adv-x="1032" 
d="M59 784v177q193 -118 440 -11t474 8v-176q-192 117 -445 10q-123 -52 -246 -52t-223 44zM750 631q124 0 223 -49v-174q-100 61 -211 61t-234 -53t-245 -53t-224 49v174q194 -118 444 -8q123 54 247 53z" />
    <glyph glyph-name="notequal" unicode="&#x2260;" horiz-adv-x="1032" 
d="M59 412v159h308l143 224h-451v163h553l140 218h157l-139 -218h203v-163h-305l-146 -224h451v-159h-553l-139 -222h-156l139 222h-205z" />
    <glyph glyph-name="lessequal" unicode="&#x2264;" horiz-adv-x="1032" 
d="M973 0h-914v160h914v-160zM973 225l-914 406v188l914 410v-195l-727 -309l727 -309v-191z" />
    <glyph glyph-name="greaterequal" unicode="&#x2265;" horiz-adv-x="1032" 
d="M973 0h-916v160h916v-160zM971 631l-914 -406v191l729 309l-729 309v195l914 -410v-188z" />
    <glyph glyph-name="triangleright" unicode="&#x22b2;" horiz-adv-x="1202" 
d="M1206 586l-1095 -633v1266z" />
    <glyph glyph-name="triangleleft" unicode="&#x22b3;" horiz-adv-x="1202" 
d="M1096 1219v-1266l-1096 633z" />
    <glyph glyph-name="dotmath" unicode="&#x22c5;" horiz-adv-x="524" 
d="M96 501q0 67 49 115t117 50q68 0 117 -49t49 -116t-49 -116t-117 -49t-117 49t-49 116z" />
    <glyph glyph-name="uni2318" unicode="&#x2318;" horiz-adv-x="1366" 
d="M1280 315q0 -93 -67 -161t-161 -68t-161 68q-68 68 -68 161v136h-280v-136q0 -93 -68 -161t-162 -68q-95 0 -161 68t-66 162t67 160q67 67 160 67h136v280h-134q-93 0 -161 68t-68 162q0 95 68 161t162 66t160 -67q67 -67 67 -160v-138h280v138q0 95 68 161t162 66
q95 0 161 -67t66 -161t-67 -161q-67 -68 -160 -68h-135v-280h135q95 0 161 -67t66 -161zM1053 915q55 1 94 41t39 96t-39 96t-95 40t-96 -40t-38 -95v-138h135zM1186 314q0 56 -39 96t-94 41h-135v-136q0 -57 38 -97t96 -40q56 0 95 40t39 96zM543 543h280v280h-280v-280z
M449 915v138q0 55 -39 95q-40 40 -96 40t-96 -40t-40 -96t40 -96t97 -41h134zM449 315v136h-138q-55 0 -94 -40q-39 -41 -39 -97t39 -96t95 -40t97 40q40 40 40 97z" />
    <glyph glyph-name="blacksquare" unicode="&#x25a0;" horiz-adv-x="1353" 
d="M1266 0h-1170v1171h1170v-1171z" />
    <glyph glyph-name="triagup" unicode="&#x25b2;" horiz-adv-x="1261" 
d="M1264 59l-1268 2l633 1096z" />
    <glyph glyph-name="triagdn" unicode="&#x25bc;" horiz-adv-x="1261" 
d="M1264 1044l-635 -1095l-633 1095h1268z" />
    </font>
</defs>
</svg>
